<?xml version="1.0" encoding="utf-8"?>
<!-- Generator: Adobe Illustrator 26.5.0, SVG Export Plug-In . SVG Version: 6.00 Build 0)  -->
<svg version="1.1" id="Layer_1" xmlns="http://www.w3.org/2000/svg" xmlns:xlink="http://www.w3.org/1999/xlink" x="0px" y="0px"
	 viewBox="0 0 250 250" style="enable-background:new 0 0 250 250;" xml:space="preserve">
<style type="text/css">
	.st0{fill:#2A4798;}
</style>
<g id="SvgjsG1191" transform="matrix(1.2368760108947754,0,0,1.2368760108947754,114.18657763068255,-13.45281068761004)">
	<path class="st0" d="M10.3,209.8c-54.8,0-99.5-44.6-99.5-99.5s44.6-99.5,99.5-99.5s99.5,44.6,99.5,99.5S65.2,209.8,10.3,209.8z
		 M10.3,15.5c-52.3,0-94.9,42.6-94.9,94.9s42.6,94.9,94.9,94.9s94.9-42.6,94.9-94.9S62.6,15.5,10.3,15.5z"/>
	<path class="st0" d="M-1.8,102.4l-0.2-1.7c41.9-6,65.1-30,73.1-40l1.4,1.1C64.2,71.9,40.7,96.3-1.8,102.4z"/>
	<circle class="st0" cx="-1.7" cy="101.4" r="6.5"/>
	<circle class="st0" cx="71.4" cy="61.4" r="6.5"/>
	<path class="st0" d="M-26.8,181.8c-8-10.1-20.8-31.2-15.9-58.9l1.7,0.3c-4.8,27,7.7,47.6,15.5,57.5L-26.8,181.8z"/>
	<circle class="st0" cx="-41.9" cy="123.4" r="6.5"/>
	<circle class="st0" cx="-26.3" cy="181" r="6.5"/>
	<path class="st0" d="M76.1,129.4l-1.7,0c0.6-21.6-7.7-42.3-23.3-58.2c-16.2-16.6-38.9-26-62.3-25.9l0-1.7
		C12.6,43.5,35.8,53,52.4,70C68.3,86.2,76.7,107.4,76.1,129.4z"/>
	<circle class="st0" cx="75.2" cy="129.1" r="6.5"/>
	<circle class="st0" cx="-10.8" cy="44.5" r="6.5"/>
	<path class="st0" d="M22.8,177.3c-52.1-2.6-87.5-36.7-103.2-67.8c-11.5-22.9-13.3-45.1-4.7-58.1C-79.5,43-69.9,39-57.4,39.9
		l-0.1,1.7c-11.9-0.8-20.9,2.9-26.1,10.7c-8.3,12.5-6.4,34.1,4.8,56.4c15.5,30.6,50.3,64.3,101.7,66.8L22.8,177.3z"/>
	<circle class="st0" cx="22.5" cy="176.3" r="6.5"/>
	<path class="st0" d="M-50.5,187c-24.1-3.9-40.4-21.3-41.6-44.3c-1.1-22.1,12.5-48.3,45.3-57.2l0.4,1.7c-31.9,8.6-45.1,34-44.1,55.4
		c0.9,17.6,11.9,38,40.1,42.7L-50.5,187z"/>
	<circle class="st0" cx="-46.8" cy="86.5" r="6.5"/>
	<path class="st0" d="M62,213c-0.7,0-1.5,0-2.3-0.1c-14.6-1.4-27.8-14.8-35.4-36.1l1.6-0.6c7.3,20.6,20,33.6,33.9,34.9
		c7.5,0.7,14.1-2.3,17.3-7.8c3.3-5.7,2.4-13.1-2.6-20.3l1.4-1c5.4,7.7,6.4,15.8,2.7,22.1C75.5,209.7,69.2,213,62,213z"/>
	<path class="st0" d="M40.5,38.7l-1.6-0.5c3.9-11.9,10.9-19.6,19-21c5-0.9,10,0.8,12.9,4.5c2.9,3.6,3.3,8.5,1.3,13.3l-1.6-0.7
		c1.8-4.3,1.4-8.5-1-11.6c-2.5-3.2-6.8-4.6-11.2-3.8C50.6,20.2,44.2,27.5,40.5,38.7z"/>
	<ellipse transform="matrix(0.1602 -0.9871 0.9871 0.1602 -4.2729 71.3067)" class="st0" cx="39.8" cy="38.2" rx="8" ry="8"/>
</g>
</svg>
