<?xml version="1.0" encoding="UTF-8"?><svg xmlns="http://www.w3.org/2000/svg" xmlns:xlink="http://www.w3.org/1999/xlink" viewBox="0 0 600 600"><defs><clipPath id="clippath"><polyline points="1681.45 -137.98 1477.2 599.92 -793.44 599.92 -589.19 -137.98" fill="none"/></clipPath><linearGradient id="_Áåçûìÿííûé_ãðàäèåíò_96" x1="355.34" y1="418.8" x2="355.34" y2="249.5" gradientUnits="userSpaceOnUse"><stop offset="0" stop-color="#744fd8"/><stop offset="1" stop-color="#3996f7"/></linearGradient><linearGradient id="_Áåçûìÿííûé_ãðàäèåíò_33" x1="351.03" y1="418.5" x2="351.03" y2="249.5" gradientUnits="userSpaceOnUse"><stop offset="0" stop-color="#9d68c2"/><stop offset="1" stop-color="#ccedff"/></linearGradient><linearGradient id="_Áåçûìÿííûé_ãðàäèåíò_373" x1="296.52" y1="653.84" x2="296.52" y2="444.37" gradientUnits="userSpaceOnUse"><stop offset="0" stop-color="#1c257b"/><stop offset="1" stop-color="#482c83"/></linearGradient><linearGradient id="_Áåçûìÿííûé_ãðàäèåíò_27" x1="285.99" y1="521.7" x2="285.99" y2="444.36" gradientUnits="userSpaceOnUse"><stop offset="0" stop-color="#8b8be0"/><stop offset="1" stop-color="#a177b7"/></linearGradient><linearGradient id="_Áåçûìÿííûé_ãðàäèåíò_71" x1="387.03" y1="412.84" x2="387.03" y2="385.02" gradientUnits="userSpaceOnUse"><stop offset=".02" stop-color="#ffc2a9"/><stop offset="1" stop-color="#ff9595"/></linearGradient><linearGradient id="_Áåçûìÿííûé_ãðàäèåíò_12" x1="284.62" y1="470.81" x2="284.62" y2="444.37" gradientUnits="userSpaceOnUse"><stop offset="0" stop-color="#d1c8f8"/><stop offset="1" stop-color="#eee5f9"/></linearGradient><linearGradient id="_Áåçûìÿííûé_ãðàäèåíò_27-2" x1="284.23" y1="470.81" x2="284.23" y2="444.37" xlink:href="#_Áåçûìÿííûé_ãðàäèåíò_27"/><linearGradient id="_Áåçûìÿííûé_ãðàäèåíò_30" x1="434.47" y1="360.85" x2="434.47" y2="351.99" gradientUnits="userSpaceOnUse"><stop offset=".02" stop-color="#ffa58b"/><stop offset="1" stop-color="#ff898e"/></linearGradient><linearGradient id="_Áåçûìÿííûé_ãðàäèåíò_96-2" x1="186.83" y1="368.38" x2="186.83" y2="244.05" xlink:href="#_Áåçûìÿííûé_ãðàäèåíò_96"/><linearGradient id="_Áåçûìÿííûé_ãðàäèåíò_30-2" x1="271.98" y1="279.07" x2="271.98" y2="204.9" xlink:href="#_Áåçûìÿííûé_ãðàäèåíò_30"/><linearGradient id="_Áåçûìÿííûé_ãðàäèåíò_12-2" x1="270.17" y1="269.95" x2="270.17" y2="235.2" xlink:href="#_Áåçûìÿííûé_ãðàäèåíò_12"/><linearGradient id="_Áåçûìÿííûé_ãðàäèåíò_33-2" x1="187.09" y1="368.38" x2="187.09" y2="244.05" xlink:href="#_Áåçûìÿííûé_ãðàäèåíò_33"/><linearGradient id="_Áåçûìÿííûé_ãðàäèåíò_71-2" x1="274.24" y1="224.22" x2="274.24" y2="106.46" xlink:href="#_Áåçûìÿííûé_ãðàäèåíò_71"/><linearGradient id="_Áåçûìÿííûé_ãðàäèåíò_30-3" x1="271.68" y1="199.02" x2="271.68" y2="105.98" xlink:href="#_Áåçûìÿííûé_ãðàäèåíò_30"/><linearGradient id="_Áåçûìÿííûé_ãðàäèåíò_11" x1="270.73" y1="177.33" x2="256.83" y2="89.57" gradientUnits="userSpaceOnUse"><stop offset="0" stop-color="#d49092"/><stop offset=".13" stop-color="#d18e91"/><stop offset=".2" stop-color="#c98891"/><stop offset=".27" stop-color="#ba7e90"/><stop offset=".32" stop-color="#a6708e"/><stop offset=".37" stop-color="#8c5e8c"/><stop offset=".42" stop-color="#6c488a"/><stop offset=".46" stop-color="#462e87"/><stop offset=".47" stop-color="#3e2987"/><stop offset=".61" stop-color="#352177"/><stop offset=".85" stop-color="#281661"/><stop offset="1" stop-color="#24135a"/></linearGradient><linearGradient id="_Áåçûìÿííûé_ãðàäèåíò_71-3" x1="100.3" y1="366.07" x2="100.3" y2="158.89" xlink:href="#_Áåçûìÿííûé_ãðàäèåíò_71"/><linearGradient id="_Áåçûìÿííûé_ãðàäèåíò_96-3" x1="273.41" y1="468.78" x2="273.41" y2="235.2" xlink:href="#_Áåçûìÿííûé_ãðàäèåíò_96"/><linearGradient id="_Áåçûìÿííûé_ãðàäèåíò_373-2" x1="392.84" y1="399.1" x2="392.84" y2="285.97" xlink:href="#_Áåçûìÿííûé_ãðàäèåíò_373"/><linearGradient id="_Áåçûìÿííûé_ãðàäèåíò_27-3" x1="431.7" y1="374.4" x2="431.7" y2="330.83" xlink:href="#_Áåçûìÿííûé_ãðàäèåíò_27"/><linearGradient id="_Áåçûìÿííûé_ãðàäèåíò_71-4" x1="433.29" y1="353.98" x2="433.29" y2="330.83" xlink:href="#_Áåçûìÿííûé_ãðàäèåíò_71"/><linearGradient id="_Áåçûìÿííûé_ãðàäèåíò_71-5" x1="444.41" y1="333.51" x2="444.41" y2="315.98" xlink:href="#_Áåçûìÿííûé_ãðàäèåíò_71"/><linearGradient id="_Áåçûìÿííûé_ãðàäèåíò_71-6" x1="432.25" y1="363.35" x2="432.25" y2="355.7" xlink:href="#_Áåçûìÿííûé_ãðàäèåíò_71"/><linearGradient id="_Áåçûìÿííûé_ãðàäèåíò_373-3" x1="264.47" y1="150.11" x2="264.47" y2="131.12" xlink:href="#_Áåçûìÿííûé_ãðàäèåíò_373"/><linearGradient id="_Áåçûìÿííûé_ãðàäèåíò_117" x1="271.45" y1="164.66" x2="271.45" y2="149.49" gradientUnits="userSpaceOnUse"><stop offset="0" stop-color="#d0c7f8"/><stop offset="1" stop-color="#fff"/></linearGradient><linearGradient id="_Áåçûìÿííûé_ãðàäèåíò_117-2" x1="300.94" y1="160.5" x2="300.94" y2="145.33" xlink:href="#_Áåçûìÿííûé_ãðàäèåíò_117"/><linearGradient id="_Áåçûìÿííûé_ãðàäèåíò_184" x1="57.88" y1="208.25" x2="82.37" y2="208.25" gradientUnits="userSpaceOnUse"><stop offset="0" stop-color="#cf6074"/><stop offset="1" stop-color="#ff817f"/></linearGradient><radialGradient id="_Áåçûìÿííûé_ãðàäèåíò_3" cx="269.75" cy="159.24" fx="269.75" fy="159.24" r="5.97" gradientUnits="userSpaceOnUse"><stop offset="0" stop-color="#cf95ff"/><stop offset="1" stop-color="#8161ff"/></radialGradient><linearGradient id="_Áåçûìÿííûé_ãðàäèåíò_2" x1="269.56" y1="161" x2="269.56" y2="152.55" gradientUnits="userSpaceOnUse"><stop offset="0" stop-color="#8642a0"/><stop offset="1" stop-color="#4e37b7"/></linearGradient><radialGradient id="_Áåçûìÿííûé_ãðàäèåíò_3-2" cx="299.72" cy="155.94" fx="299.72" fy="155.94" r="4" xlink:href="#_Áåçûìÿííûé_ãðàäèåíò_3"/><linearGradient id="_Áåçûìÿííûé_ãðàäèåíò_184-2" x1="49.71" y1="188.51" x2="70.19" y2="188.51" xlink:href="#_Áåçûìÿííûé_ãðàäèåíò_184"/><linearGradient id="_Áåçûìÿííûé_ãðàäèåíò_2-2" x1="298.77" y1="157.69" x2="298.77" y2="149.23" xlink:href="#_Áåçûìÿííûé_ãðàäèåíò_2"/><linearGradient id="_Áåçûìÿííûé_ãðàäèåíò_373-4" x1="300.52" y1="138.39" x2="300.52" y2="125.32" xlink:href="#_Áåçûìÿííûé_ãðàäèåíò_373"/><linearGradient id="_Áåçûìÿííûé_ãðàäèåíò_134" x1="292.8" y1="178.61" x2="296.39" y2="167.61" gradientUnits="userSpaceOnUse"><stop offset="0" stop-color="#ff8883"/><stop offset="1" stop-color="#e8868d"/></linearGradient><linearGradient id="_Áåçûìÿííûé_ãðàäèåíò_6" x1="295.01" y1="173.74" x2="295.01" y2="162.81" gradientUnits="userSpaceOnUse"><stop offset="0" stop-color="#ff8883"/><stop offset="1" stop-color="#ffb1a4"/></linearGradient><linearGradient id="_Áåçûìÿííûé_ãðàäèåíò_373-5" x1="126.76" y1="488.84" x2="126.76" y2="404.41" gradientTransform="translate(164.3 -257.62) rotate(28.27)" xlink:href="#_Áåçûìÿííûé_ãðàäèåíò_373"/><linearGradient id="_Áåçûìÿííûé_ãðàäèåíò_373-6" x1="1147.71" y1="489.01" x2="1147.71" y2="404.59" gradientTransform="translate(1293.18 349.24) rotate(-151.73) scale(1 -1)" xlink:href="#_Áåçûìÿííûé_ãðàäèåíò_373"/><linearGradient id="_Áåçûìÿííûé_ãðàäèåíò_373-7" x1="130.38" y1="491.22" x2="130.38" y2="487.52" gradientTransform="translate(164.3 -257.62) rotate(28.27)" xlink:href="#_Áåçûìÿííûé_ãðàäèåíò_373"/><linearGradient id="_Áåçûìÿííûé_ãðàäèåíò_34" x1="130.38" y1="480.93" x2="130.38" y2="449.18" gradientTransform="translate(164.3 -257.62) rotate(28.27)" gradientUnits="userSpaceOnUse"><stop offset="0" stop-color="#6a4fac"/><stop offset="1" stop-color="#513689"/></linearGradient><linearGradient id="_Áåçûìÿííûé_ãðàäèåíò_30-4" x1="78.52" y1="191.87" x2="78.52" y2="150.88" xlink:href="#_Áåçûìÿííûé_ãðàäèåíò_30"/><linearGradient id="_Áåçûìÿííûé_ãðàäèåíò_373-8" x1="387.7" y1="411.11" x2="387.7" y2="398.08" xlink:href="#_Áåçûìÿííûé_ãðàäèåíò_373"/><linearGradient id="_Áåçûìÿííûé_ãðàäèåíò_373-9" x1="401.47" y1="653.88" x2="401.47" y2="411.06" xlink:href="#_Áåçûìÿííûé_ãðàäèåíò_373"/><linearGradient id="_Áåçûìÿííûé_ãðàäèåíò_15" x1="1279.57" y1="122.25" x2="1279.57" y2="88.95" gradientTransform="translate(1474.86 -149.51) rotate(169.44) scale(1 -1)" gradientUnits="userSpaceOnUse"><stop offset=".02" stop-color="#ffac8b"/><stop offset="1" stop-color="#ff9595"/></linearGradient><linearGradient id="_Áåçûìÿííûé_ãðàäèåíò_184-3" x1="252.86" y1="223.52" x2="294.58" y2="223.52" xlink:href="#_Áåçûìÿííûé_ãðàäèåíò_184"/><linearGradient id="_Áåçûìÿííûé_ãðàäèåíò_80" x1="85.98" y1="231.73" x2="85.98" y2="199.42" gradientUnits="userSpaceOnUse"><stop offset=".02" stop-color="#ff997c"/><stop offset="1" stop-color="#ff898e"/></linearGradient><linearGradient id="_Áåçûìÿííûé_ãðàäèåíò_184-4" x1="96.89" y1="212.99" x2="104.43" y2="212.99" xlink:href="#_Áåçûìÿííûé_ãðàäèåíò_184"/><linearGradient id="_Áåçûìÿííûé_ãðàäèåíò_184-5" x1="104.19" y1="255.57" x2="104.19" y2="242.23" xlink:href="#_Áåçûìÿííûé_ãðàäèåíò_184"/><linearGradient id="_Áåçûìÿííûé_ãðàäèåíò_184-6" x1="159.01" y1="364.68" x2="159.01" y2="293.63" xlink:href="#_Áåçûìÿííûé_ãðàäèåíò_184"/><linearGradient id="_Áåçûìÿííûé_ãðàäèåíò_27-4" x1="271.77" y1="468.78" x2="271.77" y2="238.43" xlink:href="#_Áåçûìÿííûé_ãðàäèåíò_27"/><linearGradient id="_Áåçûìÿííûé_ãðàäèåíò_27-5" x1="259.41" y1="355.58" x2="259.41" y2="345.34" xlink:href="#_Áåçûìÿííûé_ãðàäèåíò_27"/><linearGradient id="_Áåçûìÿííûé_ãðàäèåíò_27-6" x1="329.43" y1="303.78" x2="329.43" y2="243.08" xlink:href="#_Áåçûìÿííûé_ãðàäèåíò_27"/><linearGradient id="_Áåçûìÿííûé_ãðàäèåíò_27-7" x1="307.54" y1="318.82" x2="307.54" y2="262.48" xlink:href="#_Áåçûìÿííûé_ãðàäèåíò_27"/><linearGradient id="_Áåçûìÿííûé_ãðàäèåíò_27-8" x1="289.41" y1="426.69" x2="289.41" y2="411.11" xlink:href="#_Áåçûìÿííûé_ãðàäèåíò_27"/><linearGradient id="_Áåçûìÿííûé_ãðàäèåíò_87" x1="215.65" y1="336.2" x2="215.65" y2="306.22" gradientUnits="userSpaceOnUse"><stop offset="0" stop-color="#9d68c2"/><stop offset="1" stop-color="#90aeff"/></linearGradient><linearGradient id="_Áåçûìÿííûé_ãðàäèåíò_27-9" x1="305.73" x2="305.73" y2="475.96" xlink:href="#_Áåçûìÿííûé_ãðàäèåíò_27"/><linearGradient id="_Áåçûìÿííûé_ãðàäèåíò_27-10" x1="296.52" y1="653.84" x2="296.52" y2="496.38" xlink:href="#_Áåçûìÿííûé_ãðàäèåíò_27"/><linearGradient id="_Áåçûìÿííûé_ãðàäèåíò_27-11" x1="314.76" y1="653.84" x2="314.76" y2="522.11" xlink:href="#_Áåçûìÿííûé_ãðàäèåíò_27"/><linearGradient id="_Áåçûìÿííûé_ãðàäèåíò_25" x1="392.84" y1="396.34" x2="392.84" y2="285.97" gradientUnits="userSpaceOnUse"><stop offset="0" stop-color="#8642a0"/><stop offset="1" stop-color="#6456c0"/></linearGradient><linearGradient id="_Áåçûìÿííûé_ãðàäèåíò_184-7" x1="424.37" y1="346.45" x2="438.95" y2="346.45" xlink:href="#_Áåçûìÿííûé_ãðàäèåíò_184"/><linearGradient id="_Áåçûìÿííûé_ãðàäèåíò_33-3" x1="238.04" y1="249.33" x2="238.04" y2="248.97" xlink:href="#_Áåçûìÿííûé_ãðàäèåíò_33"/><linearGradient id="_Áåçûìÿííûé_ãðàäèåíò_264" x1="287.98" y1="440.92" x2="287.98" y2="417.24" gradientUnits="userSpaceOnUse"><stop offset="0" stop-color="#b9acf4"/><stop offset="1" stop-color="#e1d1f5"/></linearGradient><linearGradient id="_Áåçûìÿííûé_ãðàäèåíò_264-2" x1="305.16" y1="455.23" x2="305.16" y2="437.44" xlink:href="#_Áåçûìÿííûé_ãðàäèåíò_264"/><linearGradient id="_Áåçûìÿííûé_ãðàäèåíò_264-3" x1="371.68" y1="399.1" x2="371.68" y2="334.15" xlink:href="#_Áåçûìÿííûé_ãðàäèåíò_264"/><linearGradient id="_Áåçûìÿííûé_ãðàäèåíò_27-12" x1="231.8" y1="577.94" x2="231.8" y2="512.33" xlink:href="#_Áåçûìÿííûé_ãðàäèåíò_27"/><linearGradient id="_Áåçûìÿííûé_ãðàäèåíò_27-13" x1="302.28" y1="580.96" x2="302.28" y2="501.59" xlink:href="#_Áåçûìÿííûé_ãðàäèåíò_27"/><linearGradient id="_Áåçûìÿííûé_ãðàäèåíò_78" x1="296.42" y1="264.68" x2="296.42" y2="241.98" gradientUnits="userSpaceOnUse"><stop offset="0" stop-color="#3d2cb0"/><stop offset="1" stop-color="#0355c7"/></linearGradient><linearGradient id="_Áåçûìÿííûé_ãðàäèåíò_10" x1="237.53" y1="150.61" x2="232.83" y2="120.97" gradientUnits="userSpaceOnUse"><stop offset="0" stop-color="#5e3187"/><stop offset=".38" stop-color="#412271"/><stop offset=".76" stop-color="#2b1760"/><stop offset="1" stop-color="#24135a"/></linearGradient><linearGradient id="_Áåçûìÿííûé_ãðàäèåíò_27-14" x1="282.85" y1="119.64" x2="282.85" y2="92.9" xlink:href="#_Áåçûìÿííûé_ãðàäèåíò_27"/><linearGradient id="_Áåçûìÿííûé_ãðàäèåíò_27-15" x1="263.4" y1="119.64" x2="263.4" y2="101.49" xlink:href="#_Áåçûìÿííûé_ãðàäèåíò_27"/><linearGradient id="_Áåçûìÿííûé_ãðàäèåíò_27-16" x1="300.27" y1="118.19" x2="300.27" y2="106.46" xlink:href="#_Áåçûìÿííûé_ãðàäèåíò_27"/><linearGradient id="_Áåçûìÿííûé_ãðàäèåíò_17" x1="265.46" y1="175.75" x2="265.46" y2="144.74" gradientUnits="userSpaceOnUse"><stop offset="0" stop-color="#f2c7cc"/><stop offset="1" stop-color="#a177b7"/></linearGradient><linearGradient id="_Áåçûìÿííûé_ãðàäèåíò_373-10" x1="268.67" y1="172.57" x2="272.28" y2="142.55" xlink:href="#_Áåçûìÿííûé_ãðàäèåíò_373"/><linearGradient id="_Áåçûìÿííûé_ãðàäèåíò_86" x1="269.23" y1="172.51" x2="272.83" y2="142.48" gradientUnits="userSpaceOnUse"><stop offset="0" stop-color="#1c257b"/><stop offset="1" stop-color="#65459c"/></linearGradient><linearGradient id="_Áåçûìÿííûé_ãðàäèåíò_373-11" x1="301.96" y1="166.51" x2="305.01" y2="141.1" xlink:href="#_Áåçûìÿííûé_ãðàäèåíò_373"/><linearGradient id="_Áåçûìÿííûé_ãðàäèåíò_86-2" x1="302.58" y1="166.51" x2="305.63" y2="141.1" xlink:href="#_Áåçûìÿííûé_ãðàäèåíò_86"/><linearGradient id="_Áåçûìÿííûé_ãðàäèåíò_86-3" x1="290.76" y1="147.56" x2="291.27" y2="143.3" xlink:href="#_Áåçûìÿííûé_ãðàäèåíò_86"/><linearGradient id="_Áåçûìÿííûé_ãðàäèåíò_86-4" x1="242.03" y1="174.26" x2="244.73" y2="151.73" xlink:href="#_Áåçûìÿííûé_ãðàäèåíò_86"/><linearGradient id="_Áåçûìÿííûé_ãðàäèåíò_25-2" x1="245.63" y1="163.12" x2="245.63" y2="156.77" xlink:href="#_Áåçûìÿííûé_ãðàäèåíò_25"/><linearGradient id="_Áåçûìÿííûé_ãðàäèåíò_9" x1="259.58" y1="164.47" x2="259.58" y2="150.48" gradientUnits="userSpaceOnUse"><stop offset="0" stop-color="#000"/><stop offset="1" stop-color="#e1d1f5"/></linearGradient><linearGradient id="_Áåçûìÿííûé_ãðàäèåíò_30-5" x1="278.53" y1="224.22" x2="278.53" y2="199.47" xlink:href="#_Áåçûìÿííûé_ãðàäèåíò_30"/><linearGradient id="_Áåçûìÿííûé_ãðàäèåíò_29" x1="-1366.02" y1="1238.18" x2="-1366.02" y2="1154.53" gradientTransform="translate(1632.5 -495.43) rotate(12.61)" gradientUnits="userSpaceOnUse"><stop offset="0" stop-color="#dbccff"/><stop offset="1" stop-color="#d1bbff"/></linearGradient><linearGradient id="_Áåçûìÿííûé_ãðàäèåíò_28" x1="-1366.02" y1="1241.44" x2="-1366.02" y2="1157.79" gradientTransform="translate(1632.5 -495.43) rotate(12.61)" gradientUnits="userSpaceOnUse"><stop offset="0" stop-color="#b5a6e7"/><stop offset="1" stop-color="#7760bf"/></linearGradient><linearGradient id="_Áåçûìÿííûé_ãðàäèåíò_28-2" x1="-1366.02" y1="1220.65" x2="-1366.02" y2="1185.39" xlink:href="#_Áåçûìÿííûé_ãðàäèåíò_28"/><linearGradient id="_Áåçûìÿííûé_ãðàäèåíò_27-17" x1="-1371.02" y1="1186.09" x2="-1361.02" y2="1186.09" gradientTransform="translate(1632.5 -495.43) rotate(12.61)" xlink:href="#_Áåçûìÿííûé_ãðàäèåíò_27"/><linearGradient id="_Áåçûìÿííûé_ãðàäèåíò_94" x1="-1366.02" y1="1188.42" x2="-1366.02" y2="1182.36" gradientTransform="translate(1632.5 -495.43) rotate(12.61)" gradientUnits="userSpaceOnUse"><stop offset="0" stop-color="#fff"/><stop offset="1" stop-color="#a177b7"/></linearGradient><linearGradient id="_Áåçûìÿííûé_ãðàäèåíò_95" x1="-1360.73" y1="1224.25" x2="-1360.73" y2="1185.37" gradientTransform="translate(1632.5 -495.43) rotate(12.61)" gradientUnits="userSpaceOnUse"><stop offset="0" stop-color="#000"/><stop offset="1" stop-color="#fff"/></linearGradient><linearGradient id="_Áåçûìÿííûé_ãðàäèåíò_115" x1="78.31" y1="559.45" x2="92.2" y2="448.92" gradientUnits="userSpaceOnUse"><stop offset="0" stop-color="#067eff"/><stop offset="1" stop-color="#3e37a0"/></linearGradient><linearGradient id="_Áåçûìÿííûé_ãðàäèåíò_302" x1="23.02" y1="1561.55" x2="23.02" y2="1548.51" gradientTransform="translate(1065.44 -1042.24) rotate(22.82)" gradientUnits="userSpaceOnUse"><stop offset="0" stop-color="#459fff"/><stop offset="1" stop-color="#a96dff"/></linearGradient><linearGradient id="_Áåçûìÿííûé_ãðàäèåíò_97" x1="564.54" y1="527.26" x2="564.54" y2="442.94" gradientUnits="userSpaceOnUse"><stop offset="0" stop-color="#d906e3"/><stop offset="1" stop-color="#ff6df9"/></linearGradient><linearGradient id="_Áåçûìÿííûé_ãðàäèåíò_206" x1="577.41" y1="383.87" x2="570.22" y2="322.2" gradientTransform="translate(108.07 -186.45) rotate(15.07)" gradientUnits="userSpaceOnUse"><stop offset="0" stop-color="#1852a0"/><stop offset="1" stop-color="#067ed3"/></linearGradient><linearGradient id="_Áåçûìÿííûé_ãðàäèåíò_206-2" x1="570.44" y1="384.11" x2="570.44" y2="320.91" xlink:href="#_Áåçûìÿííûé_ãðàäèåíò_206"/><linearGradient id="_Áåçûìÿííûé_ãðàäèåíò_107" x1="531.84" y1="411.99" x2="527.19" y2="372.1" gradientTransform="translate(263.67 -457.44) rotate(19.3) scale(1 1.57)" gradientUnits="userSpaceOnUse"><stop offset="0" stop-color="#188dc1"/><stop offset="1" stop-color="#06bfe7"/></linearGradient><linearGradient id="_Áåçûìÿííûé_ãðàäèåíò_107-2" x1="472.43" y1="225.87" x2="488.8" y2="165.08" gradientTransform="matrix(1, 0, 0, 1, 0, 0)" xlink:href="#_Áåçûìÿííûé_ãðàäèåíò_107"/><linearGradient id="_Áåçûìÿííûé_ãðàäèåíò_206-3" x1="444.29" y1="218.86" x2="456.5" y2="173.53" gradientTransform="matrix(1, 0, 0, 1, 0, 0)" xlink:href="#_Áåçûìÿííûé_ãðàäèåíò_206"/></defs><g isolation="isolate"><g id="illustration"><g clip-path="url(#clippath)"><circle cx="288.79" cy="300.75" r="213.09" transform="translate(-128.08 292.3) rotate(-45)" fill="#e0f3ff" opacity=".5"/><g><path d="M384.44,351.04s-3.9-1.17-5.46,1.95c-1.56,3.12-6.45,40.61-5.09,51.15,1.38,10.54,5.27,6.65,5.27,6.65,0,0-.39,6.25-2.92,8.01l-.02-.02s-.09-.06-.17-.12c-.06-.03-.14-.09-.23-.15h-.02c-1.5-.99-6.69-4.42-11.49-7.71-5.66-3.91-8.98-7.23-8.98-7.23,0,0,.79-6.25,.79-7.99s-12.51-43.36-24.8-56.24c-11.47-12.01-.2-79.67,1.38-88.81l.19-1.02s9.95,2.93,14.25,6.07c4.28,3.15,19.73,41.18,20.5,60.71,.79,19.52,7.81,30.61,7.81,30.61,0,0,2.35-1.42,6.26,0l2.72,4.16Z" fill="url(#_Áåçûìÿííûé_ãðàäèåíò_96)"/><path d="M375.81,418.5c-1.5-.99-6.69-4.42-11.49-7.71-5.66-3.91-8.98-7.23-8.98-7.23,0,0,.79-6.25,.79-7.99s-12.51-43.36-24.8-56.24c-11.47-12.01-.2-79.67,1.38-88.81l.19-1.02s8.1,10.16,11.61,30.36c3.52,20.22-1.45,60.06-1.45,60.06,0,0,7.02,32.22,24.3,32.8,0,0-14.5,21.23-8.78,31.88,1.09,2.03,14.59,12.04,17.24,13.91Z" fill="url(#_Áåçûìÿííûé_ãðàäèåíò_33)" mix-blend-mode="multiply" opacity=".83"/><path d="M342.76,604.98c-.32,3.56-.94,6.43-1.68,8.94v.02c-1.25,4.31-2.83,7.54-3.69,11.25-1.36,5.86-2.92,28.66-2.92,28.66h-41.01c1.56-8.44,3.51-14.98,5.86-36.08,2.24-20.17-9.82-89.71-10.85-95.66-.05-.26-.08-.4-.08-.4-10.54,44.12-36.42,95.29-39.06,98.21-2.63,2.94-7.9,5.57-7.9,5.57-2.94,5.57-9.09,28.37-9.09,28.37l157.1-8.37c2.63-12.06-189.61-21.74-185.79-28.48,3.8-6.74,18.15-52.73,21.97-83.18,1.59-12.69,2.81-26.09,3.71-37.42v-.03c1.25-15.83,1.86-27.58,1.86-27.58,12-12.29,105.84-24.41,105.84-24.41l2.97,9.63s3.35,.73,3.8,3.08c.43,2.33-2.71,4.48-2.71,4.48,10.53,59.75,2.55,133.76,1.68,143.42Z" fill="url(#_Áåçûìÿííûé_ãðàäèåíò_373)"/><path d="M230.9,473.45s28.38-3.5,46.25,4.99c17.87,8.49,16.26,23.14,16.26,23.14l-5.04,20.11,17.36-18.16,35.35-41.98s-6.62,4-15.21,5.76c0,0,12.05-7.47,14.1-13.33l-2.97-9.63-106.11,22.66v6.43Z" fill="url(#_Áåçûìÿííûé_ãðàäèåíò_27)" mix-blend-mode="multiply" opacity=".62"/><path d="M371.02,393.51s-1.17,13.18,6.74,19.33c0,0,16.26-8.49,24.26-22.36,8.01-13.86-31,3.03-31,3.03Z" fill="url(#_Áåçûìÿííûé_ãðàäèåíò_71)"/><path d="M231.17,468.78l-.27,2.04s21.92-5.55,32.46-5.94c10.54-.39,21.72,8,44.17,3.9,22.46-4.1,30.81-20.3,30.81-20.3l-1.33-4.11-105.84,24.41Z" fill="url(#_Áåçûìÿííûé_ãðàäèåíò_12)"/><path d="M238.53,469.01s21.28-5.35,50.88-8.72c29.6-3.37,40.74-4.39,43.51-6.59s4.63-7.64,4.63-7.64l-.55-1.69-105.84,24.41-.27,2.04,7.63-1.81Z" fill="url(#_Áåçûìÿííûé_ãðàäèåíò_27-2)" mix-blend-mode="multiply" opacity=".62"/><path d="M433.65,351.99s4.53,3.67,4.56,6.83c.03,3.16-7.49,1.69-7.49,1.69l2.93-8.52Z" fill="url(#_Áåçûìÿííûé_ãðàäèåíò_30)"/><path d="M210.65,337.56l-3.22-17.58s-8.21,0-20.2,11.13c0,0-.29,6.03-4.41,13.56,0,0-13.82,6.66-20.24,15.74-6.42,9.07-8.84,9.99-15.54,4.84-1.78-1.36-2.98-5.98-3.62-12.27-.94-9.51-.59-22.83,1.05-34.57,1.36-9.68,3.6-18.26,6.71-22.72,0,0-.29-5.97,2.64-10.65,.14,.09,.29,.19,.43,.29,.96,.6,3.43,1.93,6,1.47,3.32-.59,6.11-5.67,6.11-5.67,0,0,1.9,.2,2.88,1.58,0,0,13.28-8.05,21.69-21.61,8.39-13.54,9.75-15.21,9.75-15.21,0,0,2.15-.88,5.05-1.42,2.29-.43,5.06-.63,7.64-.03,0,0,40.81,63.07-2.74,93.14Z" fill="url(#_Áåçûìÿííûé_ãðàäèåíò_96-2)"/><path d="M297.56,249.5s-5.09-7.6-5.08-25.28l-39.6-19.33s1.99,13.64-4.72,25.47c-1.77,3.12-10.04,8.06-10.04,8.06,0,0,36.19,44.63,53.57,40.35,17.38-4.28,13.89-23.21,13.89-23.21,0,0-2.94,1.15-8.01-6.07Z" fill="url(#_Áåçûìÿííûé_ãðàäèåíò_30-2)"/><path d="M242.97,235.2s19.62,19.55,36.5,20.65c18.09,1.17,15.11-13.86,15.11-13.86,0,0,8.18,11.47,5.84,20.5s-20.21,9.47-33.98,3.47c-13.77-6-26.94-29.33-26.94-29.33l3.47-1.42Z" fill="url(#_Áåçûìÿííûé_ãðàäèåíò_12-2)"/><path d="M210.65,337.56l-3.22-17.58s-8.21,0-20.2,11.13c0,0-.29,6.03-4.41,13.56,0,0-13.82,6.66-20.24,15.74-6.42,9.07-8.84,9.99-15.54,4.84-1.78-1.36-2.98-5.98-3.62-12.27l1.05-2.52v-32.05c1.36-9.68,3.6-18.26,6.71-22.72,0,0-.29-5.97,2.64-10.65,.14,.09,.29,.19,.43,.29,11.36,7.4,15.38,29.19,16.16,45.4,.11-4.11,2.71-20.03,4.69-19.72,2.54,.39,6.83,29.68,6.83,29.68,5.07-25.12-11.28-55.42-12.6-57.83,14.95,20.65,17.48,44.37,17.48,44.37l23.23-16.99s13.99-14.07,9.15-38.28c-4.84-24.21-13.46-27.5-13.46-27.5,2.29-.43,5.06-.63,7.64-.03,0,0,40.81,63.07-2.74,93.14Z" fill="url(#_Áåçûìÿííûé_ãðàäèåíò_33-2)" mix-blend-mode="multiply" opacity=".83"/><path d="M307.69,220.09s-.11,.09-.15,.17c-.56,.66-1.14,1.17-1.78,1.5-8.8,4.5-32.22,3.32-44.91-7.81-4.82-4.24-8.44-9.31-11.32-14.48-.02-.05-.03-.06-.03-.06-4.61-8.39-7.22-17.11-9.75-23.14-4.1-9.75-7.47-26.09-6.63-35.54,.77-8.78,2.54-16.2,14.45-26.36,11.9-10.16,41.2-10.74,48.62-.59,7.42,10.16,7.22,33,8.98,38.07,1.76,5.09,8.01,11.13,9.77,17.96,1.61,6.32-.09,41.35-7.25,50.27Z" fill="url(#_Áåçûìÿííûé_ãðàäèåíò_71-2)"/><path d="M307.77,156.77s-.38,6.1-5.14,6.52c-3.73,.33-6.01-5.17-6.01-5.17,0,0-.66-14.92,1.23-22.26l1.77-5.86s-5.1-5.34-12.72-4.67c-7.62,.67-10.35,8.81-10.35,8.81,0,0,6.76,19.35,5.78,28.68,0,0-5.1,4.88-13.69,4.29-9.94-.68-14.94-6.59-14.94-6.59,0,0-5.43,6.34-6.46,11.72-1.24,6.43,.89,26.8,.89,26.8,0,0-6.83-22.06-8.69-28.51-1.85-6.44-5.27-35.05-3.22-39.93,2.05-4.88,7.96-20.78,33.32-23.91,25.36-3.13,30.07,5.36,30.07,5.36l2.61,12.59v6.49s1.76,16.74,2.39,19.55c.63,2.81,3.14,6.1,3.14,6.1Z" fill="url(#_Áåçûìÿííûé_ãðàäèåíò_30-3)"/><path d="M302.34,131.76s-.68-8.59-5.57-17.1c0,0-5.43,5.72-14.21,8.78,0,0,4.08-3.79,5.98-6.71-.34,.26-5.8,4.48-13.45,7.74,0,0,2.2-3.37,2.2-4.84s-5.56-7.9-12.01-7.76c-6.45,.15-18.75,4.39-24.9,16.11-6.14,11.72,.03,12.8,3.4,15.86,0,0-1.69,14.53-1.31,26.68,.12,3.63,.43,7.05,1.01,9.8,.09,.45,.2,.87,.31,1.27l-8.8-8.04s-.08-5.36-3.46-13.06c-.37-.88-.8-1.79-1.28-2.74l-.05-.08c-.19-.37-.39-.74-.59-1.13-2.1-3.93-8.57-11.27-7.64-18.75,.88-7.03,13.68-13.08,16.81-17.78,0,0-9.82,3.14-14.47,7.82,0,0,.74-4.41,4.39-6.89,3.63-2.49,6.69-.94,11.98-3.08,5.3-2.12,12.46-19.91,20.95-26.65,8.5-6.74,27.98-5.41,34.27,0,1.62,1.39,2.83,3.08,3.73,4.81h.02v.03s.03,.05,.03,.08c2.6,4.98,2.67,10.31,2.67,10.31,0,0,3.66,15.01,0,25.31Z" fill="url(#_Áåçûìÿííûé_ãðàäèåíò_11)"/><path d="M157.35,293.63l-6.15,2.05s-28.12-16.68-37.2-57.25c0,0,7.03-12.16,7.32-16.56s-4.2-13.57-5.57-25.09c-1.37-11.52,1.37-20.31,1.17-21.67-.2-1.37-7.22-1.56-9.18,4.1-1.95,5.66,.98,15.82,0,17.77-.98,1.95-3.32,5.27-3.32,5.27,0,0-10.35-15.62-13.08-17.18-2.73-1.56-7.03,6.09-8.98,6.46-1.95,.37-9.08-9.49-15.96-15.2s-19.77-17.72-21.09-17.43c-1.32,.29-3.08,2.64-2.78,4.98,.29,2.34,5.86,12.59,14.35,16.7,0,0,10.25,7.03,15.67,16.55,0,0-2.34,3.95-3.95,4.1-1.61,.15-10.84-6-18.16-8.93-7.32-2.93-14.06-4.83-15.23-4.39-1.17,.44-.73,3.08,0,4.83,.73,1.76,7.32,6.88,14.5,8.64,0,0,10.69,4.25,14.21,8.64,0,0-.44,4.39-1.61,5.13-1.17,.73-9.96-.59-15.38-1.32-5.42-.73-11.7,.15-12.44,.88s-.16,3.22,4.24,4.83c4.39,1.61,9.67,.59,10.54,.73,.88,.15,16.84,5.13,18.75,6.3,1.9,1.17,10.26,13.65,16.26,17.46,6,3.81,14.64,1.87,14.64,1.87,0,0,9.62,53.99,14.3,75.47,4.69,21.48,22.65,43.74,38.27,44.72,0,0,14.06-5.47,14.84-34.37,.78-28.9-8.98-38.08-8.98-38.08Z" fill="url(#_Áåçûìÿííûé_ãðàäèåíò_71-3)"/><path d="M326.64,353.58s-5.84,30.56,1.76,63.66c0,0,4.68,3.22,5.27,7.31,0,0,0,.03,.02,.08,.56,4.08-.31,7.84-.31,7.84,0,0,2.06,2.06,3.82,4.98,.32,.56,.51,1.21,.57,1.92,.28,3.03-1.45,6.86-1.45,6.86,0,0-3.52,9.09-40.13,12.3-36.61,3.23-65.02,10.25-65.02,10.25,0,0-2.21-7.31,1.82-12.88,0,0-6.23-5.57-5.94-7.62,.29-2.06,13.77-25.48,10.26-41.88-3.52-16.4-16.7-29.71-24.02-61.73,0,0-4.88-1.64-5.18-3.99-.29-2.33,2.15-6.15,2.15-6.15l.88,1.67s16.7-9.57,12.2-49.99c-4.48-40.42-9.23-42.88-17.59-41.75,0,0,6.66-6.17,8.22-6.03,1.56,.14,2.15,3.01,2.15,3.01,0,0,5.22,2.15,11.38,0s10.28-6.25,10.28-6.25c0,0,37.09,31.4,53.37,29.48,18.57-2.2,5.47-22.53,5.47-22.53,0,0,11.67,2.28,17.91,3.73,6.26,1.47,8.59,0,8.59,0,0,0,3.71-5.52,8.59-1.82,4.88,3.68,10.93,23.99,8.98,56.79-1.95,32.8-14.07,52.73-14.07,52.73Z" fill="url(#_Áåçûìÿííûé_ãðàäèåíò_96-3)"/><path d="M263.27,156.11s-.99,3-.48,5.71c.51,2.71,10.26,5.35,14.89,1.25,4.63-4.1-14.41-6.96-14.41-6.96Z" fill="#e87a8d"/><path d="M459.04,293.63c-12.1,32.42-45.31,101.35-45.31,101.35-43.73,8.39-84.74,1.36-84.74,1.36l-2.35-3.79c15.23-46.07,48.04-106.14,48.04-106.14,40.22-2.15,82.8,4.28,82.8,4.28l1.56,2.94Z" fill="url(#_Áåçûìÿííûé_ãðàäèåíò_373-2)"/><path d="M420.27,342.4s-1.86,21.77,3.22,32l19.97-43.57-9.5,2.24,1.25,4.4s-7.91-.38-14.94,4.94Z" fill="url(#_Áåçûìÿííûé_ãðàäèåíò_27-3)" mix-blend-mode="multiply" opacity=".62"/><path d="M442.05,330.83s3.18,2.53,3.81,4.59c.68,2.25,1.56,7.89-4.98,9.67l-2.93,.78s2.15,.98,2.54,2.44c.39,1.46-2.05,4.69-5.96,5.47-3.91,.78-10.45-.78-12.4-2.54-1.95-1.76-.68-4.2,2.25-4.88,0,0-4.3-.97-4.1-3.95,.2-2.98,10.06-6.21,20.5-5.23l1.27-6.35Z" fill="url(#_Áåçûìÿííûé_ãðàäèåíò_71-4)"/><path d="M297.56,159.02s1.58,2.52,5.07,1.78c3.5-.74,3.17-6.81,2.54-8.93-.63-2.12-7.55,5.18-7.61,7.15Z" fill="#e87a8d"/><path d="M449.95,315.98s5.27,4.89,5.27,8.26-7.76,7.62-21.09,9.28c0,0-1.24-2.59,0-5.37,1.24-2.78,7.91-6.69,13.4-7.57l2.42-4.6Z" fill="url(#_Áåçûìÿííûé_ãðàäèåíò_71-5)"/><path d="M434.6,355.72s-9.05-.88-8.27,7.39c0,0,5.07,.71,8.78-.36,3.71-1.07,3.22-3.91,2.93-4.88-.29-.98-.62-1.76-3.43-2.15Z" fill="url(#_Áåçûìÿííûé_ãðàäèåíò_71-6)"/><path d="M253.27,150.11s.73-4.72,5.35-9.49c3.32-3.44,9.73-6.91,14.23-8.66,0,0,.68,1.46,.68,4.2,0,0,.73-2.59,1.37-5.03,0,0,1,2.44,.71,7.2,0,0-3.94,1.39-10.4,3.15-8.05,2.2-11.94,8.64-11.94,8.64Z" fill="url(#_Áåçûìÿííûé_ãðàäèåíò_373-3)"/><path d="M296.62,156.11s0-12.35,3.59-13.03c3-.57,4.42,6.41,4.42,6.41l-8,6.63Z" fill="#77485e"/><path d="M262.79,159.63s-.12-8.67,6.98-11.75c7.1-3.08,9.57,6.9,9.57,6.9l-16.55,4.85Z" fill="#77485e"/><path d="M280.08,159.62c-.2,1.81-2.64,5.04-7.91,5.04-4.68,0-9.38-2.35-9.37-5.04,0-.94,.25-1.96,.68-3,.94-2.27,2.84-4.53,5.16-5.87,1.55-.91,3.29-1.41,5.09-1.22,5.67,.59,6.54,8.3,6.35,10.09Z" fill="url(#_Áåçûìÿííûé_ãðàäèåíò_117)"/><path d="M305.26,153.48c.08,4.02-1.67,7.08-4.73,7.02-1.28-.03-2.07-.39-2.63-1-.46-.53-.74-1.25-.97-2.13-.11-.39-.22-.8-.31-1.25,0,0,.32-3.79,1.33-6.88,.23-.68,.48-1.31,.76-1.85,.49-.97,1.1-1.7,1.82-1.95,2.38-.87,4.67,4.02,4.73,8.05Z" fill="url(#_Áåçûìÿííûé_ãðàäèåíò_117-2)"/><path d="M82.37,191.52s-4.4,5.95-9.71,15.51c-4.33,7.8-4.64,19.52-4.64,19.52,0,0-6.15-2.78-9.52-3.51s8.21-18.6,8.21-18.6l13.15-14.49,2.51,1.57Z" fill="url(#_Áåçûìÿííûé_ãðàäèåíò_184)"/><path d="M275.65,156.78c0,3.37-2.72,6.09-6.09,6.09s-6.11-2.72-6.11-6.09c0-.05,0-.11,.02-.15,.94-2.27,2.84-4.53,5.16-5.87,.29-.05,.62-.08,.93-.08,3.37,0,6.09,2.74,6.09,6.11Z" fill="url(#_Áåçûìÿííûé_ãðàäèåíò_3)"/><path d="M273.78,156.77c0,2.33-1.89,4.22-4.22,4.22s-4.22-1.89-4.22-4.22,1.89-4.22,4.22-4.22,4.22,1.89,4.22,4.22Z" fill="url(#_Áåçûìÿííûé_ãðàäèåíò_2)"/><path d="M302.63,153.47c0,3.37-1.85,6.09-4.14,6.09-.2,0-.4-.02-.59-.06-.46-.53-.74-1.25-.97-2.13-.11-.39-.22-.8-.31-1.25,0,0,.32-3.79,1.33-6.88,.23-.68,.48-1.31,.76-1.85,2.2,.17,3.93,2.83,3.93,6.09Z" fill="url(#_Áåçûìÿííûé_ãðàäèåíò_3-2)"/><path d="M49.71,201.37s4.1,1.46,5.93,1.03,2.78-4.42,2.78-4.92-5.25-3.99-5.25-3.99l6.64,3.35,6.52-7.69s-3.65-4.73-8.82-8.12c0,0,5.31,3.22,6.92,2.04,1.61-1.17,2.28-3.37,2.28-4.47,0-1.1-5.43-6.67-5.43-6.67,0,0,8.18,6.69,8.85,7.81,.67,1.13-3.87,17.36-3.87,17.36l-8.83,7.99s-5.3-2.48-7.72-3.72Z" fill="url(#_Áåçûìÿííûé_ãðàäèåíò_184-2)"/><path d="M300.91,153.47c0,2.33-1.28,4.22-2.88,4.22-.39,0-.77-.12-1.11-.32-.11-.39-.22-.8-.31-1.25,0,0,.32-3.79,1.33-6.88h.09c1.59,0,2.88,1.9,2.88,4.24Z" fill="url(#_Áåçûìÿííûé_ãðàäèåíò_2-2)"/><path d="M298.09,131.86s-3.27,17.37-1.47,26.26c0,0-1.05-13.36,3-22.88l-1.53-3.38Z" fill="#e87a8d"/><path d="M297.45,138.39s.39-5.86,1.27-10.84l.59,2.05,1.7-4.28s4.4,2.67,1.71,8.42c0,0-2.82-.33-5.26,4.65Z" fill="url(#_Áåçûìÿííûé_ãðàäèåíò_373-4)"/><path d="M280.41,180.91s.37,3.97,7.69,6.21c7.32,2.25,13.58,.86,15.86-1.67,0,0-2.36,2.83-6.66,3.61-4.3,.78-10.8-.23-13.86-2.59-3.37-2.59-4.05-4.88-4.05-4.88l1.03-.68Z" fill="#e87a8d"/><path d="M277.24,182.59s3.56-1.83,6.74-2.37c0,0-3.37-.63-4.93-.24-1.56,.39-1.81,2.61-1.81,2.61Z" fill="#e37e7f"/><g><path d="M284.76,171.78s5.08,0,9.76,.29c4.69,.29,8.99-.29,10.74-1.56,0,0,.29,5.47-5.57,8.79,0,0-2.34,.88-4.78,0,0,0-2.25-2.44-6.44-3.22,0,0-3.91-1.17-3.71-4.3Z" fill="url(#_Áåçûìÿííûé_ãðàäèåíò_134)"/><path d="M294.03,162.87c-6.05,.85-9.28,8.92-9.28,8.92l11.42,1.95c5.17-.29,9.08-3.22,9.08-3.22,0,0-5.18-8.49-11.23-7.65Z" fill="url(#_Áåçûìÿííûé_ãðàäèåíò_6)"/><path d="M288.1,175.94s.57-.53,2.44-.42,3.65,3.14,3.65,3.14c0,0-1.94-1.78-6.09-2.72Z" fill="#9f4a8b"/></g><g><path d="M79.02,160.96l-19,35.33s-4.91,20.47-13.99,28.52c0,0-1.05,3.92,1.58,9.83l39.98-74.35s-4.77-2.04-8.57,.67Z" fill="url(#_Áåçûìÿííûé_ãðàäèåíò_373-5)"/><path d="M91.76,167.82l-19,35.33s-14.37,15.38-16.08,27.4c0,0-2.69,3.04-9.07,4.1l39.98-74.35s4.33,2.86,4.17,7.52Z" fill="url(#_Áåçûìÿííûé_ãðàäèåíò_373-6)"/><path d="M46.86,232.74l2.75,1.48s-2.33,2.95-3.13,2.52c-.79-.43,.38-4,.38-4Z" fill="url(#_Áåçûìÿííûé_ãðàäèåíò_373-7)"/><path d="M46.03,224.82l10.65,5.73s1.23-10.29,16.08-27.4l-12.74-6.85s-2.95,15.84-13.99,28.52Z" fill="url(#_Áåçûìÿííûé_ãðàäèåíò_34)"/></g><path d="M94.47,188.31s-6.25-7.74-11.71-16.33c-5.47-8.59-15.33-22.46-18.7-20.99-3.37,1.46-.44,10.25,2.64,15.82,3.08,5.57,7.03,7.62,8.79,10.54,1.76,2.93,6.88,14.18,6.88,14.18,0,0,7.95,1.89,12.1-3.21Z" fill="url(#_Áåçûìÿííûé_ãðàäèåíò_30-4)"/><path d="M385.85,398.5s-2.48,11.85-1.41,12.58c1.07,.73,6.79-13,6.79-13l-5.38,.42Z" fill="url(#_Áåçûìÿííûé_ãðàäèåíò_373-8)"/><path d="M349.87,653.88l-.77-.08c.04-.41,4.67-40.85,53.88-55.51,26.92-8.02,44.83-26.68,49.12-51.19,4.24-24.24-5.98-49.48-26.05-64.3-39.25-28.98-41.97-71.28-41.99-71.71l.77-.04c.02,.42,2.74,42.37,41.68,71.13,20.3,14.99,30.65,40.53,26.36,65.05-4.34,24.81-22.44,43.69-49.66,51.8-48.72,14.52-53.29,54.44-53.33,54.85Z" fill="url(#_Áåçûìÿííûé_ãðàäèåíò_373-9)"/><path d="M242.86,178.76s-9.67-9.64-15.46-4.19c-6.86,6.47-2.01,20.73,5.58,26.89,6.6,5.35,13.7,3.93,15.16-2.44,0,0,2.01-14.38-5.29-20.26Z" fill="url(#_Áåçûìÿííûé_ãðàäèåíò_15)"/><path d="M242.61,187.84s-5.7-6.68-10.4-4.96c-4.7,1.72-3.35,9.21-3.35,9.21,0,0,.06-5.48,3.1-6.3,3.05-.82,4.92,3.12,4.92,3.12,0,0-1.63,.14-1.58,4.75,.06,4.62,5.45,8.91,7.59,5.65,2.14-3.26-.29-11.47-.29-11.47Z" fill="#e87a8d"/><path d="M276.56,157.14c0,.57-.46,1.03-1.03,1.03s-1.03-.46-1.03-1.03,.46-1.03,1.03-1.03,1.03,.46,1.03,1.03Z" fill="#fff"/><path d="M303.96,153.58c0,.57-.46,1.03-1.03,1.03s-1.03-.46-1.03-1.03,.46-1.03,1.03-1.03,1.03,.46,1.03,1.03Z" fill="#fff"/><path d="M252.86,215.06s15.22,29.56,41.72,26.92c0,0-2.37-10.37-2.11-17.76,0,0-12.35-.33-21.49-4.12-10.31-4.27-18.11-15.21-18.11-15.21v10.16Z" fill="url(#_Áåçûìÿííûé_ãðàäèåíò_184-3)"/><path d="M94.47,231.34c-7.19,2.05-20.54-4.27-21.71-10.35-1.17-6.08,7.85-22.55,15.91-21.53s11.93,6.96,10.25,12.3c-1.92,6.12-.35,18.4-4.45,19.58Z" fill="url(#_Áåçûìÿííûé_ãðàäèåíò_80)"/><path d="M104.43,202.24s-8.01,13.33-7.27,24.31c0,0-2.1-15.91,5.37-27.14l1.91,2.83Z" fill="url(#_Áåçûìÿííûé_ãðàäèåíò_184-4)"/><path d="M98.92,245.89s7.47-1.46,10.54-3.66l-8.8,13.34s-1.17-5.33-1.74-9.68Z" fill="url(#_Áåçûìÿííûé_ãðàäèåíò_184-5)"/><path d="M151.2,295.68s5.22,6.17,8.69,30.36c3.47,24.2-6.07,38.64-6.07,38.64,0,0,9.68-1.83,12.56-30.14,2.88-28.31-9.03-40.91-9.03-40.91l-6.15,2.05Z" fill="url(#_Áåçûìÿííûé_ãðàäèåíò_184-6)"/><path d="M336.31,446.22s-3.52,9.09-40.13,12.3c-36.61,3.23-65.02,10.25-65.02,10.25,0,0-2.21-7.31,1.82-12.88,0,0-6.23-5.57-5.94-7.62,.29-2.06,13.77-25.48,10.26-41.88-3.52-16.4-16.7-29.71-24.02-61.73,0,0-4.88-1.64-5.18-3.99-.29-2.33,2.15-6.15,2.15-6.15l.88,1.67s16.7-9.57,12.2-49.99c-4.48-40.42-9.23-42.88-17.59-41.75,0,0,6.66-6.17,8.22-6.03,0,0,9.92,7.46,16.77,47.54,5.73,33.57,15.27,54.53,15.27,54.53,0,0,18.78,7.03,40.79,6.3,21.99-.73,19.75-3.51,39.05-2.12,0,0-41.69,4.45-57.51,7.31-15.81,2.86-30.25,8.86-30.25,8.86,0,0,13.4,31.2,11.21,51.99-1.57,14.88-7.02,27.32-7.02,27.32,0,0,2.76,1.08,29.64-.08,26.88-1.17,61.74-15.54,61.74-15.54,0,0,0,.03,.02,.08,.11,.6,.77,4.71-.31,7.84,0,0-26.85,5.86-51.65,10.54-24.8,4.68-39.43,12.3-39.43,12.3,0,0,5.06,2.84,43.69-1.37,38.63-4.19,49.8-6.76,51.76-14.61l.02,.03c.28,3.03-1.45,6.86-1.45,6.86Z" fill="url(#_Áåçûìÿííûé_ãðàäèåíò_27-4)" mix-blend-mode="multiply" opacity=".62"/><path d="M232.98,353.6s4.58-6.11,15.16-7.84c10.58-1.72,27.36,2.36,37.69,2.34,0,0-28.86,5.47-39.82,7.03-10.95,1.56-13.03-1.54-13.03-1.54Z" fill="url(#_Áåçûìÿííûé_ãðàäèåíò_27-5)" mix-blend-mode="multiply" opacity=".62"/><path d="M323.13,245.88s10.55,18.46,12.5,57.9c0,0,1.75-31.18-8.99-60.7,0,0-1.68,.44-3.51,2.8Z" fill="url(#_Áåçûìÿííûé_ãðàäèåíò_27-6)" mix-blend-mode="multiply" opacity=".62"/><path d="M321.66,262.48s-3.21,23.17-28.26,56.34c0,0,16.39-13.29,22.15-26.17,6.11-13.67,6.11-30.17,6.11-30.17Z" fill="url(#_Áåçûìÿííûé_ãðàäèåíò_27-7)" mix-blend-mode="multiply" opacity=".62"/><path d="M259.41,411.11s7.29,11.79,23.11,14.71c15.82,2.93,36.91-2.54,36.91-2.54,0,0-20.31,3.51-35.54-1.56-15.23-5.08-24.47-10.61-24.47-10.61Z" fill="url(#_Áåçûìÿííûé_ãðàäèåíò_27-8)" mix-blend-mode="multiply" opacity=".62"/><path d="M207.44,319.99s11.85-4.89,16.42-13.77c0,0-.7,21.99-12.71,29.99,0,0-3-8.9-3.71-16.22Z" fill="url(#_Áåçûìÿííûé_ãðàäèåíò_87)" mix-blend-mode="multiply" opacity=".5"/><path d="M288.37,521.7l6.25-22.85s10.86-15.72,28.47-22.9l-17.36,26.61-17.36,19.14Z" fill="url(#_Áåçûìÿííûé_ãðàäèåíò_27-9)" mix-blend-mode="multiply" opacity=".62"/><path d="M249.31,619.91c-2.63,2.94-7.9,5.57-7.9,5.57-2.94,5.57-9.09,28.37-9.09,28.37l157.1-8.37c2.63-12.06-189.61-21.74-185.79-28.48,3.8-6.74,18.15-52.73,21.97-83.18,1.59-12.69,2.81-26.09,3.71-37.42,.05,.87,1.61,9.72-2.95,52.72-4.68,44.13-7.89,63.2-7.5,67.1,.39,3.91,19.52,13.28,30.45,3.71Z" fill="url(#_Áåçûìÿííûé_ãðàäèåíò_27-10)" mix-blend-mode="multiply" opacity=".62"/><path d="M341.08,613.93c-1.25,4.31-2.83,7.54-3.69,11.25-1.36,5.86-2.92,28.66-2.92,28.66h-41.01c1.56-8.44,3.51-14.98,5.86-36.08,2.24-20.17-9.82-89.71-10.85-95.66,1.36,6.4,16.51,78.51,19.93,84.63,7.42,13.28,27.57,17.77,32.69,7.19Z" fill="url(#_Áåçûìÿííûé_ãðàäèåíò_27-11)" mix-blend-mode="multiply" opacity=".62"/><path d="M459.04,293.63c-59.18-7.62-83.23-4.1-83.23-4.1-21.17,36.24-46.82,106.8-46.82,106.8l-2.35-3.79c15.23-46.07,48.04-106.14,48.04-106.14,40.22-2.15,82.8,4.28,82.8,4.28l1.56,2.94Z" fill="url(#_Áåçûìÿííûé_ãðàäèåíò_25)"/><path d="M437.95,345.86s-7.71,.88-13.57,.49c0,0,8.06,1.47,14.57,.1l-1-.59Z" fill="url(#_Áåçûìÿííûé_ãðàäèåíò_184-7)"/><path d="M237.98,248.97c.03,.12,.08,.23,.12,.36-.06-.17-.11-.29-.12-.36Z" fill="url(#_Áåçûìÿííûé_ãðàäèåíò_33-3)" mix-blend-mode="multiply" opacity=".83"/><path d="M242.29,440.16s14.29,.46,43.7-4.77c31.28-5.57,42.41-18.15,42.41-18.15,0,0,4.49,2.92,5.27,7.31,0,0-26.54,11.2-47.68,13.95-21.15,2.75-39.41,2.95-43.7,1.66Z" fill="url(#_Áåçûìÿííûé_ãðàäèåíò_264)" mix-blend-mode="soft-light"/><path d="M272.76,455.23s17.71-2.85,37.49-7.68c19.77-4.83,26.95-10.11,26.95-10.11,0,0,3.26,6.36-9.72,10.03-12.98,3.67-54.71,7.76-54.71,7.76Z" fill="url(#_Áåçûìÿííûé_ãðàäèåíò_264-2)" mix-blend-mode="soft-light"/><path d="M352.98,336.28l63.74,52.46-2.98,6.24s-40.22,8.29-84.74,1.36l-2.35-3.79s14.38-38.45,24.02-58.4l2.32,2.13Z" fill="url(#_Áåçûìÿííûé_ãðàäèåíò_264-3)" mix-blend-mode="soft-light" opacity=".5"/><path d="M230.9,512.33s-4,31.58,2.95,65.61l-2.95-65.61Z" fill="url(#_Áåçûìÿííûé_ãðàäèåíò_27-12)" mix-blend-mode="multiply" opacity=".62"/><path d="M296.48,519.75s10.85,42.96,19.64,61.22c0,0-17.29-23.72-23.58-39.74l-4.08-19.11,4.95-20.52,3.07,18.16Z" fill="url(#_Áåçûìÿííûé_ãðàäèåíò_27-13)" mix-blend-mode="multiply" opacity=".62"/><path d="M296.62,242.15l-2.05-.17s4.23,6.76,5.1,12.33c.88,5.57-2.81,9.15-8.53,10.37,0,0,9.22-.53,10.39-6.88,1.17-6.35-4.91-15.65-4.91-15.65Z" fill="url(#_Áåçûìÿííûé_ãðàäèåíò_78)"/><path d="M231.01,126.88s-9.82,5.66-10.11,13.13c-.29,7.47,6.02,12.28,6.02,12.28l.86-4.03s4.83,.79,9.37-.87c4.54-1.66,6.63-3.52,6.63-3.52,0,0-5.77-3.39-5.91-9.04-.14-5.65,9.85-15.83,9.85-15.83l-8.95,1.05s-5.71,4.56-7.77,6.85Z" fill="url(#_Áåçûìÿííûé_ãðàäèåíò_10)"/><path d="M277.29,119.64s9-9.76,10.81-16.6c1.81-6.83-5.4-10.15-5.4-10.15,0,0,2.55,2.84,2.05,9.37-.5,6.53-7.46,17.38-7.46,17.38Z" fill="url(#_Áåçûìÿííûé_ãðàäèåíò_27-14)" mix-blend-mode="multiply" opacity=".84"/><path d="M249.33,117.74s9.15-16.06,17.74-16.25c8.59-.2,11.09,15.63,10.22,18.16,0,0-.25-6.26-10.92-6.57-10.67-.31-17.04,4.67-17.04,4.67Z" fill="url(#_Áåçûìÿííûé_ãðàäèåíò_27-15)" mix-blend-mode="multiply" opacity=".84"/><path d="M296.77,114.67s4.71-6.02,5.57-8.21c0,0,1.19,5.29,1.4,9.09,0,0,.68,1.76-5.17,2.64l-1.8-3.52Z" fill="url(#_Áåçûìÿííûé_ãðàäèåíò_27-16)" mix-blend-mode="multiply" opacity=".84"/><path d="M234.98,173.56l15.69-13.06s.59,12.4,11.43,14.6c10.84,2.2,18.92-1.35,21.88-8.19,2.96-6.84,3.51-16.35,3.51-16.35,0,0,.72-1.11,4.19-1.07s4.94,1.39,4.94,1.39v-5.9s-7.18-1.11-10.3,1.42c0,0,1.07,19.02-5.71,23.72-6.78,4.7-12.53,5.31-19.79,1.63-5.61-2.85-7.96-11.9-6.23-17.14l-5.26,1.06-15.03,17.66,.68,.23Z" fill="url(#_Áåçûìÿííûé_ãðàäèåíò_17)" mix-blend-mode="multiply" opacity=".62"/><g><path d="M285.08,145.13c-2.97-3.94-23.59-.22-29.38,6.19-5.78,6.4,1.63,19.08,10.81,20.89,10.73,2.12,15.77-1.35,18.74-5.89,3.14-4.78,2.51-17.62-.18-21.19Zm-.14,18.98c-2.41,6.67-11.29,8.92-18.77,6.93-4.61-1.22-12.47-8.38-10.71-16.43,1.76-8.05,25.61-11.53,28.52-8.46,2.35,2.48,3.37,11.29,.96,17.96Z" fill="url(#_Áåçûìÿííûé_ãðàäèåíò_373-10)"/><path d="M285.63,145.07c-2.97-3.94-23.59-.22-29.38,6.19-5.78,6.4,1.63,19.08,10.81,20.89,10.73,2.12,15.77-1.35,18.74-5.89,3.14-4.78,2.51-17.62-.18-21.19Zm-.14,18.98c-2.41,6.67-11.29,8.92-18.77,6.93-4.61-1.22-12.47-8.38-10.71-16.43,1.76-8.05,25.61-11.53,28.52-8.46,2.35,2.48,3.37,11.29,.96,17.96Z" fill="url(#_Áåçûìÿííûé_ãðàäèåíò_86)"/><path d="M311.1,143.05c-1.76-2.9-11.79-1.79-14.29,0-1.62,1.16-.74,15.21,3.71,21.12,2.81,3.73,6.8,2.85,8,2,3.32-2.34,4.34-20.23,2.59-23.12Zm-1.42,19.17c-1.38,3.81-4.78,4.7-8.13,1.6-3.01-2.78-5.66-16.42-3.71-19.37,1.63-2.47,9.82-3.21,12.16-.63,2.34,2.58,1.27,13.98-.32,18.4Z" fill="url(#_Áåçûìÿííûé_ãðàäèåíò_373-11)"/><path d="M311.73,143.05c-1.76-2.9-11.79-1.79-14.29,0-1.62,1.16-.74,15.21,3.71,21.12,2.81,3.73,6.8,2.85,8,2,3.32-2.34,4.34-20.23,2.59-23.12Zm-1.42,19.17c-1.38,3.81-4.78,4.7-8.13,1.6-3.01-2.78-5.66-16.42-3.71-19.37,1.63-2.47,9.82-3.21,12.16-.63,2.34,2.58,1.27,13.98-.32,18.4Z" fill="url(#_Áåçûìÿííûé_ãðàäèåíò_86-2)"/><path d="M286.63,147.06s4.5-3.36,10.07-.96c0,0-.11-1.19,.25-2.04,0,0-3.96-1.18-11.62,.67,0,0,1.04,1.61,1.31,2.32Z" fill="url(#_Áåçûìÿííûé_ãðàäèåíò_86-3)"/><path d="M254.6,152.92l-5.26,1.7-17.15,18.31s.58-.17,2.12,.41l15.37-16.26s2.53-1.33,4.32-.96c0,0-.08-2.11,.61-3.2Z" fill="url(#_Áåçûìÿííûé_ãðàäèåíò_86-4)"/><polygon points="247.31 156.77 247.47 159.4 243.95 163.12 243.78 160.54 247.31 156.77" fill="url(#_Áåçûìÿííûé_ãðàäèåíò_25-2)"/><path d="M286.67,144.44l.9,.94s2.66-.59,5.2-.62c2.54-.02,3.17,.28,3.17,.28l.67-1.06s-4.5-.97-9.94,.45Z" fill="#d7e2ff" mix-blend-mode="soft-light"/><path d="M298.95,142.32l.55,.73s3.57-2.11,9.39-.73l-.15-.82s-4.88-.89-9.79,.82Z" fill="#d7e2ff" mix-blend-mode="soft-light"/><path d="M276.56,144.52l.28-.82s6.58-.69,8.37,1.14,2.29,5.72,2.29,5.72l-.81,.11s-.63-4.13-2.61-5.34c-2.04-1.24-7.5-.81-7.5-.81Z" fill="#d7e2ff" mix-blend-mode="soft-light"/><path d="M262.1,168.45s3.46,4.32,11.37,3.66c7.91-.66,11.29-6.47,11.29-6.47,0,0-3.73,5.86-11.46,6.1-7.73,.24-11.19-3.29-11.19-3.29Z" fill="#d7d9ff" mix-blend-mode="soft-light"/><path d="M302.18,163.82s2.15,2.4,4.56,2.07c2.42-.33,3.32-3.08,3.32-3.08,0,0-1.38,2.81-3.94,2.66s-3.94-1.65-3.94-1.65Z" fill="#d7d9ff" mix-blend-mode="soft-light"/><path d="M270.51,171.68s.61,.46,2.32,.5c1.71,.04,3.51-.85,3.51-.85,0,0-3.37,.56-5.83,.35Z" fill="#d7d9ff"/><path d="M304,165.2s1.9,.68,3.42,0c1.52-.68,1.85-1.24,1.85-1.24,0,0-.06,1.74-1.93,1.96s-3.35-.72-3.35-.72Z" fill="#d7d9ff"/><path d="M264.47,170.39s-.3-6.34,7.22-10.76c7.51-4.43,14.44-.66,14.44-.66,0,0,.24,5.52-3.8,9.3s-12.85,4-17.85,2.12Z" fill="#d7d9ff" mix-blend-mode="soft-light"/><path d="M300.62,161.39s5.06-6.45,10.75-8.47c0,0-.12,8.73-2.1,11.04-1.97,2.31-5.74,3.07-8.65-2.57Z" fill="#d7d9ff" mix-blend-mode="soft-light"/><path d="M256.23,156.58s.81,5.13,3.73,7.89l2.95-.7s-2.29-8.87-2.34-13.29c0,0-3.76,2.25-4.34,6.1Z" fill="url(#_Áåçûìÿííûé_ãðàäèåíò_9)" mix-blend-mode="screen"/></g><path d="M307.53,220.26c-.56,.66-1.14,1.17-1.78,1.5-8.8,4.5-32.22,3.32-44.91-7.81-4.82-4.24-8.44-9.31-11.32-14.48,.62,.79,7.1,11.88,22.45,18,16.05,6.38,34.42,4.4,35.55,2.79Z" fill="url(#_Áåçûìÿííûé_ãðàäèåíò_30-5)"/></g><g><path d="M58.69,351c1.16-8.84-3.17-16.19-3.17-16.19l-2.98-.67-1.97,12.74c-3.31,2.93-7.12,3-7.12,3v-.02s-3.42-1.69-5.16-5.74l3.65-12.36-2.98-.67s-7.05,4.81-9.77,13.3c0,0-.73,2.87-.71,3.18,.09,1.68,1.45,4.59,6.02,7.69l-7.12,40.39c-2.91,1.19-5.22,3.73-5.96,7.03-1.2,5.37,2.17,10.69,7.54,11.89,5.37,1.2,10.69-2.17,11.89-7.54,.74-3.3-.26-6.58-2.39-8.9l10.77-39.55c5.34-.84,7.86-2.8,8.73-4.39,.18-.34,.71-3.18,.71-3.18Zm-25.87,59.16l-5.43-1.22-1.66-5.31,3.77-4.1,5.43,1.22,1.66,5.31-3.77,4.1Z" fill="url(#_Áåçûìÿííûé_ãðàäèåíò_29)"/><path d="M57.98,354.19c1.16-8.84-3.17-16.19-3.17-16.19l-2.98-.67-1.97,12.74c-3.31,2.93-7.12,3-7.12,3v-.02s-3.42-1.69-5.16-5.74l3.65-12.36-2.98-.67s-7.05,4.81-9.77,13.3c0,0-.12,7.2,5.31,10.88l-7.12,40.39c-2.91,1.19-5.22,3.73-5.96,7.03-1.2,5.37,2.17,10.69,7.54,11.89,5.37,1.2,10.69-2.17,11.89-7.54,.74-3.3-.26-6.58-2.39-8.9l10.77-39.55c6.48-1.01,9.44-7.58,9.44-7.58Zm-25.87,59.16l-5.43-1.22-1.66-5.31,3.77-4.1,5.43,1.22,1.66,5.31-3.77,4.1Z" fill="url(#_Áåçûìÿííûé_ãðàäèåíò_28)"/><rect x="38.47" y="331.48" width="3.26" height="3.05" transform="translate(-293.62 299.43) rotate(-77.39)" fill="#e5e2ff"/><rect x="52.05" y="334.54" width="3.26" height="3.05" transform="translate(-286 315.08) rotate(-77.39)" fill="#e5e2ff"/><rect x="28.12" y="408.36" width="3.26" height="5.57" transform="translate(-377.97 350.41) rotate(-77.39)" fill="#e5e2ff"/><g><path d="M35.38,363.07l-5.88,32.79c3.08,2.62,6.69,1.5,6.69,1.5l8.96-32.1c-4.32-3.6-9.77-2.19-9.77-2.19Zm-.28,33.75c-.59,.03-1.45,.02-2.37-.18-.73-.16-1.43-.43-2.07-.8l5.49-32.33c1-.07,2.63-.06,4.42,.34,1.34,.3,2.57,.78,3.7,1.44l-9.17,31.53Z" fill="url(#_Áåçûìÿííûé_ãðàäèåíò_28-2)"/><path d="M35.1,396.82l1.09,.53s-3.31,1.4-6.69-1.5l1.16-.02s1.89,1.14,4.44,.98Z" fill="#e5e2ff"/><path d="M35.38,363.07l.77,.45s3.75-.55,8.12,1.77l.88-.04s-1.34-1.47-4.63-2.21c-3.29-.74-5.13,.02-5.13,.02Z" fill="url(#_Áåçûìÿííûé_ãðàäèåíò_27-17)" mix-blend-mode="multiply" opacity=".62"/></g><path d="M33.8,358.44s6.66,3.48,14.74,3.32l-1.38,5.06s-.42-3.16-5.6-4.6c-6.06-1.68-8.67,2.22-8.67,2.22l.91-6.01Z" fill="url(#_Áåçûìÿííûé_ãðàäèåíò_94)" mix-blend-mode="multiply" opacity=".62"/><path d="M47.17,366.82c-.5-1.67-1.77-2.69-1.77-2.69l-10.18,37.56,2.55-.37,9.39-34.49Z" fill="url(#_Áåçûìÿííûé_ãðàäèåíò_95)" mix-blend-mode="screen" opacity=".5"/><path d="M47.17,366.82s-4.17,2.85-2.01,7.39l2.01-7.39Z" fill="#fff"/></g><g><path d="M136.57,554.04H35.76c-4.49,0-8.15-3.58-8.25-8.07l-1.88-82.69c-.11-4.63,3.62-8.44,8.25-8.44h104.96c4.65,0,8.38,3.84,8.25,8.48l-2.27,82.69c-.12,4.47-3.78,8.03-8.25,8.03Z" fill="url(#_Áåçûìÿííûé_ãðàäèåíò_115)" opacity=".81"/><path d="M136.57,554.3H35.76c-4.59,0-8.41-3.73-8.51-8.32l-1.88-82.69c-.05-2.31,.81-4.5,2.42-6.15,1.62-1.65,3.78-2.56,6.09-2.56h104.96c2.32,0,4.49,.92,6.1,2.58,1.62,1.66,2.47,3.85,2.41,6.17l-2.27,82.69c-.13,4.65-3.87,8.28-8.51,8.28Zm-102.69-99.2c-2.17,0-4.2,.85-5.72,2.41-1.52,1.55-2.33,3.6-2.28,5.77l1.88,82.69c.1,4.31,3.68,7.81,7.99,7.81h100.81c4.36,0,7.87-3.42,7.99-7.78l2.27-82.69c.06-2.18-.74-4.23-2.26-5.79-1.52-1.56-3.55-2.42-5.73-2.42H33.88Z" fill="#473da2"/><g><rect x="52.8" y="471.76" width="53.02" height="2.27" fill="#fff"/><rect x="52.8" y="477.28" width="26.51" height="2.27" fill="#fff"/><rect x="52.8" y="481.89" width="26.51" height="2.27" fill="#fff"/><rect x="82.28" y="481.89" width="21.09" height="2.27" fill="#fff"/><rect x="52.8" y="486.5" width="42.74" height="2.27" fill="#fff"/><rect x="52.8" y="491.11" width="15.21" height="2.27" fill="#fff"/><rect x="71.14" y="504.93" width="26.31" height="2.27" fill="#fff"/><rect x="52.8" y="495.71" width="47.68" height="2.27" fill="#fff"/><rect x="52.8" y="500.32" width="36.68" height="2.27" fill="#fff"/><rect x="52.8" y="504.93" width="17.25" height="2.27" fill="#fff"/><rect x="52.8" y="509.54" width="26.51" height="2.27" fill="#fff"/><rect x="52.8" y="514.15" width="7.61" height="2.27" fill="#fff"/><rect x="63.53" y="514.15" width="27.59" height="2.27" fill="#fff"/><rect x="71.14" y="518.63" width="26.31" height="2.27" fill="#fff"/><rect x="52.8" y="518.63" width="17.25" height="2.27" fill="#fff"/><rect x="52.8" y="523.24" width="26.51" height="2.27" fill="#fff"/><rect x="52.8" y="527.85" width="7.61" height="2.27" fill="#fff"/><rect x="63.53" y="527.85" width="27.59" height="2.27" fill="#fff"/></g></g><path d="M489.63,402.64c-1.4,3.32-5.22,4.88-8.54,3.48-3.32-1.4-4.88-5.22-3.48-8.54s5.22-4.88,8.54-3.48,4.88,5.22,3.48,8.54Z" fill="url(#_Áåçûìÿííûé_ãðàäèåíò_302)"/><g><path d="M608.73,527.26h-88.19c-7.1,0-12.92-5.63-13.15-12.72l-1.96-58c-.25-7.44,5.71-13.61,13.15-13.61h91.92c7.43,0,13.38,6.14,13.16,13.56l-1.77,58c-.22,7.11-6.04,12.76-13.16,12.76Z" fill="url(#_Áåçûìÿííûé_ãðàäèåíò_97)" opacity=".73"/><path d="M608.73,527.62h-88.19c-7.33,0-13.27-5.74-13.51-13.07l-1.96-58c-.12-3.7,1.22-7.2,3.79-9.86,2.57-2.66,6.02-4.12,9.72-4.12h91.92c3.69,0,7.14,1.46,9.71,4.11,2.57,2.65,3.92,6.14,3.81,9.83l-1.77,58c-.22,7.35-6.16,13.11-13.52,13.11Zm-90.15-84.33c-3.5,0-6.77,1.39-9.2,3.9-2.43,2.52-3.71,5.83-3.59,9.33l1.96,58c.23,6.94,5.85,12.37,12.79,12.37h88.19c6.96,0,12.58-5.45,12.8-12.41l1.77-58c.11-3.49-1.18-6.8-3.61-9.3-2.43-2.51-5.7-3.89-9.19-3.89h-91.92Z" fill="#953da2"/><rect x="523.1" y="452.27" width="80.77" height="47.97" fill="#d1d4fb" mix-blend-mode="multiply"/><polygon points="556.33 464.18 556.33 488.34 576.97 475.15 556.33 464.18" fill="#fff"/><rect x="523.1" y="509.08" width="80.77" height="4.39" fill="#d1d4fb" mix-blend-mode="multiply"/><rect x="523.1" y="509.08" width="20.91" height="4.39" fill="#fff"/></g><g><path d="M574.61,291.35l-4.21,12.06c2.33-6.67,5.68-10.99,4.21-12.06Zm-4.21,12.06l-4.22,12.06c1.06-.32,1.89-5.4,4.22-12.06Zm4.21-12.06l-4.21,12.06c2.33-6.67,5.68-10.99,4.21-12.06Zm-4.21,12.06l-4.22,12.06c1.06-.32,1.89-5.4,4.22-12.06Zm12.17,10.45l4.09,2.32,4.42-12.07-4.74-.79c.08-.45,.17-.9,.23-1.34,.34-2.07,.46-4.09,.4-6.01l4.95-3.11-2.26-10.63-4.75,4.54c-.66-1.36-1.48-2.55-2.43-3.54-.26-.29-.54-.56-.82-.8l2.9-6.7-7.73-2.51h0l-1.86,6.76c-1.73,0-3.49,.44-5.23,1.22l-.85-6.39-8.51,6.44,1.96,5.66c-1.53,1.75-2.94,3.77-4.15,6.04l-4.1-2.31-4.42,12.07,4.74,.79c-.5,2.54-.7,5.02-.63,7.35l-4.95,3.11,2.26,10.63,4.75-4.54c.85,1.74,1.94,3.2,3.25,4.33l-2.91,6.71,7.6,2.97,1.18-4.28,.8-2.92c1.73,0,3.5-.43,5.24-1.22l.84,6.38,8.51-6.44-1.96-5.66c1.2-1.38,2.33-2.92,3.35-4.63,.28-.47,.54-.94,.81-1.42Zm-12.17-10.45c-2.34,6.66,0,13.53-4.22,12.06-4.23-1.49-5.78-8.09-3.44-14.74,2.34-6.66,7.66-10.86,11.88-9.38,4.24,1.48-1.89,5.4-4.21,12.06Zm4.21-12.06l-4.21,12.06c2.33-6.67,5.68-10.99,4.21-12.06Zm-4.21,12.06l-4.22,12.06c1.06-.32,1.89-5.4,4.22-12.06Z" fill="url(#_Áåçûìÿííûé_ãðàäèåíò_206)" fill-rule="evenodd"/><path d="M586.66,316.18l4.42-12.07-4.51-2.13-.73-.34,.47-6.64,5-2.44-1.65-10.32-10.9-3.55,2.01,4.79,3.8-7.74-7.73-2.51-3.17-1.04-7.62-2.97-1.42,5.19-6.63-3.15-8.51,6.44,2.58,6.96-7.95,22.05-3.93,14.32,7.55,.83-2.46,5.68,7.62,2.97,10.9,3.55-1.75-3.5-1.1-2.1,4.03,1.31,6.88,2.24,8.51-6.44-5.26-6.2,6.64-4.09,4.9,.9Zm-23.93-15.45c2.34-6.66,7.66-10.86,11.88-9.38l-4.21,12.06-4.22,12.06c-4.23-1.49-5.78-8.09-3.44-14.74Z" fill="url(#_Áåçûìÿííûé_ãðàäèåíò_206-2)" fill-rule="evenodd"/><path d="M575.76,312.62l4.42-12.07-4.74-.79c.5-2.54,.7-5.01,.63-7.34l4.95-3.11-2.26-10.63-4.75,4.54c-.84-1.74-1.93-3.21-3.25-4.33l2.91-6.71-7.61-2.97-1.97,7.2c-1.73,0-3.49,.44-5.23,1.22l-.84-6.38-8.51,6.43,1.96,5.66c-1.53,1.75-2.93,3.78-4.15,6.05l-4.1-2.31-4.42,12.07,4.74,.79c-.5,2.54-.7,5.01-.63,7.34l-4.95,3.11,2.26,10.63,4.75-4.54c.84,1.74,1.93,3.21,3.25,4.33l-2.91,6.71,7.61,2.97,1.97-7.2c1.73,0,3.49-.44,5.23-1.22l.84,6.38,8.51-6.43-1.96-5.66c1.53-1.75,2.93-3.78,4.15-6.05l4.1,2.31Zm-20.5-.71c-4.23-1.48-5.77-8.08-3.44-14.74,2.33-6.66,7.65-10.85,11.88-9.37,4.23,1.48,5.77,8.08,3.44,14.74-2.33,6.66-7.65,10.85-11.88,9.37Z" fill="url(#_Áåçûìÿííûé_ãðàäèåíò_107)" fill-rule="evenodd"/><polygon points="591.92 292.86 581.02 289.31 576.07 292.42 586.97 295.97 591.92 292.86" fill="#601734" fill-rule="evenodd" mix-blend-mode="multiply" opacity=".5"/><polygon points="580.37 325.57 569.47 322.01 567.51 316.35 578.41 319.91 580.37 325.57" fill="#b3d9ff" fill-rule="evenodd" mix-blend-mode="soft-light"/><polygon points="570.76 278.88 576.74 280.61 578.76 278.68 582.73 279.97 584.57 275.73 573.67 272.18 570.76 278.88" fill="#601734" fill-rule="evenodd" mix-blend-mode="multiply" opacity=".5"/><path d="M554.88,323.29l5.71,2.38-.48-3.6s-3.07,1.62-5.23,1.22Z" fill="#601734" fill-rule="evenodd" mix-blend-mode="multiply" opacity=".5"/><path d="M555.76,290.61l9.61,5.08s1.39-1.87,2.47-2.62c0,0-2.51-10.6-12.09-2.46Z" fill="#601734" fill-rule="evenodd" mix-blend-mode="multiply" opacity=".5"/></g><g><polygon points="452.04 220.38 449.95 171.76 513.61 171.76 510.99 220.25 452.04 220.38" fill="url(#_Áåçûìÿííûé_ãðàäèåíò_107-2)" fill-rule="evenodd"/><polygon points="449.95 171.76 448.04 174.63 449.95 220.38 452.04 220.38 449.95 171.76" fill="url(#_Áåçûìÿííûé_ãðàäèåíò_206-3)" fill-rule="evenodd"/><polygon points="471.09 181.47 461.1 180.4 462.46 213.72 471.09 212.87 471.09 209.42 466.09 209.54 465.52 183.85 471.09 184.01 471.09 181.47" fill="#fff"/><polygon points="491.55 181.47 501.54 180.4 500.17 213.72 491.55 212.87 491.55 209.42 496.54 209.54 497.11 183.85 491.55 184.01 491.55 181.47" fill="#fff"/></g><rect x="509.4" y="376.29" width=".59" height="11.89" transform="translate(-126.74 411.11) rotate(-39.47)" fill="#744ca2"/><polygon points="395.49 163.33 395.56 162.71 414.13 161.25 414.07 161.87 395.49 163.33" fill="#744ca2"/></g></g></g></svg>