<?xml version="1.0" encoding="UTF-8"?><svg xmlns="http://www.w3.org/2000/svg" xmlns:xlink="http://www.w3.org/1999/xlink" viewBox="0 0 600 600"><defs><clipPath id="clippath"><polyline points="1081.45 -137.98 877.2 599.92 -1393.44 599.92 -1189.19 -137.98" fill="none"/></clipPath><linearGradient id="_Áåçûìÿííûé_ãðàäèåíò_74" x1="268.88" y1="601.19" x2="268.88" y2="472.32" gradientUnits="userSpaceOnUse"><stop offset="0" stop-color="#6456c0"/><stop offset="1" stop-color="#5f2c95"/></linearGradient><radialGradient id="_Áåçûìÿííûé_ãðàäèåíò_83" cx="253.51" cy="512.55" fx="253.51" fy="512.55" r="39.04" gradientTransform="translate(239.74 -338.71) rotate(12.99) scale(.66 1.71)" gradientUnits="userSpaceOnUse"><stop offset="0" stop-color="#4b474b"/><stop offset="1" stop-color="#000"/></radialGradient><radialGradient id="_Áåçûìÿííûé_ãðàäèåíò_83-2" cx="361.98" cy="515.99" fx="361.98" fy="515.99" r="39.04" gradientTransform="translate(86.27 -329.91) scale(.66 1.71) skewX(-.01)" xlink:href="#_Áåçûìÿííûé_ãðàäèåíò_83"/><linearGradient id="_Áåçûìÿííûé_ãðàäèåíò_26" x1="227.17" y1="555.95" x2="260.97" y2="555.95" gradientUnits="userSpaceOnUse"><stop offset="0" stop-color="#9e8cef"/><stop offset="1" stop-color="#caafee"/></linearGradient><linearGradient id="_Áåçûìÿííûé_ãðàäèåíò_26-2" x1="182.09" y1="555.95" x2="215.9" y2="555.95" gradientTransform="translate(488.25) rotate(-180) scale(1 -1)" xlink:href="#_Áåçûìÿííûé_ãðàäèåíò_26"/><linearGradient id="_Áåçûìÿííûé_ãðàäèåíò_70" x1="264.35" y1="601.19" x2="264.35" y2="472.32" gradientUnits="userSpaceOnUse"><stop offset="0" stop-color="#ccf"/><stop offset="1" stop-color="#755cbb"/></linearGradient><linearGradient id="_Áåçûìÿííûé_ãðàäèåíò_70-2" x1="279.35" y1="536.76" x2="279.35" y2="501.61" xlink:href="#_Áåçûìÿííûé_ãðàäèåíò_70"/><linearGradient id="_Áåçûìÿííûé_ãðàäèåíò_70-3" x1="238.64" y1="523.83" x2="238.64" y2="489.4" xlink:href="#_Áåçûìÿííûé_ãðàäèåíò_70"/><linearGradient id="_Áåçûìÿííûé_ãðàäèåíò_354" x1="273.57" y1="278.26" x2="273.57" y2="226.81" gradientUnits="userSpaceOnUse"><stop offset="0" stop-color="#d5cdf8"/><stop offset="1" stop-color="#f3edfb"/></linearGradient><linearGradient id="_Áåçûìÿííûé_ãðàäèåíò_70-4" x1="247.08" y1="252.48" x2="300.05" y2="252.48" xlink:href="#_Áåçûìÿííûé_ãðàäèåíò_70"/><linearGradient id="_Áåçûìÿííûé_ãðàäèåíò_26-3" x1="258.42" y1="483.79" x2="258.42" y2="224.58" xlink:href="#_Áåçûìÿííûé_ãðàäèåíò_26"/><linearGradient id="_Áåçûìÿííûé_ãðàäèåíò_70-5" x1="150.84" y1="322.27" x2="213.97" y2="322.27" xlink:href="#_Áåçûìÿííûé_ãðàäèåíò_70"/><linearGradient id="_Áåçûìÿííûé_ãðàäèåíò_178" x1="148.89" y1="394.86" x2="148.89" y2="273.65" gradientUnits="userSpaceOnUse"><stop offset="0" stop-color="#9e8cef"/><stop offset="1" stop-color="#dac7f3"/></linearGradient><linearGradient id="_Áåçûìÿííûé_ãðàäèåíò_55" x1="357.33" y1="359.93" x2="438.67" y2="359.93" gradientUnits="userSpaceOnUse"><stop offset="0" stop-color="#a999f1"/><stop offset="1" stop-color="#dac7f3"/></linearGradient><linearGradient id="_Áåçûìÿííûé_ãðàäèåíò_48" x1="131.26" y1="230.26" x2="155.11" y2="230.26" gradientUnits="userSpaceOnUse"><stop offset="0" stop-color="#ffeadb"/><stop offset=".99" stop-color="#c27cb6"/></linearGradient><linearGradient id="_Áåçûìÿííûé_ãðàäèåíò_73" x1="126.26" y1="279.63" x2="151.9" y2="279.63" gradientUnits="userSpaceOnUse"><stop offset=".02" stop-color="#d1a1d6"/><stop offset=".99" stop-color="#bd89c4"/></linearGradient><linearGradient id="_Áåçûìÿííûé_ãðàäèåíò_48-2" x1="453.23" y1="307.09" x2="453.23" y2="252.9" xlink:href="#_Áåçûìÿííûé_ãðàäèåíò_48"/><linearGradient id="_Áåçûìÿííûé_ãðàäèåíò_73-2" x1="421.04" y1="318.68" x2="445.82" y2="318.68" xlink:href="#_Áåçûìÿííûé_ãðàäèåíò_73"/><linearGradient id="_Áåçûìÿííûé_ãðàäèåíò_70-6" x1="386.56" y1="404.18" x2="386.56" y2="282.1" xlink:href="#_Áåçûìÿííûé_ãðàäèåíò_70"/><linearGradient id="_Áåçûìÿííûé_ãðàäèåíò_70-7" x1="117.76" y1="379.59" x2="321.96" y2="379.59" xlink:href="#_Áåçûìÿííûé_ãðàäèåíò_70"/><linearGradient id="_Áåçûìÿííûé_ãðàäèåíò_4" x1="297.78" y1="345.42" x2="336.81" y2="345.42" gradientUnits="userSpaceOnUse"><stop offset="0" stop-color="#ccedff"/><stop offset="1" stop-color="#755cbb"/></linearGradient><linearGradient id="_Áåçûìÿííûé_ãðàäèåíò_4-2" x1="262.38" y1="413.91" x2="319.74" y2="413.91" xlink:href="#_Áåçûìÿííûé_ãðàäèåíò_4"/><linearGradient id="_Áåçûìÿííûé_ãðàäèåíò_4-3" x1="265.04" y1="439.85" x2="326.32" y2="439.85" xlink:href="#_Áåçûìÿííûé_ãðàäèåíò_4"/><linearGradient id="_Áåçûìÿííûé_ãðàäèåíò_4-4" x1="212.3" y1="375.64" x2="212.3" y2="306.86" xlink:href="#_Áåçûìÿííûé_ãðàäèåíò_4"/><linearGradient id="_Áåçûìÿííûé_ãðàäèåíò_4-5" x1="217.83" y1="381.42" x2="217.83" y2="329.28" xlink:href="#_Áåçûìÿííûé_ãðàäèåíò_4"/><linearGradient id="_Áåçûìÿííûé_ãðàäèåíò_4-6" x1="135.44" y1="314.77" x2="135.44" y2="275.38" xlink:href="#_Áåçûìÿííûé_ãðàäèåíò_4"/><linearGradient id="_Áåçûìÿííûé_ãðàäèåíò_4-7" x1="167.31" y1="280.08" x2="183.19" y2="280.08" xlink:href="#_Áåçûìÿííûé_ãðàäèåíò_4"/><linearGradient id="_Áåçûìÿííûé_ãðàäèåíò_70-8" x1="339.88" y1="375.64" x2="339.88" y2="302.63" xlink:href="#_Áåçûìÿííûé_ãðàäèåíò_70"/><linearGradient id="_Áåçûìÿííûé_ãðàäèåíò_70-9" x1="421.96" y1="359.93" x2="421.96" y2="321.78" xlink:href="#_Áåçûìÿííûé_ãðàäèåíò_70"/><linearGradient id="_Áåçûìÿííûé_ãðàäèåíò_70-10" x1="378.69" y1="358.23" x2="378.69" y2="329.06" xlink:href="#_Áåçûìÿííûé_ãðàäèåíò_70"/><linearGradient id="_Áåçûìÿííûé_ãðàäèåíò_4-8" x1="127.19" y1="317.29" x2="127.19" y2="306.45" xlink:href="#_Áåçûìÿííûé_ãðàäèåíò_4"/><linearGradient id="_Áåçûìÿííûé_ãðàäèåíò_70-11" x1="156.13" y1="350.31" x2="156.13" y2="291.11" xlink:href="#_Áåçûìÿííûé_ãðàäèåíò_70"/><linearGradient id="_Áåçûìÿííûé_ãðàäèåíò_4-9" x1="308.42" y1="308.64" x2="308.42" y2="264.1" xlink:href="#_Áåçûìÿííûé_ãðàäèåíò_4"/><linearGradient id="_Áåçûìÿííûé_ãðàäèåíò_4-10" x1="250.06" y1="302.62" x2="250.06" y2="241.14" xlink:href="#_Áåçûìÿííûé_ãðàäèåíò_4"/><linearGradient id="_Áåçûìÿííûé_ãðàäèåíò_70-12" x1="238.16" y1="254.61" x2="304.98" y2="254.61" xlink:href="#_Áåçûìÿííûé_ãðàäèåíò_70"/><linearGradient id="_Áåçûìÿííûé_ãðàäèåíò_70-13" x1="409.95" y1="355.58" x2="409.95" y2="316.91" xlink:href="#_Áåçûìÿííûé_ãðàäèåíò_70"/><linearGradient id="_Áåçûìÿííûé_ãðàäèåíò_70-14" x1="355.28" y1="399.21" x2="355.28" y2="282.1" xlink:href="#_Áåçûìÿííûé_ãðàäèåíò_70"/><linearGradient id="_Áåçûìÿííûé_ãðàäèåíò_70-15" x1="229.37" y1="454.22" x2="229.37" y2="420.65" xlink:href="#_Áåçûìÿííûé_ãðàäèåíò_70"/><linearGradient id="_Áåçûìÿííûé_ãðàäèåíò_70-16" x1="294.59" y1="445" x2="294.59" y2="428.7" xlink:href="#_Áåçûìÿííûé_ãðàäèåíò_70"/><linearGradient id="_Áåçûìÿííûé_ãðàäèåíò_48-3" x1="296.93" y1="197.38" x2="296.93" y2="125.53" xlink:href="#_Áåçûìÿííûé_ãðàäèåíò_48"/><linearGradient id="_Áåçûìÿííûé_ãðàäèåíò_48-4" x1="322.15" y1="182.3" x2="322.15" y2="154.43" xlink:href="#_Áåçûìÿííûé_ãðàäèåíò_48"/><linearGradient id="_Áåçûìÿííûé_ãðàäèåíò_292" x1="295.37" y1="236.84" x2="295.37" y2="101.58" gradientUnits="userSpaceOnUse"><stop offset="0" stop-color="#2e33a0"/><stop offset="1" stop-color="#0665a5"/></linearGradient><linearGradient id="_Áåçûìÿííûé_ãðàäèåíò_35" x1="330.89" y1="151.67" x2="330.89" y2="120.46" gradientUnits="userSpaceOnUse"><stop offset="0" stop-color="#ffeadb"/><stop offset=".99" stop-color="#8860c7"/></linearGradient><linearGradient id="_Áåçûìÿííûé_ãðàäèåíò_52" x1="288.37" y1="236.84" x2="288.37" y2="101.58" gradientUnits="userSpaceOnUse"><stop offset="0" stop-color="#ccc2db"/><stop offset=".99" stop-color="#8860c7"/></linearGradient><linearGradient id="_Áåçûìÿííûé_ãðàäèåíò_397" x1="297.44" y1="236.81" x2="297.44" y2="231" gradientUnits="userSpaceOnUse"><stop offset="0" stop-color="#776d7e"/><stop offset="1" stop-color="#9d68c2"/></linearGradient><linearGradient id="_Áåçûìÿííûé_ãðàäèåíò_141" x1="314.49" y1="111.29" x2="314.49" y2="106.97" gradientUnits="userSpaceOnUse"><stop offset="0" stop-color="#1f77d1"/><stop offset="1" stop-color="#0686c9"/></linearGradient><linearGradient id="_Áåçûìÿííûé_ãðàäèåíò_141-2" x1="286.99" y1="125.5" x2="286.99" y2="112.74" xlink:href="#_Áåçûìÿííûé_ãðàäèåíò_141"/><linearGradient id="_Áåçûìÿííûé_ãðàäèåíò_141-3" x1="333.25" y1="131.98" x2="333.25" y2="120.46" xlink:href="#_Áåçûìÿííûé_ãðàäèåíò_141"/><linearGradient id="_Áåçûìÿííûé_ãðàäèåíò_285" x1="257.08" y1="182.64" x2="242.35" y2="164.6" gradientUnits="userSpaceOnUse"><stop offset="0" stop-color="#ffeadb"/><stop offset=".99" stop-color="#b060f4"/></linearGradient><linearGradient id="_Áåçûìÿííûé_ãðàäèåíò_285-2" x1="258.62" y1="180.32" x2="251.38" y2="171.44" xlink:href="#_Áåçûìÿííûé_ãðàäèåíò_285"/><linearGradient id="_Áåçûìÿííûé_ãðàäèåíò_141-4" x1="286.14" y1="126.65" x2="311.08" y2="126.65" xlink:href="#_Áåçûìÿííûé_ãðàäèåíò_141"/><linearGradient id="_Áåçûìÿííûé_ãðàäèåíò_141-5" x1="321.32" y1="201.24" x2="328.88" y2="201.24" xlink:href="#_Áåçûìÿííûé_ãðàäèåíò_141"/><linearGradient id="_Áåçûìÿííûé_ãðàäèåíò_141-6" x1="311.98" y1="195.62" x2="320.14" y2="195.62" xlink:href="#_Áåçûìÿííûé_ãðàäèåíò_141"/><linearGradient id="_Áåçûìÿííûé_ãðàäèåíò_89" x1="374.51" y1="215.4" x2="630.28" y2="215.4" gradientUnits="userSpaceOnUse"><stop offset="0" stop-color="#9d68c2"/><stop offset="1" stop-color="#aec2ff"/></linearGradient><linearGradient id="_Áåçûìÿííûé_ãðàäèåíò_85" x1="427.09" y1="312.02" x2="427.09" y2="234.87" gradientUnits="userSpaceOnUse"><stop offset="0" stop-color="#ccedff"/><stop offset="1" stop-color="#9d68c2"/></linearGradient><linearGradient id="_Áåçûìÿííûé_ãðàäèåíò_85-2" x1="558.63" y1="274.4" x2="558.63" y2="240.42" xlink:href="#_Áåçûìÿííûé_ãðàäèåíò_85"/><linearGradient id="_Áåçûìÿííûé_ãðàäèåíò_85-3" x1="598.73" y1="274.4" x2="598.73" y2="240.42" xlink:href="#_Áåçûìÿííûé_ãðàäèåíò_85"/><linearGradient id="_Áåçûìÿííûé_ãðàäèåíò_85-4" x1="517.87" y1="274.4" x2="517.87" y2="240.42" xlink:href="#_Áåçûìÿííûé_ãðàäèåíò_85"/><linearGradient id="_Áåçûìÿííûé_ãðàäèåíò_65" x1="152.41" y1="190.91" x2="152.41" y2="155.34" gradientUnits="userSpaceOnUse"><stop offset="0" stop-color="#d93de3"/><stop offset="1" stop-color="#ff6dba"/></linearGradient><linearGradient id="_Áåçûìÿííûé_ãðàäèåíò_14" x1="174.15" y1="190.91" x2="174.15" y2="155.34" gradientUnits="userSpaceOnUse"><stop offset="0" stop-color="#a242ea"/><stop offset="1" stop-color="#fe117e"/></linearGradient><linearGradient id="_Áåçûìÿííûé_ãðàäèåíò_322" x1="-356.2" y1="1632.34" x2="-356.2" y2="1624.94" gradientTransform="translate(1018.52 -809.56) rotate(22.82)" gradientUnits="userSpaceOnUse"><stop offset="0" stop-color="#b31a8f"/><stop offset="1" stop-color="#fe117e"/></linearGradient><linearGradient id="_Áåçûìÿííûé_ãðàäèåíò_25" x1="-577.95" y1="1593.89" x2="-577.95" y2="1587.27" gradientTransform="translate(1933.74 -678.5) rotate(40.82)" gradientUnits="userSpaceOnUse"><stop offset="0" stop-color="#8642a0"/><stop offset="1" stop-color="#6456c0"/></linearGradient><linearGradient id="_Áåçûìÿííûé_ãðàäèåíò_97" x1="-35.46" y1="527.26" x2="-35.46" y2="442.94" gradientUnits="userSpaceOnUse"><stop offset="0" stop-color="#d906e3"/><stop offset="1" stop-color="#ff6df9"/></linearGradient><linearGradient id="_Áåçûìÿííûé_ãðàäèåíò_107" x1="268.64" y1="495.97" x2="285.01" y2="435.17" gradientUnits="userSpaceOnUse"><stop offset="0" stop-color="#188dc1"/><stop offset="1" stop-color="#06bfe7"/></linearGradient><linearGradient id="_Áåçûìÿííûé_ãðàäèåíò_206" x1="240.5" y1="488.95" x2="252.71" y2="443.62" gradientUnits="userSpaceOnUse"><stop offset="0" stop-color="#1852a0"/><stop offset="1" stop-color="#067ed3"/></linearGradient><linearGradient id="_Áåçûìÿííûé_ãðàäèåíò_302" x1="-332.44" y1="1509.86" x2="-332.44" y2="1496.82" gradientTransform="translate(1018.52 -809.56) rotate(22.82)" gradientUnits="userSpaceOnUse"><stop offset="0" stop-color="#459fff"/><stop offset="1" stop-color="#a96dff"/></linearGradient><linearGradient id="_Áåçûìÿííûé_ãðàäèåíò_322-2" x1="-111.66" y1="1580.65" x2="-111.66" y2="1573.24" xlink:href="#_Áåçûìÿííûé_ãðàäèåíò_322"/></defs><g isolation="isolate"><g id="illustration"><g clip-path="url(#clippath)"><circle cx="282.89" cy="305.82" r="223.94" transform="translate(-133.39 289.61) rotate(-45)" fill="#e0f3ff"/><g><g><path d="M364.13,601.19h-67.9c-7.11-39.47-23.63-90.82-23.63-90.82-4.02-2.38-11.86,.55-11.86,.55l-24.82,90.27h-62.03c-3.29-55.7,27.19-118.93,27.19-118.93h-.01c-.1-.23-1.07-2.17-.81-3.47,.1-.56,1.14-1.63,2.31-2.69,1.68-1.53,3.67-3.06,3.67-3.06l115.73-.72s1.17,.59,2.66,1.49h.01c2.53,1.53,5.95,3.9,5.95,5.63,0,2.38-.94,3.93-1.17,4.28l-.06,.07c24.81,46.83,34.77,117.4,34.77,117.4Z" fill="url(#_Áåçûìÿííûé_ãðàäèåíò_74)"/><path d="M231.36,560.67c-8.31,36-26.34,62.58-40.27,59.37-13.93-3.21-18.5-35.01-10.19-71.01,8.31-36,26.34-62.58,40.27-59.37,13.93,3.21,18.5,35.01,10.19,71.01Z" fill="url(#_Áåçûìÿííûé_ãðàäèåíò_83)" mix-blend-mode="screen" opacity=".5"/><ellipse cx="326.32" cy="554.2" rx="25.89" ry="66.9" transform="translate(-137.44 108.61) rotate(-15.65)" fill="url(#_Áåçûìÿííûé_ãðàäèåíò_83-2)" mix-blend-mode="screen" opacity=".5"/><path d="M227.89,601.26l-.71-.12c7.9-46.51,27.94-85.53,28.14-85.92l.08-.11,5.1-4.46,.48,.54-5.05,4.42c-.9,1.76-20.3,40.1-28.03,85.64Z" fill="url(#_Áåçûìÿííûé_ãðàäèåíò_26)"/><path d="M305.45,601.26c-7.74-45.58-27.68-84.29-28.57-86.01l-4.52-4.06,.48-.54,4.65,4.2c.21,.39,20.78,39.76,28.67,86.28l-.71,.12Z" fill="url(#_Áåçûìÿííûé_ãðàäèåíò_26-2)"/><path d="M330.58,479.44c0,2.38-.94,3.93-1.17,4.28l-.06,.07c-24.1,5.45-42.43,27.94-42.43,27.94,13.13,25.19,35.03,89.46,35.03,89.46h-25.73c-7.11-39.47-23.63-90.82-23.63-90.82-4.02-2.38-11.86,.55-11.86,.55l-24.82,90.27h-16.06c5.75-37.82,22.72-83.99,22.72-83.99-16.68-19.43-41.5-34.94-41.5-34.94h-.01s-2.95-1.86-2.95-1.86l2.14-1.6c10.73,10.3,45.35,23.75,46.41,24.17l-44.1-26.85c1.68-1.53,3.67-3.06,3.67-3.06l115.73-.72s1.17,.59,2.66,1.49l-31.61,17.39,37.57-11.76Z" fill="url(#_Áåçûìÿííûé_ãðàäèåíò_70)" mix-blend-mode="multiply" opacity=".76"/><polygon points="272.59 510.37 286.1 501.61 282.89 510.37 280.54 536.76 272.59 510.37" fill="url(#_Áåçûìÿííûé_ãðàäèåíò_70-2)" mix-blend-mode="multiply" opacity=".76"/><polygon points="260.73 510.92 246.66 502.96 216.54 489.4 254.9 514.75 257.18 523.83 260.73 510.92" fill="url(#_Áåçûìÿííûé_ãðàäèåíò_70-3)" mix-blend-mode="multiply" opacity=".76"/></g><path d="M299.45,239.54c.09,.62,.16,.95,.16,.95-.71,2.95-1.52,5.68-2.4,8.18-2.83,8.13-6.36,13.91-9,17.51-2.3,3.11-3.93,4.59-3.93,4.59-21.08-6.62-31.46-27.23-35.45-37.49-.03-.04-.04-.1-.06-.16-.77-1.94-1.27-3.5-1.59-4.51h0c-.25-.82-.36-1.27-.36-1.27,.09-.17,.17-.36,.26-.53l.04-.07c.35-.72,.69-1.46,1.01-2.17,2.76-6.04,4.59-11.69,5.78-16.14,1.03-3.78,1.57-6.7,1.83-8.25,.13-.79,.19-1.23,.19-1.23l9.82,5.19,33.85,17.91c-.51,3.11-.71,6.02-.72,8.58-.03,1.81,.03,3.42,.13,4.8,.1,1.68,.27,3,.4,3.87h0c0,.1,.01,.16,.03,.23Z" fill="#714137"/><path d="M290.06,273.04c-1.95,1.94-4.25,3.67-6.99,5.11-.06,.04-.12,.07-.17,.1,0,0-.07-.04-.2-.12h-.01c-.74-.46-3.25-2.01-6.63-4.55-8.84-6.66-23.6-20.12-27.82-38.27-.01-.03-.01-.04-.03-.07-.49-2.15-.84-4.35-1.01-6.63h0c-.04-.61-.09-1.2-.1-1.81,0,0,2.93,6.89,8.02,14.33,5.98,8.75,14.95,18.3,25.67,18.36,9.27,.06,14.03-6.28,16.44-12.13,1.03-2.48,1.63-4.87,1.95-6.65,.01-.01,.01-.03,.01-.03,.1-.52,.17-.98,.25-1.37h0c.03-.22,.06-.39,.07-.55,.09-.65,.12-1.03,.12-1.03,0,0,3.55,22.19-9.55,35.29Z" fill="url(#_Áåçûìÿííûé_ãðàäèåíò_354)"/><path d="M290.06,273.04c-1.95,1.94-4.25,3.67-6.99,5.11h-.38s-.01-.03-.01-.03c-.74-.45-3.25-1.99-6.63-4.54-8.84-6.66-23.6-20.12-27.82-38.27-.01-.03-.01-.04-.03-.07-.49-2.15-.84-4.35-1.01-6.63h0c-.04-.61-.09-1.2-.1-1.81,0,0,2.93,6.89,8.02,14.33,0,0,5.84,16.03,18.46,23.98,6.33,3.97,11.12,3.39,14.65,1.05,3.52-2.33,5.81-6.39,7.15-9.45,1.34-3.08,1.78-5.95,1.85-8.06,.01-.48,.01-.91,0-1.3,1.03-2.48,1.63-4.87,1.95-6.65,.01-.01,.01-.03,.01-.03,.1-.52,.17-.98,.25-1.37h0c.03-.22,.06-.39,.07-.55,.09-.65,.12-1.03,.12-1.03,0,0,3.55,22.19-9.55,35.29Z" fill="url(#_Áåçûìÿííûé_ãðàäèåíò_70-4)" mix-blend-mode="multiply" opacity=".5"/><path d="M371.19,404.05c-.16,.07-.23,.12-.23,.12-1.18,.14-4.87-.66-9.69-4.84h-.01s-.01-.04-.04-.06c-.01-.01-.03-.04-.06-.06-4.04-3.54-8.9-9.45-13.74-19.13-9.68-19.34-12.45-32.26-12.9-34.51l-.06-.35-5.65,8.96c-3.83,11.51-11.08,59.16-10.95,61.21,.13,2.05,6.43,12.05,6.3,13.28,0,0,0,.01-.01,.03-.17,1.24-3,3.97-3.81,6.95-.55,1.98,3.29,8.22,6,12.89h0c1.4,2.44,2.48,4.43,2.48,5.19,0,2.18-6.85,12.86-6.85,12.86v5.75l-.1,.1-.32,.29-.26,.22c-2.6,2.05-13.62,8.77-48.06,10.62-40.81,2.18-68-10.95-68-10.95l2.05-5.62s-1.91-1.63-2.05-2.46c-.13-.82,1.5-2.74,1.5-2.74,0,0-4.1-2.18-4.1-4.93s8.22-11.21,7.95-18.48c-.27-7.25-6.57-13.68-7.4-17.78-.82-4.1,10.68-14.23,10.68-14.23-9.85-31.2-11.77-73.08-11.77-73.08l-1.91-2.2s-11.77,26.83-22.45,39.96c-1.27,1.56-2.61,3.11-4,4.59-2.98,3.22-6.14,6.24-9.19,8.88-7.4,6.44-14.11,10.68-15.82,10.34-2.74-.55-13.69-22.17-13.19-44.35,.23-10.55,6.59-22.35,13.19-31.81,.71-1.01,1.42-2.01,2.14-2.98,4.68-6.37,9.17-11.37,11.33-13.65,.84-.9,1.31-1.37,1.31-1.37,0,0-1.5-4.84-2.53-9.04-.01-.1-.04-.2-.07-.3,0-.04-.01-.1-.03-.14-.01-.07-.03-.1-.03-.1-.61-2.59-.98-4.82-.64-5.37,.91-1.46,6.21-3.11,7.12-4.19,.91-1.1,4.74-19.53,7.66-21.54,2.8-1.92,7.73-3.32,24.15-9.78,.81-.32,1.63-.64,2.5-.98,18.42-7.3,36.49-16.15,36.49-16.15l6.93-8.52h3.09l-1.01,2.17-.04,.07c.49,2.2,1.05,4.3,1.69,6.31,.01,.06,.03,.12,.06,.16,9.53,30.08,34.06,39.77,34.06,39.77,17.05-12.58,16.71-32.56,16.71-32.56v-2.74l3.19,.95,2.18,5.2s3.7,5.75,18.35,12.19c2.53,1.11,5.24,2.51,8.05,4.12,13.41,7.61,28.31,19.39,29.46,21.89,.12,.26,.25,.66,.39,1.24h0c1.57,6.2,4.81,29.35,7.82,37.62,1.88,5.16,4.84,8,7.02,9.48t.03,.01c1.62,1.11,2.8,1.46,2.8,1.46,.23,1.27,.45,2.53,.65,3.77,6.28,39.61-5.66,66.49-8.35,68.37Z" fill="url(#_Áåçûìÿííûé_ãðàäèåíò_26-3)"/><path d="M213.97,329.28l-11.9,4-1.91-2.2s-11.77,26.83-22.45,39.96c-1.27,1.56-2.61,3.11-4,4.59-2.98,3.22-6.14,6.24-9.19,8.88l-9.07-39.11-4.61-29.69c4.68-6.37,9.17-11.37,11.33-13.65,.84-.9,1.31-1.37,1.31-1.37,0,0-1.5-4.84-2.53-9.04-.01-.1-.04-.2-.07-.3,0-.04-.01-.1-.03-.14-.01-.07-.03-.1-.03-.1-.61-2.59-.98-4.82-.64-5.37,.91-1.46,6.21-3.11,7.12-4.19,.91-1.1,4.74-19.53,7.66-21.54,0,0-1.91,17.7,8.22,40.15l4.93,6.93,14.42,11.59s5.48,7.27,11.44,10.6Z" fill="url(#_Áåçûìÿííûé_ãðàäèåíò_70-5)" mix-blend-mode="multiply" opacity=".5"/><path d="M179.53,361.29c-2.56,18.97-30.83,33.57-30.83,33.57-6.3,0-13.33-10.95-19.72-24.46-6.39-13.51-6.78-52.31-7.11-54.71-.35-2.4-3.9-7.19-4.12-9.25-.2-2.05,5.75-6.3,5.75-6.3l-.04-.1-.04-.1c-.62-1.33-4.12-8.83-3.87-10.2,.27-1.5,6.96-4.78,6.96-4.78l.42,7.38s15.57-2.95,20.85-15.01l.92-3.7,2.6,1.73v15.88s.53,2.47,1.36,2.47,6.89-3.03,8.16-2.61c1.29,.42,2.54,8.91,4.25,10,1.69,1.1,6.21,4.25,6.89,5.75,.3,.68,.33,3.12,.36,6,.04,3.52,.07,7.69,.59,10.03,.97,4.23,9.17,19.43,6.62,38.41Z" fill="url(#_Áåçûìÿííûé_ãðàäèåíò_178)"/><path d="M438.1,345.04c-1.27,2.01-7.66,6.21-9.3,7.86-1.65,1.63,0,7.04,0,7.04-26.83,28.47-54.79,42.73-57.61,44.12-.16,.07-.23,.12-.23,.12-16.84-11.33-15.4-29.98-9.81-45.69,5.34-15.08,14.5-27.46,14.91-28h.01s0-.01,.01-.03c.3-.12,5.11-2.11,8.55-2.37,1.14-.09,2.18,.36,3.16,.98,2.05,1.27,3.78,3.28,5.46,2.44,2.47-1.24,7.99-14.29,11.73-14.65,2.61-.25,6.24,2.41,8.65,3.93,1.05,.66,1.88,1.11,2.28,1,1.37-.36,6.02-5.94,6.4-6.08,.36-.16,2.48,1.4,2.48,1.4l-1.49,1.85c2.28,13.15,9.77,21.99,9.77,21.99l5.01-7.34s1.29,9.43,0,11.44Z" fill="url(#_Áåçûìÿííûé_ãðàäèåíò_55)"/><path d="M299.52,238.98c-.03,.19-.06,.38-.07,.56-.07,.39-.16,.77-.27,1.16,0,0,0,.01-.01,.03-1.72,6.37-8.67,12.89-17.44,9.75-9.58-3.42-27.81-42.04-27.81-42.04l1.83-8.25,43.27,35.25,.48,3.34,.03,.2Z" fill="#4a2921"/><g><path d="M155.45,231.91s-2.65-14.6-1.46-25.36c1.19-10.77-.31-22.99-.31-22.99,0,0-2.61-1.09-4.53,0-1.92,1.09-6.39,12.23-4.38,21.17,2.01,8.94,.46,30.38,.46,30.38h-3.01l-6.57-9.03-3.19-.91s-18.38,17.34-18.11,27.65l2.4,9.17,22.64-.78,14.78-16.88,1.28-12.41Z" fill="#69351d"/><path d="M132.46,225.16s.48,11.5,3.05,21.35c0,0-.43,4.04-5.15,4.31l-1.16-1.3s-.82,4.58-5,4.93l-3.97-3.97,1.03,3.28s-1.44,3.49-5.2,3.35c0,0-6.3-4.93-6.71-11.36l6.22-5.27v-4.04l7.39-5.2,.14-2.94s4.33-3.22,9.35-3.15Z" fill="#714137"/><path d="M154.88,203.8s-1.11,2.82-2.68,3.91c-1.57,1.09-6.13,1.93-6.13,1.93l-.21,25.8h-3.01l-6.57-9.03s3.33,5.15,3.54,9.03l-2.6,1.28-2.26-7.73-1.07,5.57,1.06,6.92s3.9-3.35,10.94-3.49l1.06,1.92s-12.75,10.56-15.69,16.79c0,0,6.3-8.01,20.67-16.83l1.37-4.24,1.82-10.13s-1.72-14.6-.23-21.7Z" fill="url(#_Áåçûìÿííûé_ãðàäèåíò_48)" mix-blend-mode="multiply" opacity=".6"/><path d="M164.94,248.43c-1.18,3.55-13.59,18.33-14.97,21.54-1.37,3.19-2.2,7.38-2.2,7.38-6.1,13.19-20.85,15.01-20.85,15.01l-.68-11.9s-7.93-4.56-9.27-7.06v-.04s-.17-.42-.17-.42c-.4-2.33-.06-10.95-.06-10.95l13.88-5.62c6.02-7.8,20.67-16.83,20.67-16.83l.68-4.09c-10.52-5.17-8.75-20.82-6.98-22.74,1.78-1.91,5.06-1.91,5.06-1.91,0,0,3.84,12.58,6.3,18.48,2.47,5.88,9.77,15.6,8.58,19.16Z" fill="#714137"/><path d="M123.11,228.31s1.55,14.37,6.09,21.21c0,0-5.77-7.16-6.23-18.27l.14-2.94Z" fill="#69351d"/><path d="M115.58,236.45s1.51,11.56,8.63,18c0,0-6.3-3.15-8.63-13.96v-4.04Z" fill="#69351d"/><path d="M151.9,266.9s-15.65,15.2-25.64,13.55l.68,11.9s16.43-1.44,21.76-18.71c0,0,1.92-4.97,3.2-6.74Z" fill="url(#_Áåçûìÿííûé_ãðàäèåíò_73)" mix-blend-mode="multiply" opacity=".91"/></g><g><path d="M482.77,287.56s-14.37,26.28-31.2,34.35h-5.75l-13.28,20.12s-8.58-5.39-9.22-23.08c0,0,3-3.13,3.74-6.67,0,0-4.74-3.73-6.02-6.46-1.27-2.74-1.73-10.95-2.64-14.33-.91-3.38-8.67-10.4-10.4-11.31s-9.58-1.37-9.58-1.37c0,0-1.1-2.83,0-4.19,1.1-1.37,13.32-6.12,19.98-1.56,0,0,.46,3.47,1.18,5.3,.74,1.82,6.57,8.29,7.48,8.29s4.84-3.28,6.57-5.84c1.66-2.46,10.49-21.48,12.63-27.91,.01-.07,.03-.13,.06-.19,.03-.1,.07-.2,.09-.29,.03-.07,.04-.13,.06-.19,.01-.03,.03-.04,.03-.07,1.65-5.56,11.22-16.24,16.34-19.16,0,0,2.18-.55,3.37,2.18,0,0-4.1,11.69-8.39,18.62-.72,1.17-1.5,2.54-2.31,4.02h-.01c-3.65,6.72-7.77,15.51-8.36,16.8l-.07,.16,2.28,1.17,6.17-5.85,6.33-6,14.52,15.33-1.43,1.82-4.54,5.82,2.3,.42,5.34-5.91,4.75,5.97Z" fill="#69351d"/><path d="M479.4,293.15l-4.59,6.75s-25.21-19.44-30.69-21.09c-5.47-1.65-7.48-.55-7.48-.55l-5.65,7.21s10.4,9.22,11.31,21.63c0,0-3.47-15.69-15.24-20.44,.91,0,4.84-3.28,6.57-5.84,1.66-2.46,10.49-21.48,12.63-27.91-.29,1.1-.66,3.24,.23,4.93,1.24,2.3,8.55,.13,8.99,0h.01l-8.38,16.8-.07,.16,2.28,1.17,6.17-5.85-3.09,7.18,22.51,3.97-4.54,5.82,2.3,.42,6.73,5.64Z" fill="url(#_Áåçûìÿííûé_ãðàäèåíò_48-2)" mix-blend-mode="multiply" opacity=".6"/><path d="M461.83,264.12s4.38-.64,7.21,5.02l-.64,1.82s4.27,.84,8.39,7.76c0,0-3.65,6.66-12.68,9.67,0,0-4.2-1.19-4.93-4.74l.82-2.28-3.28,2.46s-3.92,1.19-5.66-4.65l10.77-15.05Z" fill="#69351d"/><path d="M484.09,285.74s.91-4.2-3.56-6.93l-8.67,9.58s.26,3.07,4.01,3.74c0,0,5.93-2.01,8.21-6.39Z" fill="#69351d"/><path d="M421.04,305.82s10.04,11.21,24.77,16.09l-6.35,9.62-13.25-16.83,.85-2.43s-5.3-3.98-6.02-6.46Z" fill="url(#_Áåçûìÿííûé_ãðàäèåíò_73-2)" mix-blend-mode="multiply" opacity=".91"/><path d="M468.4,270.96s-4.2,6.93-8.39,10.4l-.82,2.28s8.15-5.5,11.14-11.85c0,0-.97-.7-1.93-.83Z" fill="#592d16"/></g><path d="M438.1,345.04c-1.27,2.01-7.66,6.21-9.3,7.86-1.65,1.63,0,7.04,0,7.04-26.83,28.47-54.79,42.73-57.61,44.12-.16,.07-.23,.12-.23,.12-2.2,.27-12.87-2.73-23.55-24.08-9.68-19.34-12.45-32.26-12.9-34.51l-.06-.35,2.35-3.19,3.5-39.41,2.46,7.93c9.3-11.22,18.07-28.46,18.07-28.46l.39,1.24h0c1.57,6.2,4.81,29.35,7.82,37.62,1.88,5.16,4.84,8,7.02,9.48v.03s0,.01,0,.01c-8.57,7.82-12.81,19.05-14.91,28-1.92,8.21-2.05,14.49-2.05,14.49,0,0,2.37-11.12,9.85-24.5,2.72-4.87,6.67-9.22,10.59-12.78,2.95-2.69,5.88-4.94,8.26-6.62,2.05,1.27,3.78,3.28,5.46,2.44-11.27,16.92-10.99,50.4-.4,44.02,10.57-6.39,13-19.94,13-19.94-2.5-16.51-1.75-35.13,.25-38.67,2.44,.08,9.42,4.99,9.82,4.87-.64,19.43,8.49,32.4,8.49,32.4l6.02-9.32c-8.77-14.78-8.12-29.17-8.12-29.17,.36-.16,2.48,1.4,2.48,1.4l-1.49,1.85c2.28,13.15,9.77,21.99,9.77,21.99l5.01-7.34s1.29,9.43,0,11.44Z" fill="url(#_Áåçûìÿííûé_ãðàäèåíò_70-6)" mix-blend-mode="multiply" opacity=".5"/><path d="M321.96,466.57v5.75l-.1,.1-.32,.29-.26,.22c-2.6,2.05-13.62,8.77-48.06,10.62-40.81,2.18-68-10.95-68-10.95l2.05-5.62s-1.91-1.63-2.05-2.46c-.13-.82,1.5-2.74,1.5-2.74,0,0-4.1-2.18-4.1-4.93,0-2.47,6.7-9.62,7.79-16.34,.13-.72,.19-1.43,.16-2.14-.27-7.22-6.52-13.62-7.38-17.73-.01-.04-.01-.06-.01-.06-.82-4.1,10.68-14.23,10.68-14.23-9.85-31.2-11.77-73.08-11.77-73.08l-1.91-2.2s-11.77,26.83-22.45,39.96c-10.68,13.15-26.28,24.37-29.01,23.82-6.3,0-13.33-10.95-19.72-24.46-6.39-13.51-6.78-52.31-7.11-54.71-.35-2.4-3.9-7.19-4.12-9.25,6.85,11.77,17.75,8.31,17.75,8.31-7.9,.17-12-14.6-12-14.6l-.04-.1-.04-.1-3.86-10.18c.43,.49,9.46,10.59,18.19,4.36,8.94-6.39,13.55-18.75,13.55-18.75v15.88s.53,2.47,1.36,2.47c-.53,7.31-2.08,16.21-3.96,24.98-4.06,18.97-9.62,37.28-9.62,37.28,0,0,15.08-8.21,20.38-29.01,2.53-9.95,2.95-18.61,2.7-24.9-.22-5.39-.92-9.07-1.21-10.42-.01-.1-.04-.2-.07-.3,0-.04-.01-.1-.03-.14,0-.03-.01-.06-.01-.07l1.46,3.09,2.77,6.88c3.22,26.7-3.42,66.93-3.42,66.93,9.68-12.05,11.69-38.69,11.27-45.16-.19-3.09-.43-6.91-.59-10.03-.22-3.41-.36-6-.36-6l19.81,11.82-3.65-11.59,14.42,11.59s12.96,15.6,26.28,17.42c13.32,1.83,62.22,.74,62.22,.74,0,0-42.51,2.73-54.92,6.39-12.41,3.65-14.78,7.84-14.78,7.84,8.97,45.63,58.62,61.02,60.17,61.48-45.04-6.76-66-45.06-66-45.06,0,0-.74,21.54,2.73,29.74,3.47,8.21,23.91,28.29,50.19,32.47,2.21,.35,4.39,.56,6.54,.66,22.16,1.04,40.51-10.29,42.38-11.5,.1-.07,.16-.1,.16-.1,0,0-.01,.03-.04,.07-.71,1.08-9.79,13.85-46.49,15.25-2.22,.09-4.39,.07-6.5-.01h-.03c-34.01-1.43-51.33-24.08-51.33-24.08,0,0-12.58,6.76-4.55,16.79,.09,.1,.17,.22,.26,.32,2.37,2.73,7.58,6.07,13.75,9.51,.17,.1,.35,.2,.51,.29,7.45,4.12,16.19,8.36,22.95,11.87,.04,.01,.07,.03,.1,.04,4.13,2.15,7.53,4,9.42,5.39,.01,0,.01,.01,.01,.01,1.91,1.39,2.3,2.28,.43,2.5-9.49,1.1-45.43-6.75-46.89-4.56-1.46,2.2,1.78,7.84,1.78,7.84,32.99,16.35,103.59,8.29,105.82,8.05-59.08,15.12-107.42-4.03-107.42-4.03l1.6,5.66s26.32,9.12,57.34,9.85c31.03,.72,50.37-7.21,50.37-7.21l3.37-5.75Z" fill="url(#_Áåçûìÿííûé_ãðàäèåíò_70-7)" mix-blend-mode="multiply" opacity=".5"/><path d="M297.78,336.65s23.5,1.28,39.03,5.38l-8.01,12.15s-12.04-10.6-31.02-17.53Z" fill="url(#_Áåçûìÿííûé_ãðàäèåíò_4)" mix-blend-mode="multiply" opacity=".5"/><path d="M319.74,401.43s-14.66,12.23-29.08,17.89c-14.42,5.66-28.28,6.2-28.28,6.2,0,0,8.29,2.46,28.68-.82,20.39-3.28,27.37-14.33,27.37-14.33l1.31-8.94Z" fill="url(#_Áåçûìÿííûé_ãðàäèåíò_4-2)" mix-blend-mode="multiply" opacity=".5"/><path d="M326.32,448.53h0c-27.13,7.02-61.57-3.03-61.28-4.26,.29-1.23,9.43,.55,30.64-3.7,20.56-4.12,28.01-11.43,28.46-11.87-.17,1.24-3,3.97-3.81,6.95-.55,1.98,3.29,8.22,6,12.89Z" fill="url(#_Áåçûìÿííûé_ãðàäèåíò_4-3)" mix-blend-mode="multiply" opacity=".5"/><path d="M252.63,340.33c-23.17,2.35-29.41,8.81-29.41,8.81-6.52,.82-21.15-15.86-21.15-15.86l-1.91-2.2s-11.77,26.83-22.45,39.96c-1.27,1.56-2.61,3.11-4,4.59l1.52-3.41s2.48-1.18,3.21-14.23c.74-13.03-5.48-32.47-5.52-35.12s-.95-16.02-.95-16.02l19.81,11.82-3.65-11.59,14.42,11.59s5.65,8.49,19.91,15.57c13.45,6.69,28.53,6.15,30.19,6.08Z" fill="url(#_Áåçûìÿííûé_ãðàäèåíò_4-4)" mix-blend-mode="multiply" opacity=".5"/><path d="M200.16,331.08l13.8-1.8s5.52,3.66,16.59,8.16l-9.24,13.62s3.66,19.41,14.18,30.35c0,0-27.91-15.5-31.83-28.54l-3.51-21.8Z" fill="url(#_Áåçûìÿííûé_ãðàäèåíò_4-5)" mix-blend-mode="multiply" opacity=".5"/><path d="M119.57,289.77l3.94,10.39s4.02,14.02,12,14.6c7.98,.59,15.79-23.5,15.79-23.5v-15.88s-8.49,18.21-17.66,20.26c-9.17,2.05-14.08-5.87-14.08-5.87Z" fill="url(#_Áåçûìÿííûé_ãðàäèåíò_4-6)" mix-blend-mode="multiply" opacity=".5"/><path d="M167.31,281.55s7.12,14.23,15.87,18.61c0,0-10.41-25.28-8.22-40.15,0,0-3.83,2.38-7.66,21.54Z" fill="url(#_Áåçûìÿííûé_ãðàäèåíò_4-7)" mix-blend-mode="multiply" opacity=".5"/><path d="M340.3,302.63l2.46,7.93,2.49,65.08s-6.31-12.38-10.74-30.06l2.3-3.54s3.86-24.53,3.49-39.41Z" fill="url(#_Áåçûìÿííûé_ãðàäèåíò_70-8)" mix-blend-mode="multiply" opacity=".76"/><path d="M415.93,321.78s-1.39,31.97,12.2,34.73l.68,3.42s-17.58-.65-12.87-38.15Z" fill="url(#_Áåçûìÿííûé_ãðàäèåíò_70-9)" mix-blend-mode="multiply" opacity=".5"/><path d="M393.26,331.5s-.52,1.15-5.46-2.44c0,0-17.09,12.1-23.67,29.17,0,0,10.53-15.67,16.14-17.37,5.61-1.7,6.96,4.56,6.96,4.56,0,0,2.22-8.81,6.04-13.91Z" fill="url(#_Áåçûìÿííûé_ãðàäèåíò_70-10)" mix-blend-mode="multiply" opacity=".3"/><path d="M117.76,306.45s6.58,12.12,18.89,8.32c0,0-7.38,4.98-14.78,.93,0,0-4.59-7.88-4.12-9.25Z" fill="url(#_Áåçûìÿííûé_ãðàäèåíò_4-8)" mix-blend-mode="multiply" opacity=".5"/><path d="M160.83,291.11s9.04,33.8-14.54,59.19c0,0,15.32-7.86,18.79-26.06,3.47-18.2-4.25-33.13-4.25-33.13Z" fill="url(#_Áåçûìÿííûé_ãðàäèåíò_70-11)" mix-blend-mode="multiply" opacity=".5"/><path d="M322.82,264.1s-1.02,15.26-8.33,26.21c-7.31,10.95-21.82,18.34-21.82,18.34,0,0,18.2-6.71,26.55-16.15,8.35-9.44,3.6-28.4,3.6-28.4Z" fill="url(#_Áåçûìÿííûé_ãðàäèåíò_4-9)" mix-blend-mode="multiply" opacity=".5"/><path d="M229.72,241.14s0,12.76,4.11,25.76c4.11,13,39.74,35.72,39.74,35.72,0,0-36.73-15.26-43.85-28.98-7.12-13.72,0-32.5,0-32.5Z" fill="url(#_Áåçûìÿííûé_ãðàäèåíò_4-10)" mix-blend-mode="multiply" opacity=".5"/><path d="M304.98,243.9c-1.13,13.43-5.22,22.8-9.58,29.11-6.01,8.67-12.51,11.63-12.51,11.63-6.5-2.83-12.13-6.36-16.99-10.24-20.6-16.47-27.25-39.29-27.75-41.17,8.7,21,21.47,33.73,31.15,40.9,7.8,5.79,13.59,7.97,13.59,7.97v-6.72c-1.55-.58-3.05-1.24-4.48-1.96-17.05-8.6-26-26.51-30.19-38.09-.01-.03-.01-.04-.03-.07-2.27-6.27-3.15-10.68-3.15-10.68h3.09l-1.01,2.17-.04,.07c.49,2.2,1.05,4.3,1.69,6.31,.01,.06,.03,.12,.06,.16,9.53,30.08,34.06,39.77,34.06,39.77,17.05-12.58,16.71-32.56,16.71-32.56v-2.74l3.19,.95,2.18,5.2Z" fill="url(#_Áåçûìÿííûé_ãðàäèåíò_70-12)" mix-blend-mode="multiply" opacity=".5"/><path d="M406.11,316.91s-4.63,15.13-.25,38.67c0,0,2.19-29.83,3.83-32.43,1.64-2.6,6.24-1.37,6.24-1.37,0,0-7.24-3.99-9.82-4.87Z" fill="url(#_Áåçûìÿííûé_ãðàäèåíò_70-13)" mix-blend-mode="multiply" opacity=".3"/><path d="M361.15,399.21c-4.04-3.54-8.9-9.45-13.74-19.13-9.68-19.34-12.45-32.26-12.9-34.51l2.3-3.54,3.08-29.76,2.87-1.72s10.27-11.34,18.07-28.46c.12,.26,.25,.66,.39,1.24h0c1.57,6.2,4.81,29.35,7.82,37.62,1.88,5.16,4.84,8,7.02,9.48,0,0-17.78,26.38-18.65,45.2-.77,17.13,3.05,22.71,3.74,23.58Z" fill="url(#_Áåçûìÿííûé_ãðàäèåíò_70-14)" mix-blend-mode="multiply" opacity=".5"/><path d="M255.56,454.22s-32.06-5.26-45.14-13.69c0,0-.01,0-.01-.01,.13-.72,.19-1.43,.16-2.14-.27-7.22-6.52-13.62-7.38-17.73,.14,.39,1.08,2.56,5.63,6.46,2.87,2.47,7.22,5.65,13.75,9.51,.17,.1,.35,.2,.51,.29,9.25,5.46,17.21,9.16,22.95,11.87,.04,.01,.07,.03,.1,.04,5.17,2.43,8.52,4.03,9.42,5.39,.01,0,.01,.01,.01,.01Z" fill="url(#_Áåçûìÿííûé_ãðàäèåíò_70-15)" mix-blend-mode="multiply" opacity=".5"/><path d="M324.14,428.7c-.17,1.24-3,3.97-3.81,6.95,0,0-11.76,12.45-55.28,8.62,.29-1.23,9.43,.55,30.64-3.7,20.56-4.12,28.01-11.43,28.46-11.87Z" fill="url(#_Áåçûìÿííûé_ãðàäèåíò_70-16)" mix-blend-mode="multiply" opacity=".5"/><path d="M331.17,260.42l-27.82,9.01-8.15,3.78h-.04s-5.3,.03-5.3,.03h-7.17s-4.48,.38-4.48,.38l-2.37,.17-6.75,.53-3.39,.27-33.37-12.08-5.97-2.15-27.45-9.94c.81-.32,1.63-.64,2.5-.98,18.42-7.3,36.49-16.15,36.49-16.15l6.93-8.52h3.09c2.76-6.04,4.59-11.69,5.78-16.14l1.83-8.25c.13-.79,.19-1.23,.19-1.23l9.82,5.19,33.12,26.49c-.03,1.81,.03,3.42,.13,4.8l.48,3.34c.09-.65,.12-1.03,.12-1.03l3.19,.95,2.18,5.2s3.7,5.75,18.35,12.19c2.53,1.11,5.24,2.51,8.05,4.12Z" fill="#7a4ac0" mix-blend-mode="multiply" opacity=".5"/><g><path d="M310.18,234.83s-12.97,2.92-27.29-4.02c-14.32-6.93-26.35-27.38-27.09-32.47-.72-5.11,5.48-18.43,5.48-28.83s-5.1-28.29,3.47-37.96c8.58-9.66,47.99-11.12,60.77,1.29,0,0,3.96,9.94,3.96,15.56,0,1.36-.25,3.35-.61,5.65-.12,.85-.27,1.76-.42,2.7-1.14,6.8-2.72,15.11-1.98,18.75,.26,1.27,.66,2.44,1.14,3.55h0c1.57,3.65,3.91,6.56,4.33,9.71,.55,4.12-4.97,33.31-21.77,46.08Z" fill="#714137"/><path d="M261.18,166.57s-3.54-8.88-12.44-9.02c0,0-5.2,2.05-6.02,6.02,0,0,1.92,14.37,4.11,21.08,2.19,6.71,10.22,5.74,10.22,5.74,0,0,6.99-10.69,4.13-23.82Z" fill="#714137"/><path d="M295.37,195.83s2.96-.23,4.24,.73,5.93,5.47,11.82,6.71c5.88,1.23,9.83-3.78,11.09-4.04,1.25-.26,2.63,1.52,2.63,1.52,0,0-.54-2.05-3.6-2.98,0,0-1.24,4.72-9.77,3.1-8.53-1.61-12.16-5.41-12.16-5.41l-.43-.78s-2.4,.5-3.81,1.14Z" fill="#7a4ac0" mix-blend-mode="multiply" opacity=".5"/><path d="M282.78,151.64l.12-.91s8.51-14.93,25.34-15.34c16.83-.41,20.64,10.14,20.64,10.14l3.12-4.73-7.1-14.44-49.46-.82-12.04,9.72-1.52,23.79,5.35,31.4,13.03,6.94,3.68-3.26c-1.36-10.52-9.18-20.12-9.18-20.12l5.7-3.96s14.64,7.09,23.11,4.97c0,0,6.36-18.57,6-32.34,0,0-21.69,3.21-26.77,8.97Z" fill="url(#_Áåçûìÿííûé_ãðàäèåíò_48-3)" mix-blend-mode="multiply" opacity=".6"/><path d="M282.03,152.74s.82-5.38,9.9-7.53c10.11-2.4,18.33-4.42,18.33-4.42,0,0-1.79,5.9-5.16,8.11,0,0-10.7-.39-16.11,.84-5.42,1.23-6.95,3-6.95,3Z" fill="#38368e"/><path d="M328.87,145.52s-5.13,3.96-8.62,13.4c0,0,3.35-4.38,6.43-4.31,2.11,.05,1.77,2.13,1.77,2.13,0,0,2.1-5.64,.42-11.22Z" fill="#38368e"/><path d="M285.42,167.95s.55-11.36,11.63-14.23c0,0,3.97,5.13,4.38,10.95,0,0-5.88-1.09-16.01,3.28Z" fill="#7a4ac0" mix-blend-mode="multiply" opacity=".5"/><path d="M317.17,172.47s.9-9.04,6.09-12.39c0,0,3.54,2.65,3.17,10.22,0,0-3.1-1.12-9.26,2.16Z" fill="#7a4ac0" mix-blend-mode="multiply" opacity=".5"/><path d="M285.42,167.95s3.6,4.43,13.69,5.29c0,0,1.92-2.92,1.74-8.65,0,0-9.26-.89-15.42,3.35Z" fill="#ffebed"/><path d="M317.17,172.47v1.32s1.55,3.24,7.12,3.79c0,0,1.79-2.8,1.94-7.33,0,0-3.54-.88-9.06,2.22Z" fill="#ffebed"/><path d="M296.2,164.36s-2.56,3.11-2.33,8.01c0,0,3.35,.79,5.23,.87,0,0,2.21-3.07,1.74-8.65,0,0-2.93-.63-4.64-.23Z" fill="#7f9ec9"/><path d="M322.45,170.41s-1.45,1.55-1.72,6.31c0,0,1.98,.87,3.56,.87,0,0,2.03-2.88,1.94-7.33,0,0-1.42-.54-3.78,.16Z" fill="#7f9ec9"/><path d="M295.37,172.72s-.92-6.14,2.6-8.48l2.88,.37s.96,4.86-1.74,8.65c0,0-2.86-.33-3.74-.53Z" fill="#38368e"/><path d="M323.72,170.14s-1.3,2.73-1.91,6.98c0,0,1,.41,2.47,.47,0,0,1.97-2.41,1.94-7.33,0,0-1.5-.4-2.51-.12Z" fill="#38368e"/><path d="M285.42,167.95s6.71-3.9,18.13-1.68l-2.12-1.61s-8.14-2.53-16.01,3.28Z" fill="#131163"/><path d="M317.17,172.47s5.38-2.85,11.65-1.34l-2.58-1.91s-4.21-.64-9.06,3.26Z" fill="#131163"/><path d="M292.67,167.95s1.82-.4,3.47,1.26c0,0-2.25,.66-3.47-1.26Z" fill="#fff"/><path d="M319.63,173.25s2.86-.56,3.85,.75c0,0-1.53,1.05-3.85-.75Z" fill="#fff"/><path d="M286.09,168.62s5.21,5.15,13.56,6.38l.21-3.04-.76,1.28s-8.03-.48-13.01-4.63Z" fill="#7a4ac0" mix-blend-mode="multiply" opacity=".5"/><path d="M317.17,173.79s.93,3.33,7.72,4.84l-.22-1.63-.38,.58s-4.82-.62-7.12-3.79Z" fill="#7a4ac0" mix-blend-mode="multiply" opacity=".5"/><path d="M303.55,187.11s2.53-.55,7.18,0c4.65,.55,9.88,1.82,12.74,0,0,0-3.8,3.8-7.09,4.38-3.29,.58-8.3-2.31-8.3-2.31l-2.19,.04s-1.69-.83-2.35-2.11Z" fill="#7a4ac0" mix-blend-mode="multiply" opacity=".5"/><path d="M306.22,189.21s1.14-.73,2.1-.55c.96,.18,1.93,1.58,1.93,1.58,0,0-2.02-1.07-4.03-1.03Z" fill="#7a4ac0" mix-blend-mode="multiply" opacity=".5"/><path d="M323.48,187.11c1.22-1.19-5.08-12.4-8.09-12.81-3.01-.42-5.84,12.57-5.84,12.57,0,0,4.19,.59,8.25,1.13,4.06,.54,5.68-.89,5.68-.89Z" fill="#714137"/><path d="M327.15,154.43c-1.7-.22-7.73,7.11-7.73,7.11,0,0-3.83,11.86-3.08,15.37,.75,3.52,10.05,5.39,10.05,5.39l.39-.62h0c-.48-1.13-.88-2.3-1.14-3.57-.74-3.64,.84-11.95,1.98-18.75,0,0,.38-1.4,.42-2.7,.04-1.1-.12-2.14-.9-2.22Z" fill="url(#_Áåçûìÿííûé_ãðàäèåíò_48-4)" mix-blend-mode="multiply" opacity=".6"/><path d="M327.71,199.97c-1.92-4.02-.74-6.11-17.42-8.29-23.62-3.11-25.64,4.1-29.66,3-.14-.04-.32-.1-.48-.17-4.35-1.69-14.59-11.76-14.85-25.32-.27-14.1,9.17-24.1,9.17-24.1-3.42-2.87-4.8-11.21-1.1-14.78,3.7-3.55,10-2.73,25.45-1.1,15.47,1.65,15.47,.69,15.47,.69,4.91,1.26,7.73,5.87,8.52,7.34,.16,.29,.23,.46,.23,.46l1.92-1.78c5.2,7.53,4.25,15.73,4.25,15.73,0,0,8.48-17.25,7.51-19.69-1.76-4.51-6.66-11.08-6.96-11.5h-.01s-1.37-13.15-5.48-13.15-21.63,3.96-21.63,3.96c1.92-4.51,1.65-9.71,1.65-9.71,0,0-.03,.03-.07,.07-5.72,5.13-11.31,5.69-19.23,9.36-3.99,1.86-5.86,3.58-7.41,5.37l-.53,.64-.56,.68c-.55,.69-1.11,1.4-1.79,2.12-.03,.04-.07,.07-.09,.09l-.04,.04c-.64,.69-1.39,1.4-2.3,2.15-5.2,4.23-16.64,7.06-18.01,11.54-1.37,4.46,1.73,10.57,3.38,16.87,1.63,6.3,.88,11.86,.88,11.86,0,0,5.45,7.02,3.64,17.29-1.6,9.2-5.11,10.7-5.11,10.7-2.47,5.07-1.3,9.81-1.3,9.81,5.06,20.11,25.97,32.08,25.97,32.08,18.61,6.93,30.84,3.91,30.84,3.91h.01c13.54-8.84,18.17-38.05,18.38-39.41-.23,.36-2.74,4.26-3.25,3.19Zm-8.35,18.62c-3.28-.55-3.97-8.86-5.06-9.95-1.1-1.08-7.04-.64-7.04-.64,0,0-5.47,6.21-7.66,6.39-2.2,.19-13.87-4.56-11.34-11.67,2.51-7.12,11.34-8.03,11.34-8.03,0,0,4.56,3.83,11.4,4.28,6.85,.45,9.32-.81,10.13-1.17,.82-.38,5.23,1.63,5.11,7.84-.07,4.32-3.6,13.51-6.89,12.96Z" fill="url(#_Áåçûìÿííûé_ãðàäèåíò_292)"/><path d="M318.51,176.79s5.9,7.32,5.34,10.08c-.62,3.01-7.45,4.62-7.45,4.62,0,0,5.48-1.89,6.6-4.62,0,0-1.41-5.55-4.49-10.08Z" fill="#7a4ac0" mix-blend-mode="multiply" opacity=".5"/><path d="M329.22,151.67s.95-8.21-4.25-15.73c4.17-7.45,4.78-15.47,4.78-15.47h.01c1.42,3.5,2.22,10.27,2.22,10.27l4.74,1.24c.97,2.44-7.51,19.69-7.51,19.69Z" fill="url(#_Áåçûìÿííûé_ãðàäèåíò_35)" mix-blend-mode="multiply" opacity=".6"/><path d="M322.82,137.25c-.79-1.47-3.61-6.08-8.52-7.34,0,0,0,.95-15.47-.69-15.46-1.63-21.76-2.46-25.45,1.1-3.7,3.57-2.33,11.9,1.1,14.78,0,0-9.45,10-9.17,24.1,.26,13.56,10.5,23.63,14.85,25.32l-.2,1.5s.77,31.06,8.32,33.53c7.54,2.46,23.2,1.18,24.66,2.64s-.2,3.77-.35,3.99h-.01s-12.24,3.03-30.84-3.9c0,0-20.92-11.98-25.97-32.08,0,0-1.17-4.74,1.3-9.81,0,0,3.51-1.5,5.11-10.7,1.81-10.27-3.64-17.29-3.64-17.29,0,0,.75-5.56-.88-11.86-1.65-6.3-4.75-12.41-3.38-16.87,8.75,1.37,14.5-3.19,14.5-3.19,0,0,1.53-2.12,8.31-3.22s34.01,1.65,34.01,1.65c0,0-2.73-2.27-8.48-3.77-5.43-1.43-23.98,.23-25.97,.39,2.12-.38,23.16-3.99,25.55-3.26,2.54,.75,11.64,4.93,11.64,4.93-.82-4.17-8.97-14.23-8.97-14.23,0,0-11.5,.2-19.03,1.78-6.72,1.4-10.4,4.48-11.12,5.11l1.79-2.12,.56-.68,.53-.64,2.63-.45,13.2-5.33c4.43-2.37,10.11-8.23,10.81-8.96,.04-.04,.07-.07,.07-.07,0,0,.27,5.2-1.65,9.71,11.15-1.37,14.92-.68,14.92-.68,5.07,7.18,5.24,26.64,5.24,26.64Z" fill="url(#_Áåçûìÿííûé_ãðàäèåíò_52)" mix-blend-mode="multiply" opacity=".6"/><path d="M281.72,232.27s6.84-1.62,17.15-1.21c10.32,.42,16.25,.46,13.69,5.12,0,0-12.96,2.93-30.84-3.91Z" fill="url(#_Áåçûìÿííûé_ãðàäèåíò_397)" mix-blend-mode="multiply" opacity=".5"/><path d="M317.58,110.61s6.27-2.45,8.75-2.04c0,0-.98-1.31-2.01-1.58-1.03-.27-21.66,4.31-21.66,4.31,0,0,12.87-1.5,14.92-.68Z" fill="url(#_Áåçûìÿííûé_ãðàäèåíò_141)"/><path d="M304.85,112.94s-.49,6.83-2.67,9.3l-25.55,3.26-7.5-1.32s2.9-1.24,6.09-4.96c3.19-3.72,19.85-7.38,29.64-6.28Z" fill="url(#_Áåçûìÿííûé_ãðàäèåíò_141-2)"/><path d="M329.76,120.46s2.08,6.72,2.24,10.27l4.74,1.24s-1.44-5.08-6.98-11.51Z" fill="url(#_Áåçûìÿííûé_ãðàäèåíò_141-3)"/><path d="M260.12,178.63s-1.8-8.62-6.2-12.89c-4.41-4.27-9.42-2.9-9.42-2.9,0,0,1.37,15.99,2.81,19.89,1.44,3.9,3.63,4.93,3.63,4.93,0,0-3.08-2.7-3.49-7.99-.41-5.29-.55-12.75,.62-13.64,1.16-.89,5.86,2.58,5.86,2.58,0,0-1.49,1.82-2.38,6.53-.89,4.71,2.39,8.13,3.63,8.06,1.23-.07-.07-5.45,.14-7,.21-1.55,2.94-1.21,4.81,2.42Z" fill="url(#_Áåçûìÿííûé_ãðàäèåíò_285)" mix-blend-mode="multiply" opacity=".8"/><path d="M255.73,167.91s-4.81,3.16-4.29,9.64c.52,6.48,4.22,6.2,4.24,4.84,.01-1.36-.71-4.86-.33-6.84,.38-1.98,3.57-1.08,3.57-1.08,0,0-2.1-5.15-3.19-6.55Z" fill="url(#_Áåçûìÿííûé_ãðàäèåíò_285-2)" mix-blend-mode="multiply" opacity=".8"/><path d="M330.96,196.78s-5.98,27.26-18.39,39.41c0,0,14.16-5.56,18.39-39.41Z" fill="#34c7ff"/><path d="M324.32,106.98s3.15,2.45,3.75,10.97c.6,8.52-3.1,17.98-3.1,17.98,0,0,4.74-7.08,5.2-14.83,.46-7.76-3.35-13.14-5.85-14.12Z" fill="#34c7ff"/></g><path d="M286.14,124.83s7.29,2.49,15.3,3.19,9.65,.87,9.65,.87c0,0-3.22-3.12-10.07-4.06-6.85-.94-14.88,0-14.88,0Z" fill="url(#_Áåçûìÿííûé_ãðàäèåíò_141-4)"/><path d="M321.39,197.38s3.49,0,4.86,4.38c1.1,3.49,1.4,6.5,1.4,6.5l1.24-4.8s-1.61-6.08-3.29-7.45c-1.21-.98-3.29-1.99-4.28-1.74l.07,3.11Z" fill="url(#_Áåçûìÿííûé_ãðàäèåíò_141-5)"/><path d="M311.98,193l.59,5.2s4.25,.34,7.07-.82l.5-3.15s-5.42-1.37-8.16-1.23Z" fill="url(#_Áåçûìÿííûé_ãðàäèåíò_141-6)"/><path d="M331.38,260.21s24.88,18.18,28.12,24.43c3.23,6.25,4.54,25.86,8.91,34.35,0,0-2.99-13.88-5.08-24.76-2.1-10.88-1.59-11.04-2.76-13.71-1.16-2.67-19.75-15.56-29.19-20.3Z" fill="#34c7ff"/><path d="M326.92,361.4s-12,51.34-11.45,54.81c.55,3.47,8.31,10.54,8.67,12.49,0,0-5.93,7.95-5.66,9.71,.27,1.76,10.4,12.89,10.13,16.33-.08,1-6.65,11.84-6.65,11.84,0,0,7.42-10.65,7.79-12.35,.36-1.7-9.1-15.93-9.37-17.37-.72-3.74,4.72-6.5,4.9-8.96,.18-2.46-7.36-8.48-7.42-12.5-.06-4.02,9.06-53.99,9.06-53.99Z" fill="#34c7ff"/><path d="M329.35,483.79s25.93,58.7,34.77,117.4c0,0-1.48-57.29-34.77-117.4Z" fill="#34c7ff"/><path d="M164.94,248.43s-6.71-1.43-9.49-7.29c-2.78-5.85-.97-14.32-.97-14.32,0,0,5.25,10.08,7.87,13.52,2.62,3.44,3.32,7.36,2.59,8.09Z" fill="#69351d"/></g><g><path d="M374.31,217.81l4.65,132.61c.18,5.26,4.5,9.43,9.77,9.43h228.44c5.31,0,9.64-4.23,9.77-9.54l3.2-134.16c.13-5.51-4.32-10.04-9.83-10l-236.28,1.55c-5.51,.04-9.89,4.61-9.7,10.11Z" fill="#36d1f7" opacity=".6"/><path d="M617.71,360.22h-228.44c-5.49,0-9.93-4.29-10.13-9.78l-4.65-132.61c-.1-2.76,.9-5.38,2.81-7.37,1.91-1.99,4.48-3.1,7.25-3.12l236.29-1.55c2.75,.01,5.36,1.06,7.29,3.03,1.94,1.97,2.97,4.58,2.9,7.34l-3.2,134.16c-.13,5.55-4.58,9.89-10.13,9.89Zm3.2-153.7h-.06l-236.29,1.55c-2.56,.02-4.95,1.05-6.73,2.9-1.77,1.85-2.7,4.28-2.61,6.84l4.65,132.61c.18,5.09,4.31,9.08,9.4,9.08h228.44c5.07,0,9.29-4.12,9.41-9.19l3.2-134.16c.06-2.57-.9-4.99-2.7-6.82-1.79-1.82-4.17-2.81-6.71-2.81Z" fill="#744ca2"/><path d="M374.65,224.56h255.21l.41-6.99c.36-6.18-4.58-11.38-10.77-11.34l-236.19,1.87c-4.93,.04-8.88,4.1-8.79,9.03l.14,7.43Z" fill="url(#_Áåçûìÿííûé_ãðàäèåíò_89)" mix-blend-mode="multiply" opacity=".6"/><polygon points="388.03 235.27 388.03 312.02 466.15 312.02 466.15 234.87 388.03 235.27" fill="url(#_Áåçûìÿííûé_ãðàäèåíò_85)" mix-blend-mode="multiply" opacity=".3"/><rect x="541.64" y="240.42" width="33.98" height="33.98" fill="url(#_Áåçûìÿííûé_ãðàäèåíò_85-2)" mix-blend-mode="multiply" opacity=".3"/><rect x="581.74" y="240.42" width="33.98" height="33.98" fill="url(#_Áåçûìÿííûé_ãðàäèåíò_85-3)" mix-blend-mode="multiply" opacity=".3"/><rect x="500.88" y="240.42" width="33.98" height="33.98" fill="url(#_Áåçûìÿííûé_ãðàäèåíò_85-4)" mix-blend-mode="multiply" opacity=".3"/><rect x="528.82" y="294.22" width="86.9" height="8.14" fill="#d1d4fb" mix-blend-mode="multiply"/><rect x="507.09" y="306.6" width="108.63" height="2.52" fill="#d1d4fb" mix-blend-mode="multiply"/><rect x="508.11" y="278.74" width="20.78" height="2.52" fill="#d1d4fb" mix-blend-mode="multiply"/><rect x="548.24" y="278.74" width="20.78" height="2.52" fill="#d1d4fb" mix-blend-mode="multiply"/><rect x="588.33" y="278.74" width="20.78" height="2.52" fill="#d1d4fb" mix-blend-mode="multiply"/><rect x="500.88" y="310.7" width="34.94" height="2.52" fill="#d1d4fb" mix-blend-mode="multiply"/><rect x="507.09" y="314.74" width="108.63" height="2.52" fill="#d1d4fb" mix-blend-mode="multiply"/><rect x="500.88" y="318.79" width="114.84" height="2.52" fill="#d1d4fb" mix-blend-mode="multiply"/><rect x="500.88" y="322.84" width="114.84" height="2.52" fill="#d1d4fb" mix-blend-mode="multiply"/><rect x="507.09" y="339.19" width="108.63" height="2.52" fill="#d1d4fb" mix-blend-mode="multiply"/><rect x="500.88" y="343.24" width="114.84" height="2.52" fill="#d1d4fb" mix-blend-mode="multiply"/><rect x="500.88" y="347.29" width="114.84" height="2.52" fill="#d1d4fb" mix-blend-mode="multiply"/><rect x="500.88" y="326.88" width="110.22" height="2.52" fill="#d1d4fb" mix-blend-mode="multiply"/><rect x="507.09" y="330.93" width="108.63" height="2.52" fill="#d1d4fb" mix-blend-mode="multiply"/><rect x="500.88" y="334.97" width="93.04" height="2.52" fill="#d1d4fb" mix-blend-mode="multiply"/><g mix-blend-mode="soft-light"><path d="M409.92,296.63c-12.25,0-22.22-9.97-22.22-22.22s9.97-22.22,22.22-22.22,22.22,9.97,22.22,22.22-9.97,22.22-22.22,22.22Zm0-43c-11.46,0-20.78,9.32-20.78,20.78s9.32,20.78,20.78,20.78,20.78-9.32,20.78-20.78-9.32-20.78-20.78-20.78Z" fill="#e0ffff"/></g><circle cx="409.92" cy="274.4" r="12.08" fill="#fff"/><g mix-blend-mode="soft-light"><path d="M466.15,257.09c-12.25,0-22.22-9.97-22.22-22.22s9.97-22.22,22.22-22.22,22.22,9.97,22.22,22.22-9.97,22.22-22.22,22.22Zm0-43c-11.46,0-20.78,9.32-20.78,20.78s9.32,20.78,20.78,20.78,20.78-9.32,20.78-20.78-9.32-20.78-20.78-20.78Z" fill="#e0ffff"/></g><circle cx="466.15" cy="234.87" r="11.36" fill="#fff"/><g mix-blend-mode="soft-light"><polygon points="384.14 214.16 385.77 211.7 394.55 219.4 393.2 221.27 384.14 214.16" fill="#fff"/><polygon points="394.77 214.16 393.15 211.7 384.37 219.4 385.71 221.27 394.77 214.16" fill="#fff"/></g><rect x="545.59" y="213.37" width="78.65" height="3.94" fill="#fff"/></g><g><polygon points="131.72 156.44 131.72 190.56 172.54 190.91 173.09 155.34 131.72 156.44" fill="url(#_Áåçûìÿííûé_ãðàäèåíò_65)"/><polygon points="173.09 155.34 175.76 159.83 174.42 190.88 172.54 190.91 173.09 155.34" fill="url(#_Áåçûìÿííûé_ãðàäèåíò_14)"/><polygon points="139.01 167.96 142.78 162.48 163.16 179.59 160.04 183.76 139.01 167.96" fill="#fff"/><polygon points="163.69 167.96 159.92 162.48 139.54 179.59 142.66 183.76 163.69 167.96" fill="#fff"/></g><path d="M62,555.02c-.79,1.89-2.97,2.77-4.85,1.98-1.89-.79-2.77-2.97-1.98-4.85,.79-1.89,2.97-2.77,4.85-1.98,1.89,.79,2.77,2.97,1.98,4.85Z" fill="url(#_Áåçûìÿííûé_ãðàäèåíò_322)"/><path d="M459.25,149.67c-1.2,1.38-3.29,1.54-4.67,.34-1.38-1.2-1.54-3.29-.34-4.67,1.2-1.38,3.29-1.54,4.67-.34,1.38,1.2,1.54,3.29,.34,4.67Z" fill="url(#_Áåçûìÿííûé_ãðàäèåíò_25)"/><g><path d="M8.73,527.26H-79.46c-7.1,0-12.92-5.63-13.15-12.72l-1.96-58c-.25-7.44,5.71-13.61,13.15-13.61H10.5c7.43,0,13.38,6.14,13.16,13.56l-1.77,58c-.22,7.11-6.04,12.76-13.16,12.76Z" fill="url(#_Áåçûìÿííûé_ãðàäèåíò_97)" opacity=".73"/><path d="M8.73,527.62H-79.46c-7.33,0-13.27-5.74-13.51-13.07l-1.96-58c-.12-3.7,1.22-7.2,3.79-9.86,2.57-2.66,6.02-4.12,9.72-4.12H10.5c3.69,0,7.14,1.46,9.71,4.11,2.57,2.65,3.92,6.14,3.81,9.83l-1.77,58c-.22,7.35-6.16,13.11-13.52,13.11Zm-90.15-84.33c-3.5,0-6.77,1.39-9.2,3.9-2.43,2.52-3.71,5.83-3.59,9.33l1.96,58c.23,6.94,5.85,12.37,12.79,12.37H8.73c6.96,0,12.58-5.45,12.8-12.41l1.77-58c.11-3.49-1.18-6.8-3.61-9.3-2.43-2.51-5.7-3.89-9.19-3.89H-81.42Z" fill="#953da2"/><rect x="-76.9" y="452.27" width="80.77" height="47.97" fill="#d1d4fb" mix-blend-mode="multiply"/><rect x="-76.9" y="509.08" width="80.77" height="4.39" fill="#d1d4fb" mix-blend-mode="multiply"/></g><polygon points="378.53 454.92 387.8 473.49 381.61 476.3 372.94 459.25 378.53 454.92" fill="#ff1d9c"/><polygon points="406.81 144.34 407.09 154.66 411.22 154.06 410.97 144.3 406.81 144.34" fill="#6877ff"/><polygon points="516.4 463.31 507.76 468.55 504.3 461.99 513.75 456.47 516.4 463.31" fill="#4f31e0"/><path d="M474.91,511.82l-10.64-27.83,27.58,5.76-16.95,22.07Zm-9.49-26.86l9.7,25.39,15.46-20.14-25.16-5.26Z" fill="#744ca2"/><polygon points="31.97 173.2 27.37 153.65 27.95 153.52 32.54 173.06 31.97 173.2" fill="#744ca2"/><rect x="19.92" y="163.06" width="20.08" height=".59" transform="translate(-32.99 9.67) rotate(-11.88)" fill="#744ca2"/><rect x="95.17" y="518.72" width=".59" height="12.2" transform="translate(-33.06 7.1) rotate(-3.63)" fill="#744ca2"/><g><polygon points="248.25 490.48 246.16 441.85 309.82 441.85 307.2 490.34 248.25 490.48" fill="url(#_Áåçûìÿííûé_ãðàäèåíò_107)" fill-rule="evenodd"/><polygon points="246.16 441.85 244.25 444.72 246.16 490.48 248.25 490.48 246.16 441.85" fill="url(#_Áåçûìÿííûé_ãðàäèåíò_206)" fill-rule="evenodd"/><polygon points="267.29 451.56 257.3 450.49 258.67 483.81 267.29 482.96 267.29 479.51 262.3 479.63 261.73 453.94 267.29 454.1 267.29 451.56" fill="#fff"/><polygon points="287.75 451.56 297.74 450.49 296.38 483.81 287.75 482.96 287.75 479.51 292.75 479.63 293.32 453.94 287.75 454.1 287.75 451.56" fill="#fff"/></g><path d="M135.09,449.82c-1.4,3.32-5.22,4.88-8.54,3.48-3.32-1.4-4.88-5.22-3.48-8.54s5.22-4.88,8.54-3.48,4.88,5.22,3.48,8.54Z" fill="url(#_Áåçûìÿííûé_ãðàäèåíò_302)"/><path d="M307.46,602.2c-.79,1.89-2.97,2.77-4.85,1.98-1.89-.79-2.77-2.97-1.98-4.85,.79-1.89,2.97-2.77,4.85-1.98,1.89,.79,2.77,2.97,1.98,4.85Z" fill="url(#_Áåçûìÿííûé_ãðàäèåíò_322-2)"/></g></g></g></svg>