<?xml version="1.0" encoding="UTF-8"?><svg xmlns="http://www.w3.org/2000/svg" xmlns:xlink="http://www.w3.org/1999/xlink" viewBox="0 0 600 600"><defs><clipPath id="clippath"><polyline points="481.45 -137.98 277.2 599.92 -1993.44 599.92 -1789.19 -137.98" fill="none"/></clipPath><linearGradient id="_Áåçûìÿííûé_ãðàäèåíò_89" x1="-225.49" y1="215.4" x2="30.28" y2="215.4" gradientUnits="userSpaceOnUse"><stop offset="0" stop-color="#9d68c2"/><stop offset="1" stop-color="#aec2ff"/></linearGradient><linearGradient id="_Áåçûìÿííûé_ãðàäèåíò_85" x1="-1.27" y1="274.4" x2="-1.27" y2="240.42" gradientUnits="userSpaceOnUse"><stop offset="0" stop-color="#ccedff"/><stop offset="1" stop-color="#9d68c2"/></linearGradient><linearGradient id="_Áåçûìÿííûé_ãðàäèåíò_50" x1="317.09" y1="356.11" x2="317.09" y2="179.61" gradientUnits="userSpaceOnUse"><stop offset="0" stop-color="#b30b63"/><stop offset="1" stop-color="#95004c"/></linearGradient><linearGradient id="_Áåçûìÿííûé_ãðàäèåíò_114" x1="355.79" y1="304.95" x2="355.79" y2="239.15" gradientUnits="userSpaceOnUse"><stop offset=".02" stop-color="#fff"/><stop offset=".99" stop-color="#c2798b"/></linearGradient><linearGradient id="_Áåçûìÿííûé_ãðàäèåíò_16" x1="388.18" y1="440.61" x2="388.18" y2="356.06" gradientUnits="userSpaceOnUse"><stop offset="0" stop-color="#d61a6a"/><stop offset="1" stop-color="#c3065b"/></linearGradient><linearGradient id="_Áåçûìÿííûé_ãðàäèåíò_143" x1="378.69" y1="440.51" x2="378.69" y2="304.16" gradientUnits="userSpaceOnUse"><stop offset="0" stop-color="#ff5579"/><stop offset="1" stop-color="#e75979"/></linearGradient><linearGradient id="_Áåçûìÿííûé_ãðàäèåíò_133" x1="435.27" y1="293.26" x2="435.27" y2="288.84" gradientUnits="userSpaceOnUse"><stop offset="0" stop-color="#d8caef"/><stop offset="1" stop-color="#eadef4"/></linearGradient><linearGradient id="_Áåçûìÿííûé_ãðàäèåíò_79" x1="318.44" y1="437.44" x2="318.44" y2="278.59" gradientUnits="userSpaceOnUse"><stop offset="0" stop-color="#ff6686"/><stop offset="1" stop-color="#ff7c89"/></linearGradient><linearGradient id="_Áåçûìÿííûé_ãðàäèåíò_7" x1="380.85" y1="339.64" x2="380.85" y2="306.42" gradientUnits="userSpaceOnUse"><stop offset=".02" stop-color="#ffa67f"/><stop offset="1" stop-color="#ff8b7c"/></linearGradient><linearGradient id="_Áåçûìÿííûé_ãðàäèåíò_177" x1="354.59" y1="262.8" x2="354.59" y2="156.9" gradientUnits="userSpaceOnUse"><stop offset=".02" stop-color="#ffc2a6"/><stop offset="1" stop-color="#ffb595"/></linearGradient><linearGradient id="_Áåçûìÿííûé_ãðàäèåíò_111" x1="339.26" y1="600.85" x2="339.26" y2="393.7" gradientUnits="userSpaceOnUse"><stop offset="0" stop-color="#7e8eff"/><stop offset="1" stop-color="#7096ff"/></linearGradient><linearGradient id="_Áåçûìÿííûé_ãðàäèåíò_16-2" x1="284.39" y1="442.7" x2="284.39" y2="362.31" xlink:href="#_Áåçûìÿííûé_ãðàäèåíò_16"/><linearGradient id="_Áåçûìÿííûé_ãðàäèåíò_7-2" x1="329.84" y1="300.43" x2="329.84" y2="233.59" xlink:href="#_Áåçûìÿííûé_ãðàäèåíò_7"/><linearGradient id="_Áåçûìÿííûé_ãðàäèåíò_159" x1="371.45" y1="335.27" x2="371.45" y2="280.56" gradientUnits="userSpaceOnUse"><stop offset="0" stop-color="#301361"/><stop offset="1" stop-color="#482c6a"/></linearGradient><linearGradient id="_Áåçûìÿííûé_ãðàäèåíò_54" x1="317.76" y1="365.35" x2="317.76" y2="143.52" gradientUnits="userSpaceOnUse"><stop offset="0" stop-color="#c50b79"/><stop offset="1" stop-color="#e51160"/></linearGradient><linearGradient id="_Áåçûìÿííûé_ãðàäèåíò_177-2" x1="313.19" y1="230.22" x2="313.19" y2="199.84" xlink:href="#_Áåçûìÿííûé_ãðàäèåíò_177"/><linearGradient id="_Áåçûìÿííûé_ãðàäèåíò_116" x1="312.23" y1="226.88" x2="312.23" y2="205.98" gradientUnits="userSpaceOnUse"><stop offset=".02" stop-color="#fff"/><stop offset=".99" stop-color="#f29dc8"/></linearGradient><linearGradient id="_Áåçûìÿííûé_ãðàäèåíò_54-2" x1="303.97" y1="323.12" x2="303.97" y2="191.08" xlink:href="#_Áåçûìÿííûé_ãðàäèåíò_54"/><linearGradient id="_Áåçûìÿííûé_ãðàäèåíò_149" x1="402.47" y1="415.74" x2="402.47" y2="337.69" gradientUnits="userSpaceOnUse"><stop offset=".02" stop-color="#ff8d90"/><stop offset="1" stop-color="#ffa684"/></linearGradient><linearGradient id="_Áåçûìÿííûé_ãðàäèåíò_248" x1="383.59" y1="394.41" x2="383.59" y2="291.86" gradientUnits="userSpaceOnUse"><stop offset="0" stop-color="#a586c9"/><stop offset="1" stop-color="#b1a4d3"/></linearGradient><linearGradient id="_Áåçûìÿííûé_ãðàäèåíò_123" x1="416.92" y1="395.24" x2="416.92" y2="290.86" gradientUnits="userSpaceOnUse"><stop offset="0" stop-color="#c9b6e9"/><stop offset="1" stop-color="#d5bdea"/></linearGradient><linearGradient id="_Áåçûìÿííûé_ãðàäèåíò_177-3" x1="449.23" y1="340.84" x2="449.23" y2="309.52" xlink:href="#_Áåçûìÿííûé_ãðàäèåíò_177"/><linearGradient id="_Áåçûìÿííûé_ãðàäèåíò_177-4" x1="443.61" y1="347.11" x2="443.61" y2="338.99" xlink:href="#_Áåçûìÿííûé_ãðàäèåíò_177"/><linearGradient id="_Áåçûìÿííûé_ãðàäèåíò_183" x1="361.85" y1="237.68" x2="378.79" y2="237.68" gradientUnits="userSpaceOnUse"><stop offset=".02" stop-color="#fff"/><stop offset=".99" stop-color="#ea9dc8"/></linearGradient><linearGradient id="_Áåçûìÿííûé_ãðàäèåíò_183-2" x1="362.69" y1="240.17" x2="362.69" y2="234.21" xlink:href="#_Áåçûìÿííûé_ãðàäèåíò_183"/><linearGradient id="_Áåçûìÿííûé_ãðàäèåíò_188" x1="361.84" y1="236.57" x2="361.84" y2="202.57" gradientUnits="userSpaceOnUse"><stop offset=".02" stop-color="#fff"/><stop offset=".99" stop-color="#f7839a"/></linearGradient><linearGradient id="_Áåçûìÿííûé_ãðàäèåíò_170" x1="384.98" y1="209.29" x2="384.98" y2="199.26" gradientUnits="userSpaceOnUse"><stop offset="0" stop-color="#ff8170"/><stop offset="1" stop-color="#fe467c"/></linearGradient><linearGradient id="_Áåçûìÿííûé_ãðàäèåíò_170-2" x1="354.44" y1="205" x2="354.44" y2="196.28" xlink:href="#_Áåçûìÿííûé_ãðàäèåíò_170"/><linearGradient id="_Áåçûìÿííûé_ãðàäèåíò_197" x1="364.02" y1="254.5" x2="364.02" y2="241.86" gradientUnits="userSpaceOnUse"><stop offset="0" stop-color="#ea1a8f"/><stop offset="1" stop-color="#d3004c"/></linearGradient><linearGradient id="_Áåçûìÿííûé_ãðàäèåíò_207" x1="304.8" y1="191.29" x2="345.36" y2="191.29" gradientUnits="userSpaceOnUse"><stop offset="0" stop-color="#c2798b"/><stop offset=".98" stop-color="#fff"/></linearGradient><linearGradient id="_Áåçûìÿííûé_ãðàäèåíò_207-2" x1="336.45" y1="199.84" x2="336.45" y2="153.03" xlink:href="#_Áåçûìÿííûé_ãðàäèåíò_207"/><linearGradient id="_Áåçûìÿííûé_ãðàäèåíò_207-3" x1="332.08" y1="200.82" x2="332.08" y2="146.72" xlink:href="#_Áåçûìÿííûé_ãðàäèåíò_207"/><linearGradient id="_Áåçûìÿííûé_ãðàäèåíò_114-2" x1="295.87" y1="300.43" x2="295.87" y2="208.17" xlink:href="#_Áåçûìÿííûé_ãðàäèåíò_114"/><linearGradient id="_Áåçûìÿííûé_ãðàäèåíò_229" x1="343.06" y1="347.93" x2="343.06" y2="308.46" gradientUnits="userSpaceOnUse"><stop offset="0" stop-color="#e38b8b"/><stop offset=".98" stop-color="#fff"/></linearGradient><linearGradient id="_Áåçûìÿííûé_ãðàäèåíò_207-4" x1="248.31" y1="333.91" x2="266.77" y2="333.91" xlink:href="#_Áåçûìÿííûé_ãðàäèåíò_207"/><linearGradient id="_Áåçûìÿííûé_ãðàäèåíò_225" x1="303.57" y1="363.92" x2="303.57" y2="325.77" gradientUnits="userSpaceOnUse"><stop offset="0" stop-color="#e59db0"/><stop offset=".98" stop-color="#fff"/></linearGradient><linearGradient id="_Áåçûìÿííûé_ãðàäèåíò_225-2" x1="313.24" y1="362.31" x2="313.24" y2="339.64" xlink:href="#_Áåçûìÿííûé_ãðàäèåíò_225"/><linearGradient id="_Áåçûìÿííûé_ãðàäèåíò_226" x1="267.75" y1="360.24" x2="303.97" y2="360.24" gradientUnits="userSpaceOnUse"><stop offset=".02" stop-color="#fff"/><stop offset="1" stop-color="#e59db0"/></linearGradient><linearGradient id="_Áåçûìÿííûé_ãðàäèåíò_225-3" x1="348.24" y1="404.37" x2="348.24" y2="373.08" xlink:href="#_Áåçûìÿííûé_ãðàäèåíò_225"/><linearGradient id="_Áåçûìÿííûé_ãðàäèåíò_225-4" x1="326.9" y1="398.34" x2="326.9" y2="369.91" xlink:href="#_Áåçûìÿííûé_ãðàäèåíò_225"/><linearGradient id="_Áåçûìÿííûé_ãðàäèåíò_225-5" x1="352.72" y1="407.4" x2="352.72" y2="385.13" xlink:href="#_Áåçûìÿííûé_ãðàäèåíò_225"/><linearGradient id="_Áåçûìÿííûé_ãðàäèåíò_177-5" x1="324.55" y1="418.7" x2="324.55" y2="294.65" xlink:href="#_Áåçûìÿííûé_ãðàäèåíò_177"/><linearGradient id="_Áåçûìÿííûé_ãðàäèåíò_27" x1="299.75" y1="407.6" x2="358.96" y2="407.6" gradientUnits="userSpaceOnUse"><stop offset="0" stop-color="#8b8be0"/><stop offset="1" stop-color="#a177b7"/></linearGradient><linearGradient id="_Áåçûìÿííûé_ãðàäèåíò_236" x1="274.32" y1="600.85" x2="274.32" y2="497.28" gradientUnits="userSpaceOnUse"><stop offset="0" stop-color="#c2c0e1"/><stop offset=".98" stop-color="#fff"/></linearGradient><linearGradient id="_Áåçûìÿííûé_ãðàäèåíò_236-2" x1="330.74" x2="330.74" y2="428.22" xlink:href="#_Áåçûìÿííûé_ãðàäèåíò_236"/><linearGradient id="_Áåçûìÿííûé_ãðàäèåíò_236-3" x1="369.64" x2="369.64" y2="418.7" xlink:href="#_Áåçûìÿííûé_ãðàäèåíò_236"/><linearGradient id="_Áåçûìÿííûé_ãðàäèåíò_236-4" x1="379.85" x2="379.85" y2="457.28" xlink:href="#_Áåçûìÿííûé_ãðàäèåíò_236"/><linearGradient id="_Áåçûìÿííûé_ãðàäèåíò_242" x1="311.71" y1="504.22" x2="311.71" y2="404.37" gradientUnits="userSpaceOnUse"><stop offset=".02" stop-color="#fff"/><stop offset=".99" stop-color="#c2c0e1"/></linearGradient><linearGradient id="_Áåçûìÿííûé_ãðàäèåíò_242-2" x1="314.79" y1="605.57" x2="314.79" y2="500.6" gradientTransform="translate(-54.58 -52.17) rotate(-7.31)" xlink:href="#_Áåçûìÿííûé_ãðàäèåíò_242"/><linearGradient id="_Áåçûìÿííûé_ãðàäèåíò_242-3" x1="354.67" y1="516.83" x2="354.67" y2="415.5" xlink:href="#_Áåçûìÿííûé_ãðàäèåíò_242"/><linearGradient id="_Áåçûìÿííûé_ãðàäèåíò_114-3" x1="327.26" y1="169.99" x2="370.32" y2="169.99" xlink:href="#_Áåçûìÿííûé_ãðàäèåíò_114"/><linearGradient id="_Áåçûìÿííûé_ãðàäèåíò_207-5" y1="190.94" x2="327.26" y2="190.94" xlink:href="#_Áåçûìÿííûé_ãðàäèåíò_207"/><linearGradient id="_Áåçûìÿííûé_ãðàäèåíò_123-2" x1="359" y1="289.98" x2="359" y2="280.45" xlink:href="#_Áåçûìÿííûé_ãðàäèåíò_123"/><linearGradient id="_Áåçûìÿííûé_ãðàäèåíò_242-4" x1="279.94" y1="600.85" x2="279.94" y2="431.98" xlink:href="#_Áåçûìÿííûé_ãðàäèåíò_242"/><linearGradient id="_Áåçûìÿííûé_ãðàäèåíò_107" x1="173.02" y1="124.3" x2="189.39" y2="63.51" gradientUnits="userSpaceOnUse"><stop offset="0" stop-color="#188dc1"/><stop offset="1" stop-color="#06bfe7"/></linearGradient><linearGradient id="_Áåçûìÿííûé_ãðàäèåíò_206" x1="144.88" y1="117.29" x2="157.09" y2="71.96" gradientUnits="userSpaceOnUse"><stop offset="0" stop-color="#1852a0"/><stop offset="1" stop-color="#067ed3"/></linearGradient><linearGradient id="_Áåçûìÿííûé_ãðàäèåíò_302" x1="-450.69" y1="1136.02" x2="-450.69" y2="1122.99" gradientTransform="translate(971.6 -576.88) rotate(22.82)" gradientUnits="userSpaceOnUse"><stop offset="0" stop-color="#459fff"/><stop offset="1" stop-color="#a96dff"/></linearGradient><linearGradient id="_Áåçûìÿííûé_ãðàäèåíò_322" x1="-33.5" y1="993.65" x2="-33.5" y2="986.24" gradientTransform="translate(1102.86 -898.92) rotate(22.82) scale(.87 1.37)" gradientUnits="userSpaceOnUse"><stop offset="0" stop-color="#b31a8f"/><stop offset="1" stop-color="#fe117e"/></linearGradient><linearGradient id="_Áåçûìÿííûé_ãðàäèåíò_97" x1="527.57" y1="490.98" x2="527.57" y2="423.57" gradientUnits="userSpaceOnUse"><stop offset="0" stop-color="#d906e3"/><stop offset="1" stop-color="#ff6df9"/></linearGradient><linearGradient id="_Áåçûìÿííûé_ãðàäèåíò_302-2" x1="-279.98" y1="1313.86" x2="-279.98" y2="1300.82" xlink:href="#_Áåçûìÿííûé_ãðàäèåíò_302"/></defs><g isolation="isolate"><g id="illustration"><circle cx="323.01" cy="301.11" r="223.94" transform="translate(-118.31 316.59) rotate(-45)" fill="#e0f3ff"/><g clip-path="url(#clippath)"><g><path d="M-225.69,217.81l4.65,132.61c.18,5.26,4.5,9.43,9.77,9.43H17.16c5.31,0,9.64-4.23,9.77-9.54l3.2-134.16c.13-5.51-4.32-10.04-9.83-10l-236.28,1.55c-5.51,.04-9.89,4.61-9.7,10.11Z" fill="#36d1f7" opacity=".6"/><path d="M17.71,360.22H-210.72c-5.49,0-9.93-4.29-10.13-9.78l-4.65-132.61c-.1-2.76,.9-5.38,2.81-7.37,1.91-1.99,4.48-3.1,7.25-3.12l236.29-1.55c2.75,.01,5.36,1.06,7.29,3.03,1.94,1.97,2.97,4.58,2.9,7.34l-3.2,134.16c-.13,5.55-4.58,9.89-10.13,9.89Zm3.2-153.7h-.06l-236.29,1.55c-2.56,.02-4.95,1.05-6.73,2.9-1.77,1.85-2.7,4.28-2.61,6.84l4.65,132.61c.18,5.09,4.31,9.08,9.4,9.08H17.71c5.07,0,9.29-4.12,9.41-9.19l3.2-134.16c.06-2.57-.9-4.99-2.7-6.82-1.79-1.82-4.17-2.81-6.71-2.81Z" fill="#744ca2"/><path d="M-225.35,224.56H29.86l.41-6.99c.36-6.18-4.58-11.38-10.77-11.34l-236.19,1.87c-4.93,.04-8.88,4.1-8.79,9.03l.14,7.43Z" fill="url(#_Áåçûìÿííûé_ãðàäèåíò_89)" mix-blend-mode="multiply" opacity=".6"/><rect x="-18.26" y="240.42" width="33.98" height="33.98" fill="url(#_Áåçûìÿííûé_ãðàäèåíò_85)" mix-blend-mode="multiply" opacity=".3"/><rect x="-71.18" y="294.22" width="86.9" height="8.14" fill="#d1d4fb" mix-blend-mode="multiply"/><rect x="-92.91" y="306.6" width="108.63" height="2.52" fill="#d1d4fb" mix-blend-mode="multiply"/><rect x="-11.67" y="278.74" width="20.78" height="2.52" fill="#d1d4fb" mix-blend-mode="multiply"/><rect x="-92.91" y="314.74" width="108.63" height="2.52" fill="#d1d4fb" mix-blend-mode="multiply"/><rect x="-99.12" y="318.79" width="114.84" height="2.52" fill="#d1d4fb" mix-blend-mode="multiply"/><rect x="-99.12" y="322.84" width="114.84" height="2.52" fill="#d1d4fb" mix-blend-mode="multiply"/><rect x="-92.91" y="339.19" width="108.63" height="2.52" fill="#d1d4fb" mix-blend-mode="multiply"/><rect x="-99.12" y="343.24" width="114.84" height="2.52" fill="#d1d4fb" mix-blend-mode="multiply"/><rect x="-99.12" y="347.29" width="114.84" height="2.52" fill="#d1d4fb" mix-blend-mode="multiply"/><rect x="-99.12" y="326.88" width="110.22" height="2.52" fill="#d1d4fb" mix-blend-mode="multiply"/><rect x="-92.91" y="330.93" width="108.63" height="2.52" fill="#d1d4fb" mix-blend-mode="multiply"/><rect x="-54.41" y="213.37" width="78.65" height="3.94" fill="#fff"/></g></g><g><path d="M377.59,250.88s-4.97,35.02,3.98,92.02l-8.31-5.59-17.15-8.2s-5.13-8.15-5.52-31.99c0,0-1.95,2.19,4.74,42.52,0,0-62.71,4.38-74.9,8.48-12.19,4.1-17.1,7.99-17.1,7.99,0,0-13.96-28.48-10.03-37.42,3.93-8.94,15.92-2.79,27.92-16.95,11.99-14.16,12.88-98.17,25.85-111.86,12.97-13.69,66.71-9.73,66.71-9.73l4.65,4.98s.54,40.42-.83,65.76Z" fill="url(#_Áåçûìÿííûé_ãðàäèåíò_50)"/><path d="M377.07,254.5s-4.9,3.83-7.6,6.91c-2.7,3.07-4,43.55-4,43.55l-2.06-2.16,3.35-39.29s-10.91,6.71-13.11,11.32c-2.2,4.61-4.51,19.97-4.51,19.97l-1.73-1.53,4.46-22.63-5.83,21.24s-3.2-3.14-5.68-8.14c-2.48-4.99-6.37-44.57-6.37-44.57l43.61,11.72-.52,3.62Z" fill="url(#_Áåçûìÿííûé_ãðàäèåíò_114)" mix-blend-mode="multiply"/><path d="M385.8,440.51c8.55,3.07,25.08-67.53,15.79-81.4-9.3-13.88-29.15,22.91-29.55,45.27s13.76,36.14,13.76,36.14Z" fill="url(#_Áåçûìÿííûé_ãðàäèåíò_16)"/><path d="M365.35,304.16s19.58,17.14,36.23,54.95c0,0-51.47,36.7-15.79,81.4,0,0-19.68-17.58-27.68-49.59-8-32,7.23-86.77,7.23-86.77Z" fill="url(#_Áåçûìÿííûé_ãðàäèåíò_143)"/><path d="M401.58,291.86s29.92-4.89,65.01-2.24l2.36,2.24-64.28,1.4-3.09-1.4Z" fill="url(#_Áåçûìÿííûé_ãðàäèåíò_133)"/><path d="M317.39,278.59h-2.84s-.41,3.77-3.36,6.43c-2.95,2.65-19.9,6.99-35.83,25.43,0,0-26.98,75.86-9.88,127,0,0,6.05-56.58,29.49-72.79l2.31,1.83s2.88,22.31-.52,29.73l2.79,1.55s12.53-5.31,20.49-3.07c7.96,2.24,16.37,9.64,30.37,12.71,0,0,7.86-18.12,14.55-29.11,6.68-10.99,11.11-20.28,11.11-20.28,0,0,3.59-15.67-2.8-28.99-6.35-13.24-7.91-24.87-7.91-24.87,0,0-19.51-7.6-23.05-18.26l-2.11-.75-22.8-6.57Z" fill="url(#_Áåçûìÿííûé_ãðàäèåíò_79)"/><path d="M363.57,343.05s5.26,5,6.06,13.06c.91,9.12-4.68,22.19-4.68,22.19l4.68-8.02,13.65-38.25-4.33-5.85-15.38,16.88Z" fill="#ed90bc" mix-blend-mode="multiply"/><path d="M376.36,339.64c2.21-1.54,1.47-13.83,4.28-19.56,2.8-5.73,8.6-12.39,8.6-12.39,0,0-1.67-1.96-5.01-1.02-3.34,.93-9.04,2.61-8.55,12.39,0,0-1.37,3.41-3.21,6.71,0,0,4.09,7.08,3.89,13.88Z" fill="url(#_Áåçûìÿííûé_ãðàäèåíò_7)"/><path d="M376.07,162.49c11.35,9.71,16.02,17.23,16.81,24.31,.79,7.08-8.35,28.5-8.4,33.72-.05,5.22,4.67,9.69,2.51,17.32-2.16,7.64-19.71,24.96-28.7,24.96-3.83,0-21.28-10.62-30.13-20.54-8.85-9.92-9.14-31.71-9.14-31.71,0,0-10.76-36.19,10.32-47.22s41.32-5.48,46.74-.84Z" fill="url(#_Áåçûìÿííûé_ãðàäèåíò_177)"/><path d="M380.93,196.79s2.61-15.44-3.34-17.95c-5.95-2.51-8.12-1.54-8.12-1.54,0,0-5.37,16.02-15.83,18.98s-22.89-.68-22.89-.68l18.98-16.77,25.08-16.21,10.17,8.24,2.54,20.21-6.58,5.7Z" fill="#eb90bc" mix-blend-mode="multiply"/><path d="M351.82,404.24s3.9,3.02,7.15,11.26h-4.87s26.39,111.54,60.01,185.35h-143.16s-9.5-113.03-5.57-144.32c3.93-31.3,31.39-60.32,31.39-60.32,0,0,16-4.94,24.99-.97,9,3.97,28.66,12.16,28.66,12.16l1.4-3.16Z" fill="url(#_Áåçûìÿííûé_ãðàäèåíò_111)"/><path d="M319.31,285.56s-2.02-4.6-1.93-6.98l.11-2.37-2.16,1.03s-.2,4.19-4.14,7.77c-3.92,3.58-17.99,6.11-35.83,25.42l-3.08,9.72s6.77-5.19,16.4-4.82c0,0,10.31,17.51,21.92,13.41,11.59-4.1,8.71-43.19,8.71-43.19Zm-10.71,36.44c-10.08,1.43-16.53-8.67-16.53-8.67,0,0,10.57,2.85,17.65-.6,7.07-3.45,8.03-17.93,8.03-17.93,0,0,.95,25.76-9.15,27.21Z" fill="#e0a1c6" mix-blend-mode="multiply"/><path d="M265.49,437.44c.95,13.11,18.48,.28,30.27-22.82,11.8-23.1,8.45-46.94,0-51.97-8.45-5.03-32.24,47.69-30.27,74.79Z" fill="url(#_Áåçûìÿííûé_ãðàäèåíò_16-2)"/><path d="M338.97,251.95s-3.3,20.91,3.18,37.31c0,0,1.77,11.36-7.08,11.18-8.85-.19-17.69-18.44-17.69-18.44l5.78-48.39s3.97,8.24,15.8,18.35Z" fill="url(#_Áåçûìÿííûé_ãðàäèåíò_7-2)"/><path d="M381.57,330.42l-26.98-43.87s-.05-6.99,6.88-5.87l24.51,44.44s2.97,9.03,2.2,10.03c-.76,1-6.61-4.73-6.61-4.73Z" fill="url(#_Áåçûìÿííûé_ãðàäèåíò_159)"/><path d="M377.74,162.21c5.35,6.08,20.45,10.25,23.39,16.95,2.95,6.71-9.5,16.21-9.5,16.21l.28-1.54s9.67-6.76,6.46-13.46c0,0-4.77,14.11-16.12,15.79,0,0,7.67-6.57,5.01-17.18,0,0,2.51,9.5-5.01,17.18l-1.33,.63s8.99-14.65-5.23-28.42c0,0,.66,34.64-32.07,25l-3.83-1.68s26.95-5.31,31.68-24.73c0,0-11.43,19.47-34.14,25.15l-4.72,1.3s-13.61,34.73,6.88,40.18c0,0-14.59,2.52-15.48-8.1-.89-10.62,5.82-31.16,5.82-31.16,0,0-5.76,10.13-6.31,18.34,0,0-2.45-6.77-6.13-9.3,0,0-2.6-2.21-8.49-3.52,0,0-8.05,41.43-1.56,86.42,0,0-18.28,9.78-24.18,16.77-5.9,6.99-10.03,6.99-22.41,12.29-12.39,5.31,6,37.16,6,37.16,0,0-9.24,10.34-15.14,12.85,0,0-12.68-1.64-17.69-11.58,0,0,8.94,8.32,20.94,7.2,0,0,2.56-5.64,1.57-7.2s-24.77-15.71-16.71-36.39c0,0,33.81-7.45,39.32-16.95,5.5-9.5,11.5-101.9,24.77-128.44,13.27-26.55,27.96-27.57,35.19-28.41,7.23-.84,28.41,6.89,38.73,18.63Z" fill="url(#_Áåçûìÿííûé_ãðàäèåíò_54)"/><path d="M320.17,206.65s-6.29-10.5-16.22-5.43c-2.09,1.07-2.73,14.46,1.93,21,4.66,6.54,10.76,7.91,13.57,7.99,2.81,.08,3.61-3.56,3.61-3.56,0,0,3.53-15.18-2.89-20Z" fill="url(#_Áåçûìÿííûé_ãðàäèåíò_177-2)"/><path d="M315.77,209.85s-5.91-3.57-8.82-3.87c-2.91-.29-1.42,10.52-1.42,10.52,0,0-.84-7.82,1.52-8.48,2.36-.65,6.49,3.21,6.49,3.21,0,0-4.37,2.25-4.23,7.84,.15,5.59,6.41,7.8,6.41,7.8,0,0,1.16-.68,1.65-2.27s-2.49-5.08-2.62-6.96c-.13-1.88,2.13-2.16,2.13-2.16l2.44,1.49s-.91-4.94-3.54-7.12Z" fill="url(#_Áåçûìÿííûé_ãðàäèåíò_116)" mix-blend-mode="multiply"/><path d="M318.15,213.31s-1.57-2.55-4.15-1.85-5.9,5.79-4.57,8.78c1.33,2.99,5.16,4.39,6.71,3.25,1.55-1.14-1.55-4.28-1.18-6.45,.37-2.17,3.68-.91,3.68-.91l-.49-2.83Z" fill="#feb1c8" mix-blend-mode="multiply"/><path d="M330.75,191.08s-8.47,7.68-16.46,9.74c0,0-.44,38.14,.34,69.81,.79,31.67-10.62,37.44-31.45,32.41l-5.98,5.29s12.49,4.02,25.16,1.97c12.67-2.05,13.9-29.25,13.9-29.25,0,0,2.08,35.46-6.54,40.42-8.63,4.96-20.49-11.67-20.49-11.67l-2.88-.35s10.39,14.96,23.81,13.57c13.42-1.4,7.77-30.28,8.9-47.38,1.13-17.1,2.91-54.78,4.48-62.98,1.57-8.2,7.22-21.6,7.22-21.6Z" fill="url(#_Áåçûìÿííûé_ãðàäèåíò_54-2)"/><path d="M375.31,415.74s31.14-8.2,55.32-63.52v-14.53s-29.44,25.99-51.14,48.34c0,0-7.9,11.5-4.18,29.71Z" fill="url(#_Áåçûìÿííûé_ãðàäèåíò_149)"/><path d="M364.86,394.41l-2.36-1.77s23.94-77.49,39.08-100.78l3.09,1.4-39.81,101.15Z" fill="url(#_Áåçûìÿííûé_ãðàäèåíò_248)"/><path d="M364.86,394.41c-1.47-3.82,36.27-99.47,39.81-101.15,3.54-1.68,62.22-3.63,64.28-1.4s-50.57,99.61-53.37,100.73c-2.8,1.12-49.84,4.09-50.72,1.82Z" fill="url(#_Áåçûìÿííûé_ãðàäèåíò_123)"/><path d="M442.63,318.13s-2.73,2.67-.66,6.61l6.51-.5s-8.79,2.19-12.18,7.79c-3.39,5.6-2.58,11.81-2.58,11.81h1.33l3.13,9.8,21.6-41.3s-12.05,1.82-17.13,5.8Z" fill="#ed90bc" mix-blend-mode="multiply"/><path d="M461.32,309.52s1.3,5.12,1.3,6.93-4.77,3.77-4.77,3.77c0,0,2.25,3.91,0,6.01,0,0,.86,5.31-4.11,9.15-4.97,3.84-11.4,5.18-17.89,5.46,0,0-.12-5.04,4.05-6.23l-2.25-.07s-.33-5.31,5.96-8.03c6.29-2.72,12.51-6.29,12.51-6.29,0,0-7.88,2.38-13.57,2.38,0,0-1.26-3.77,2.12-5.8,3.38-2.03,15.1-4.47,15.1-4.47l1.55-2.81Z" fill="url(#_Áåçûìÿííûé_ãðàäèåíò_177-3)"/><path d="M447.96,338.99s2.64,1.61,1.16,4.3c-1.48,2.69-11.05,3.82-11.05,3.82,0,0-1.73-3.82,1.73-5.73,3.46-1.91,8.16-2.39,8.16-2.39Z" fill="url(#_Áåçûìÿííûé_ãðàäèåíò_177-4)"/><path d="M363.88,234.21s-3.64,3.07-1.18,5.96c0,0,4.23-.21,7.62,.98,0,0,2.14,.14,5.16-.91l3.32-2.26s-1.99-.86-4.4-.3c-2.41,.56-4.96,1.56-7.27,1.84-2.31,.28-4.23-.14-4.23-.14,0,0-2.01-1.68,.98-5.17Z" fill="url(#_Áåçûìÿííûé_ãðàäèåíò_183)" mix-blend-mode="multiply"/><path d="M362.7,240.17s-3.34-3.89,1.18-5.96c0,0-3.05,1.77-1.18,5.96Z" fill="url(#_Áåçûìÿííûé_ãðàäèåíò_183-2)" mix-blend-mode="multiply"/><path d="M364.05,240.16s1.09-1.23,2.39-.97,3.04,1.69,3.04,1.69c0,0-3.29-.8-5.43-.72Z" fill="#a44f63" mix-blend-mode="multiply" opacity=".62"/><path d="M379.31,235.98s-2.21-3.63-5.09-7.2c-2.88-3.56-.37-10.62-.37-10.62,0,0-3.13-2.44-7.09,0,0,0-2.56,7.47-7.06,11.25,0,0-8.55,.91-16.81-4.19-8.26-5.1-7.74-12.15-7.74-12.15,0,0,1.84-6.14,6.27-8.07s26.02-2.43,26.02-2.43c0,0,6.32,6.67,12.63,4.6,0,0,6.46-3.33,8.45-1.72,0,0-4.88,12.86-3.97,16.35,.9,3.48,3.21,9.16,2.97,12.86,0,0-2.31,3.21-8.21,1.32Z" fill="url(#_Áåçûìÿííûé_ãðàäèåíò_188)" mix-blend-mode="multiply" opacity=".5"/><path d="M361.84,238.71c.52,.98,1.2,2.05,6.57,.58,5.38-1.47,8.03-2.32,10.39-1.32,0,0-6.23,8.01-11.48,7.03-5.25-.98-5.48-6.3-5.48-6.3Z" fill="#feb1c8" mix-blend-mode="multiply"/><path d="M373.81,226.2s3.64-2.79,10.32-2.7c0,0-3.86,6.34-6.95,6.72-3.1,.38-3.37-4.02-3.37-4.02Z" fill="#ffe4ec"/><path d="M338.72,219.57s9.73-2.04,19.66,3.92c0,0-2.73,2.99-5.53,3.37s-14.13-7.3-14.13-7.3Z" fill="#ffe4ec"/><path d="M373.81,226.2s5.15-2.81,9.75-1.83l4.97-3.11-3.97,.53s-4.51-1.23-10.75,4.4Z" fill="#6c2a51"/><path d="M358.37,223.49s-5.63-4.19-19.66-3.92l-2.53-4.9,4.89,2.96s15.33,.47,17.3,5.87Z" fill="#6c2a51"/><path d="M345.36,223.73s2.98-3.4,8.44-2.47l4.57,2.23s-2.41,3.02-5.53,3.37c-3.12,.36-7.48-3.14-7.48-3.14Z" fill="#9d86a2"/><path d="M379.71,224.29s-2.94,2.02-3.19,5.92c0,0,.61,.3,2.85-1.06,2.23-1.36,4.19-4.79,4.19-4.79,0,0-1.72-.52-3.85-.08Z" fill="#9d86a2"/><path d="M373.07,226.2s4.57-10.23,7.42-11.17,3.64,6.7,3.64,6.7c0,0-.88-7.1-3.34-6.45-2.46,.65-6.98,10.92-6.98,10.92h-.74Z" fill="#feb1c8" mix-blend-mode="multiply"/><path d="M358.37,223.49s.38-10.34-3.94-11.55c-4.32-1.21-13.36,5.68-13.36,5.68,0,0,8.9-6.19,12.58-5.17,3.69,1.02,3.62,9.43,3.62,9.43l1.1,1.61Z" fill="#feb1c8" mix-blend-mode="multiply"/><path d="M379.31,208.41s4.86-6.89,11.25-9.15c0,0,2.36,4.45-2.3,7.36,0,0-.25-1.24-1.8-.82-1.55,.42-7.67,3.49-7.67,3.49,0,0,.37-4.75,3.83-6.29l-3.32,5.4Z" fill="url(#_Áåçûìÿííûé_ãðàäèåíò_170)"/><path d="M367.07,203.91s1.7-5.03,0-7.26v5.17s-.22-4.12-2.21-5.17c-1.99-1.05-14.3-.35-23.81,8.35,0,0,15.26-2.69,26.02-1.08Z" fill="url(#_Áåçûìÿííûé_ãðàäèåíò_170-2)"/><path d="M374.81,246.73l-6.27,4.06h-.02l-.47,.31s-2.38,3.01-4.73,3.39c-1.76,.28-5.51-4.41-8.05-8.66-.87-1.45-1.59-2.83-2.04-3.97,0,0,2.46,3.67,5.59,5,3.13,1.34,8.44,2.34,10.35,2.18,1.79-.15,5.21-2.08,5.63-2.32Z" fill="url(#_Áåçûìÿííûé_ãðàäèåíò_197)"/><path d="M374.81,246.73l-6.27,4.06h-.02c-1.49,.21-3.14,0-3.14,0-5.38-1.4-10.1-4.96-10.1-4.96-.87-1.45-1.59-2.83-2.04-3.97,0,0,2.46,3.67,5.59,5,3.13,1.34,8.44,2.34,10.35,2.18,1.79-.15,5.21-2.08,5.63-2.32Z" fill="#ce86c8" mix-blend-mode="multiply"/><path d="M356.21,240.61s-4.02,.73-5.13,3.55l5.13-3.55Z" fill="#feb1c8" mix-blend-mode="multiply"/><path d="M338.42,257.1s-13.88,5.14-19.26,17.03c0,0,1.69-28.39,4.02-40.54,0,0,5.45,9.64,15.8,18.35l-.55,5.16Z" fill="#ed90bc" mix-blend-mode="multiply"/><path d="M304.8,200.82s22.8-9.53,40.56-19.05c0,0-12.35,13.6-31.07,19.05h-9.49Z" fill="url(#_Áåçûìÿííûé_ãðàäèåíò_207)" mix-blend-mode="multiply"/><path d="M307.16,199.84s4.59-29.99,17.89-42.1c13.3-12.11,40.69,2.98,40.69,2.98,0,0-27.13-13.97-40.5-1.68-13.37,12.29-18.09,40.8-18.09,40.8Z" fill="url(#_Áåçûìÿííûé_ãðàäèåíò_207-2)" mix-blend-mode="multiply"/><path d="M304.8,200.82s3.48-34.65,20.61-46.41c17.13-11.76,33.95-5.24,33.95-5.24,0,0-22.27-8.33-36.86,5.78-17.35,16.77-17.69,45.87-17.69,45.87Z" fill="url(#_Áåçûìÿííûé_ãðàäèåíò_207-3)" mix-blend-mode="multiply"/><path d="M302.36,208.17s-1.19,7.83,3.6,14.88c0,0-20.18,16.1-11.77,71.41l-8.41,5.96s3.13-60.08,16.58-92.26Z" fill="url(#_Áåçûìÿííûé_ãðàäèåíò_114-2)" mix-blend-mode="multiply"/><path d="M380.93,196.79s8.07-6.66,6.34-17.81c-1.73-11.15-11.57-10.61-11.57-10.61,0,0,12.16,8.79,5.23,28.42Z" fill="#d1729b" mix-blend-mode="multiply"/><path d="M374.81,166.49s-14.74-18.34-28.22-22.02c0,0,29.25,8.38,28.22,22.02Z" fill="#d1729b" mix-blend-mode="multiply"/><path d="M317.39,308.46s14.38,19.16,25.77,28.48c11.39,9.31,25.58,10.99,25.58,10.99l-51.34-39.47Z" fill="url(#_Áåçûìÿííûé_ãðàäèåíò_229)" mix-blend-mode="multiply" opacity=".8"/><path d="M260.77,315.33s-10.5,1.43-12.27,13.78c-1.77,12.36,10.06,23.24,10.06,23.24l8.21,.14s-18.27-33.62-6-37.16Z" fill="url(#_Áåçûìÿííûé_ãðàäèåíò_207-4)" mix-blend-mode="multiply" opacity=".5"/><path d="M340.82,285.38s1.7,12.02-6.84,14.93c0,0,6.4,2.03,8.32-3.89,1.92-5.91,0-10.52,0-10.52l-1.48-.52Z" fill="#e392ad" mix-blend-mode="multiply"/><path d="M303.97,363.92s2.5-14.58-4.87-38.15c0,0,8.44,10.46,8.94,36.55l-4.06,1.6Z" fill="url(#_Áåçûìÿííûé_ãðàäèåíò_225)" mix-blend-mode="multiply"/><path d="M308.98,362.31s8.59-9.12,9.46-22.67c0,0-5.2,15.07-10.4,22.67h.94Z" fill="url(#_Áåçûìÿííûé_ãðàäèåíò_225-2)" mix-blend-mode="multiply"/><path d="M303.97,363.92s-5.56-9.47-13.42-10.68c-7.86-1.21-22.8,14.06-22.8,14.06,0,0,13.5-10.83,21.92-10.56,8.42,.26,9.44,9.05,9.44,9.05l4.87-1.88Z" fill="url(#_Áåçûìÿííûé_ãðàäèåíò_226)" mix-blend-mode="multiply"/><path d="M333.98,400.5s18.39-24.21,28.52-27.42l-19.35,31.29-9.17-3.86Z" fill="url(#_Áåçûìÿííûé_ãðàäèåíò_225-3)" mix-blend-mode="multiply"/><path d="M329.84,398.34s1.31-16.25-4.74-28.42c0,0-3.31,15.14,.78,27.13l3.96,1.29Z" fill="url(#_Áåçûìÿííûé_ãðàäèåíò_225-4)" mix-blend-mode="multiply"/><polygon points="344.35 404.87 361.1 385.13 350.41 407.4 344.35 404.87" fill="url(#_Áåçûìÿííûé_ãðàäèåíò_225-5)" mix-blend-mode="multiply"/><path d="M290.11,369.12s44.29-15.7,54.26-25.15c1.77-1.68-2.14-16.39-2.43-20.4-.29-4,.42-8.24,1.3-8.8,.88-.56,5.09-2.07,5.77-2.44,.69-.37,1.89-2.26,2.87-2.72,.98-.47,4.23-.88,4.82-1.63,.15-.18,.69-.97,1.45-2.06,2.32-3.34,6.7-9.53,8.18-10.23,1.97-.93,5.07-1.78,6.64,.08,1.57,1.86,7.49,14.27,7.49,14.27,0,0-3.64,1.96-6.78-.19-3.15-2.14-4.95-5.98-4.95-5.98,0,0-3.43,2.54-3.72,3.93,0,0,7.46,3.63,10.86,7.17,1.05,2.89-4.33,8.66-4.62,9.22-.29,.56,7.57,6.24,5.11,15.46,0,0-10.62,3.73-20.15,9.31-9.53,5.59-52.98,56.33-87.58,69.74,0,0,5.71-35.18,21.48-49.58Z" fill="url(#_Áåçûìÿííûé_ãðàäèåíò_177-5)"/><path d="M285.78,409.71s-14.24-11.67,4.33-40.59c0,0-14.6,10.81-21.48,49.58,0,0,10.61-4.57,17.14-8.99Z" fill="#ed90bc" mix-blend-mode="multiply"/><path d="M349.73,325.77l1.35-3.63,8.32,3.63-1.41,6.1s.47,2.05,5.46-.19c0,0,2.54-.47,4.6-3.53l3.19-3.96h0l2.43,3.1-12.26,6.63h-4.32l-7.37-8.15Z" fill="#fe9dba" mix-blend-mode="multiply"/><path d="M380.46,310.02s-2.63-6.92-5.28-6.43c-2.65,.49,0,6.08,0,6.08,0,0,1.86,1.61,5.28,.35Z" fill="#ffe4db"/><path d="M368.73,303.85s-2.48-5.48-2.4-8.18c0,0-2.08,1.31-9.63,12.3,0,0,3.15-2.84,8.31-.19,0,0,2.43-2.7,3.72-3.93Z" fill="#fed2df" mix-blend-mode="multiply"/><path d="M299.1,365.79s-.2-5.6-5.41-8.1c0,0,3.85-.33,10.28,6.22l3.53-10.74,.54,9.14-8.94,3.48Z" fill="#e392ad" mix-blend-mode="multiply"/><path d="M358.96,415.5s-5.31-.7-16.66-4.61c-11.35-3.91-18.72-10.2-27.13-10.9-8.4-.7-13.85,0-13.85,0l-1.57,5.23s12.19-4.67,27.15,1.33c14.96,6.01,27.2,8.94,27.2,8.94h4.87Z" fill="url(#_Áåçûìÿííûé_ãðàäèåíò_27)" mix-blend-mode="multiply" opacity=".62"/><path d="M264.54,490.25s28.38-71.25,39.43-86.11l-.57-4.32s.58-3.71,5.21-5.91h-1.61l-5.45,4.43s-11.5,40.96-33,44.36c0,0-5.65,6.43-4.02,47.55Z" fill="#e392ad" mix-blend-mode="multiply"/><path d="M264.24,497.28s7.2,70.56,20.14,103.58h-13.45s-6.76-88.9-6.7-103.58Z" fill="url(#_Áåçûìÿííûé_ãðàäèåíò_236)" mix-blend-mode="multiply"/><path d="M313.24,428.22l23.41,172.64h11.59s-18.31-85.83-35-172.64Z" fill="url(#_Áåçûìÿííûé_ãðàäèåíò_236-2)" mix-blend-mode="multiply"/><path d="M362.72,600.85s-15.19-112.41-10.85-182.15c0,0,3.31,81.52,36.31,182.15h-25.47Z" fill="url(#_Áåçûìÿííûé_ãðàäèåíò_236-3)" mix-blend-mode="multiply"/><path d="M361.71,457.28s16.98,95.56,33.53,143.58h2.75s-21.34-71.79-36.28-143.58Z" fill="url(#_Áåçûìÿííûé_ãðàäèåíò_236-4)" mix-blend-mode="multiply"/><path d="M317.78,404.37s-14.4,46.21-11.82,99.85c0,0,2.48-60.28,11.82-99.85Z" fill="url(#_Áåçûìÿííûé_ãðàäèåíò_242)" mix-blend-mode="multiply"/><path d="M321.1,404.37s-7.09,27.95,17.47,103.59c0,0-17.73-68.72-17.47-103.59Z" fill="url(#_Áåçûìÿííûé_ãðàäèåíò_242-2)" mix-blend-mode="multiply"/><path d="M397.99,352.32s12.98-20.6,34.51-22.95c0,0-2.07,13.61-34.51,22.95Z" fill="#fff"/><path d="M439.9,334.61s10.64-1.81,17.98-8.03l-.12,2.26s-3.85,3.33-17.85,5.77Z" fill="#feb1c8" mix-blend-mode="multiply"/><path d="M443.61,317.63s7.26-1.92,8.24,.77c.99,2.69-7.63,4.38-8.24,4.17-.92-.32-2.13-.96,0-4.94Z" fill="#ffe4db"/><path d="M439.61,330.6s-1.44,1.16-.63,3.99c0,0,6.98-1.22,7.52-3.99,.5-2.57-6.89,0-6.89,0Z" fill="#ffe4db"/><path d="M437.87,336.34s-1.7,1.09-.91,4.09c0,0,7.7-.3,7.63-3.09-.07-2.79-6.72-1-6.72-1Z" fill="#ffe4db"/><path d="M439.06,342.72s-1.98,1.76-.61,4.26c0,0,5.61-.98,5.16-3.42s-4.55-.84-4.55-.84Z" fill="#ffe4db"/><path d="M456.13,320.22l4.39-1.38-2.66,1.38-10.36,4.51s7.02-3.53,8.64-4.51Z" fill="#feb1c8" mix-blend-mode="multiply"/><polygon points="433.63 291.2 376.52 359.48 365.26 391.69 454 291.05 433.63 291.2" fill="#fff" mix-blend-mode="soft-light" opacity=".5"/><path d="M313.24,388.59s.21,4.19,5.2,5.32c4.99,1.13,6.89,1.33,6.89,1.33l4.51,3.09s16.09,5.4,22.6,4.82l-.63,1.08s2.76,2.33,3.98,4.88c1.22,2.54-.15,0-.15,0l-5.23-1.72s-24.64-10.56-29.49-12.49c-4.85-1.93-13.91-1-13.91-1l6.23-5.32Z" fill="#d190bc" mix-blend-mode="multiply"/><path d="M358.12,390.93l11.52-20.65-7.13,22.37,2.36,1.77s3.74,2.21,40.3-.71l-5.16,5.72-4.88,4.27s-14.92,9.05-20.77,.67l-.79-1.86-12.46-1.67-2.98-9.91Z" fill="#d190bc" mix-blend-mode="multiply"/><path d="M375.31,415.74s1.59,10.52,6.34,13.32c4.75,2.79,20.47-31.98,20.47-31.98,0,0-16.36,15.4-26.81,18.66Z" fill="#d190bc" mix-blend-mode="multiply"/><path d="M268.63,418.7s-2.31,11.47-.88,16.09c11.62,4.24,29.56-24.54,29.56-24.54l4.26-11.91s-17.25,14.48-32.93,20.36Z" fill="#d190bc" mix-blend-mode="multiply"/><path d="M354.1,415.5s-7.52,53.85,0,101.32c0,0-3.25-58.25,4.49-83.35l-4.49-17.97Z" fill="url(#_Áåçûìÿííûé_ãðàäèåíò_242-3)" mix-blend-mode="multiply"/><path d="M370.32,161.42s-14.1-4.5-43.05,19.65c0,0,28.47-31.06,43.05-19.65Z" fill="url(#_Áåçûìÿííûé_ãðàäèåíò_114-3)" mix-blend-mode="multiply"/><path d="M307.16,199.84l20.1-18.77s-13.38,7.58-22.46,19.75l2.36-.98Z" fill="url(#_Áåçûìÿííûé_ãðàäèåíò_207-5)" mix-blend-mode="multiply"/><path d="M305.15,267.01s-9.31,19.82-19.37,33.42c0,0,12-8.29,21.58-14.16l-2.21-19.26Z" fill="#e392ad" mix-blend-mode="multiply"/><path d="M356.7,289.98s1.82-5.23,6.71-5.78l-1.94-3.53s-6.53-2.05-6.88,5.87l2.11,3.43Z" fill="url(#_Áåçûìÿííûé_ãðàäèåíò_123-2)"/><path d="M351.08,322.14l9.13,2.97s3.46-.35,5.68-2.38l-10.1-5.24,10.91,4.64s3.23-.73,4.75-3.31c0,0-4.3-3.77-8.36-6.5,0,0,5.73,2.72,8.36,5.8,0,0,3.85-.47,4.42-3.17,1.01,1.91-2.14,6.14-4.62,9.22,0,0-2.91,6.94-8.53,8.34-5.62,1.4-6.01-1.89-6.01-1.89l-5.62-8.49Z" fill="#fe9dba" mix-blend-mode="multiply"/><path d="M376.36,339.64l-12.79,3.41-8.98,7.03s3.13-1.85,8.12-4.61c5-2.75,13.65-5.83,13.65-5.83Z" fill="#fe9dba" mix-blend-mode="multiply"/><path d="M372.47,325.77s4.49,5.13,5.59,7.58c0,0,.47-5.28,.89-7.18l-3.73-6.06-2.76,5.66Z" fill="#fe9dba" mix-blend-mode="multiply"/><path d="M284.39,431.98s1.15,80.53,11.48,168.87h-24.93s-13.86-138.46-2.38-158.16c0,0,11.18-4.98,15.83-10.72Z" fill="url(#_Áåçûìÿííûé_ãðàäèåíò_242-4)" mix-blend-mode="multiply"/><path d="M373.81,226.2s.3,5.31,3.79,5.31,5.96-7.13,5.96-7.13c0,0-3.16,5.28-6.38,5.84-3.22,.56-3.37-4.02-3.37-4.02Z" fill="#feb1c8" mix-blend-mode="multiply"/><path d="M338.72,219.57s8.19,6.98,12.37,8.37c4.17,1.39,6.38-3.57,6.38-3.57,0,0-1.68,2.01-4.82,2.51-4.1-.5-13.93-7.31-13.93-7.31Z" fill="#feb1c8" mix-blend-mode="multiply"/><path d="M357.1,333.91c2.75,4.05,4.19,10.93,4.19,10.93l-6.69,5.24s11.44-7.15,22.13-10.44c0,0,1.32-3,1.34-6.29,.02-3.3,.89-7.18,.89-7.18l-3.73-6.06-2.76,5.66-1.22-1.59s-2.52,5.05-6.43,7.31c-2.91,1.68-7.25,.57-7.25,.57l-.47,1.85Z" fill="#fe9dba" mix-blend-mode="multiply" opacity=".4"/><path d="M351.87,186.01c-3.78,2.08,2.98-4.3-17.89-6.41-20.86-2.1-20.33-18.99-18.96-20.71s-1.14-2-1.14-2c0,0,2.07-3.27,5.43-5.7,0,0-3.45,4.26-3.28,13.6s16.62,14.79,30.56,14.81c13.94,.03,16.81-2.67,16.81-2.67,0,0-7.6,6.92-11.53,9.08Z" fill="#fff" mix-blend-mode="soft-light"/><path d="M354.59,186.22s9.52-1.33,12.18,4.72c0,0,4.87-4.09,6.41-9.18,0,0-1.21,1.82-5.36,1.96-4.14,.14-3.12-4.89-3.12-4.89,0,0-4.77,4.9-10.11,7.39Z" fill="#fff" mix-blend-mode="soft-light"/><path d="M385.99,190.15s3.45-1.86,5.16-2.33c1.72-.47,2.42,1.16,2.42,1.16,0,0,2.99-4.21,3.9-6.41,0,0,.52,1.71-3.51,2.32s-6.31-3.12-6.31-3.12c0,0,.2,5.5-1.65,8.38Z" fill="#fff" mix-blend-mode="soft-light"/></g><g><polygon points="152.63 118.81 150.54 70.19 214.2 70.19 211.58 118.68 152.63 118.81" fill="url(#_Áåçûìÿííûé_ãðàäèåíò_107)" fill-rule="evenodd"/><polygon points="150.54 70.19 148.63 73.06 150.54 118.81 152.63 118.81 150.54 70.19" fill="url(#_Áåçûìÿííûé_ãðàäèåíò_206)" fill-rule="evenodd"/><polygon points="171.68 79.9 161.69 78.83 163.05 112.15 171.68 111.3 171.68 107.85 166.68 107.97 166.11 82.28 171.68 82.44 171.68 79.9" fill="#fff"/><polygon points="192.14 79.9 202.13 78.83 200.76 112.15 192.14 111.3 192.14 107.85 197.13 107.97 197.7 82.28 192.14 82.44 192.14 79.9" fill="#fff"/></g><path d="M124.14,292.04c-1.4,3.32-5.22,4.88-8.54,3.48-3.32-1.4-4.88-5.22-3.48-8.54s5.22-4.88,8.54-3.48,4.88,5.22,3.48,8.54Z" fill="url(#_Áåçûìÿííûé_ãðàäèåíò_302)"/><path d="M551.39,345.12c-1.09,2.59-3.3,4.13-4.94,3.44-1.64-.69-2.09-3.35-1-5.94,1.09-2.59,3.3-4.13,4.94-3.44,1.64,.69,2.09,3.35,1,5.94Z" fill="url(#_Áåçûìÿííûé_ãðàäèåíò_322)"/><rect x="254.43" y="52.47" width="20.08" height=".59" transform="translate(-5.2 55.57) rotate(-11.88)" fill="#744ca2"/><polyline points="555.87 168.55 571.33 148.41 546.17 143.16" fill="#744ca2"/><g><path d="M562.89,490.98h-70.49c-5.67,0-10.32-4.5-10.52-10.17l-1.57-46.37c-.2-5.95,4.57-10.88,10.52-10.88h73.48c5.94,0,10.7,4.91,10.52,10.84l-1.42,46.37c-.17,5.68-4.83,10.2-10.52,10.2Z" fill="url(#_Áåçûìÿííûé_ãðàäèåíò_97)" opacity=".73"/><path d="M562.9,491.34h-70.5c-5.9,0-10.68-4.62-10.88-10.52l-1.57-46.37c-.1-2.98,.98-5.79,3.05-7.93,2.07-2.14,4.85-3.32,7.82-3.32h73.48c2.97,0,5.74,1.17,7.81,3.31,2.07,2.13,3.16,4.94,3.07,7.91l-1.42,46.37c-.18,5.92-4.96,10.55-10.88,10.55Zm-72.06-67.41c-2.78,0-5.37,1.1-7.3,3.1s-2.94,4.63-2.85,7.4l1.57,46.37c.19,5.51,4.65,9.82,10.15,9.82h70.5c5.53,0,9.99-4.33,10.16-9.85l1.42-46.37c.08-2.77-.93-5.39-2.86-7.38-1.93-1.99-4.52-3.09-7.29-3.09h-73.48Z" fill="#953da2"/><polygon points="511.19 440.23 493.81 460.38 511.51 475.4 511.51 467.65 501.27 458.78 510.78 448.03 511.19 440.23" fill="#fff"/><polygon points="541.75 441.14 559.13 461.28 541.43 476.31 541.43 468.55 551.67 459.69 540.27 447.63 541.75 441.14" fill="#fff"/><polygon points="514.98 475.4 530.13 442.04 537.24 442.04 520.09 475.4 514.98 475.4" fill="#fff"/></g><polygon points="458.98 528.54 468.25 547.11 462.06 549.92 453.4 532.87 458.98 528.54" fill="#ff1d9c"/><line x1="112.42" y1="246.82" x2="107.83" y2="227.27" fill="#744ca2"/><line x1="100.52" y1="238.76" x2="120.17" y2="234.62" fill="#744ca2"/><path d="M207.01,526.92c-3.32-1.4-4.88-5.22-3.48-8.54s5.22-4.88,8.54-3.48" fill="url(#_Áåçûìÿííûé_ãðàäèåíò_302-2)"/></g></g></svg>